<svg id="icons" enable-background="new 0 0 64 64" height="512" viewBox="0 0 64 64" width="512" xmlns="http://www.w3.org/2000/svg"><path d="m11.518 57.492 1 2.99h-7.001l1-2.99z" fill="#545c66"/><path d="m10.999 57.492h-4-5c-.55 0-1-.449-1-1v-10c0-.549.45-1 1-1h14c.55 0 1 .451 1 1v10c0 .551-.45 1-1 1z" fill="#5d9cec"/><path d="m62.999 46.492v10c0 .551-.45 1-1 1h-14c-.55 0-1-.449-1-1v-10c0-.549.45-1 1-1h14c.55 0 1 .451 1 1z" fill="#5d9cec"/><path d="m36.999 46.492v13c0 .551-.45 1-1 1h-8c-.55 0-1-.449-1-1v-13c0-.549.45-1 1-1h8c.55 0 1 .451 1 1z" fill="#5d9cec"/><path d="m49.999 20.502c0 4.42-3.58 8-8 8h-9.96-11.54c-3.59 0-6.5-2.908-6.5-6.5v-4c0 3.58 2.91 6.49 6.5 6.49h21.5c4.42 0 8-3.58 8-7.99z" fill="#ccd1d9"/><path d="m41.999 8.502c4.42 0 8 3.58 8 8 0 4.41-3.58 7.99-8 7.99h-21.5c-3.59 0-6.5-2.91-6.5-6.49 0-3.59 2.91-6.5 6.5-6.5h.68c.94-5.119 5.42-9 10.82-9 4.27 0 7.98 2.441 9.8 6z" fill="#e6e9ed"/><path d="m15.997 44.494h-13.996c-1.103 0-2 .896-2 2v9.998c0 1.102.897 2 2 2h13.996c1.103 0 2-.898 2-2v-9.998c0-1.103-.897-2-2-2zm-.004 11.998h-13.992v-9.998h13.996z" fill="#656d78"/><path d="m12.999 61.486h-8c-.553 0-1-.447-1-1s.447-1 1-1h8c.553 0 1 .447 1 1s-.447 1-1 1z" fill="#656d78"/><path d="m36.001 44.494h-8.002c-1.103 0-2 .896-2 2v13.004c0 1.102.897 2 2 2h8.002c1.103 0 2-.898 2-2v-13.004c0-1.103-.897-2-2-2zm-.004 15.004h-7.998v-13.004h8.002z" fill="#656d78"/><path d="m32.03 58.498c.552 0 1-.447 1-1s-.448-1-1-1h-.01c-.552 0-.994.447-.994 1s.452 1 1.004 1z" fill="#4a89dc"/><path d="m61.999 44.494h-13.996c-1.103 0-2 .896-2 2v9.998c0 1.102.897 2 2 2h13.996c1.103 0 2-.898 2-2v-9.998c0-1.103-.897-2-2-2zm-.004 11.998h-13.992v-9.998h13.996z" fill="#656d78"/><path d="m61 52.492c-.553 0-1.005-.447-1.005-1s.442-1 .994-1h.011c.552 0 1 .447 1 1s-.448 1-1 1z" fill="#4a89dc"/><g fill="#e6e9ed"><path d="m8.018 43.488c-.553 0-1-.447-1-1v-6.998c0-.553.447-1 1-1s1 .447 1 1v6.998c0 .553-.448 1-1 1z"/><path d="m55.001 36.49h-46.983c-.553 0-1-.447-1-1s.447-1 1-1h46.983c.553 0 1 .447 1 1s-.447 1-1 1z"/><path d="m55.001 43.492c-.553 0-1-.447-1-1v-7.002c0-.553.447-1 1-1s1 .447 1 1v7.002c0 .553-.447 1-1 1z"/><path d="m32.041 43.492c-.553 0-1-.447-1-1v-16.002c0-.553.447-1 1-1s1 .447 1 1v16.002c0 .553-.447 1-1 1z"/></g></svg>