<svg xmlns="http://www.w3.org/2000/svg" viewBox="0 0 715.87 304.71"><defs><style>.cls-1{fill:#4199d5;}.cls-2{fill:none;stroke:#fff;stroke-miterlimit:10;stroke-width:10px;}.cls-3{font-size:256px;fill:#223342;font-family:VladimirScript, Vladimir Script;}.cls-4{font-size:60px;fill:#1d1d1b;font-family:PoorRichard-Regular, Poor Richard;letter-spacing:1em;}</style></defs><title>Asset 4</title><g id="Layer_2" data-name="Layer 2"><g id="Layer_1-2" data-name="Layer 1"><path class="cls-1" d="M208.05,291.76H130c-71.68,0-130-58.32-130-130s58.32-130,130-130h74.39v60H130a70,70,0,0,0,0,140h78.05Z"/><path class="cls-2" d="M204.39,63h-75.3A99.08,99.08,0,0,0,30,162.07h0a99.09,99.09,0,0,0,96,99l82.07,1.67"/><polygon class="cls-1" points="204.39 31.76 204.39 91.76 184.93 61.76 204.39 31.76"/><polygon class="cls-1" points="208.05 291.76 208.05 231.76 184.93 261.76 208.05 291.76"/><text class="cls-3" transform="translate(159.27 217.86)">Crane</text><text class="cls-4" transform="translate(219.02 291.76)">CLOUD</text></g></g></svg>