<svg width="35" height="31" viewBox="0 0 35 31" fill="none" xmlns="http://www.w3.org/2000/svg">
<path fill-rule="evenodd" clip-rule="evenodd" d="M29.1667 5.16667V25.8333H5.83333V5.16667H29.1667ZM15.6542 10.3333H13.3818L9.06756 20.6667H11.1177L11.9322 18.6466H17.0967L17.8937 20.6667H20.0673L15.6542 10.3333ZM23.7065 10.3333H21.6646V20.6667H23.7065V10.3333ZM14.5008 12.067L16.5347 17.2222H12.4993L14.5008 12.067ZM31.1111 20.6667H35V24.1111H31.1111V20.6667ZM7.77778 27.5556H11.6667V31H7.77778V27.5556ZM15.5556 27.5556H19.4444V31H15.5556V27.5556ZM7.77778 0H11.6667V3.44444H7.77778V0ZM23.3333 27.5556H27.2222V31H23.3333V27.5556ZM15.5556 0H19.4444V3.44444H15.5556V0ZM23.3333 0H27.2222V3.44444H23.3333V0ZM31.1111 13.7778H35V17.2222H31.1111V13.7778ZM0 20.6667H3.88889V24.1111H0V20.6667ZM31.1111 6.88889H35V10.3333H31.1111V6.88889ZM0 13.7778H3.88889V17.2222H0V13.7778ZM0 6.88889H3.88889V10.3333H0V6.88889Z" fill="#008AC1"/>
</svg>
