<svg width="20" height="23" viewBox="0 0 20 23" fill="none" xmlns="http://www.w3.org/2000/svg">
    <path
        d="M19.0607 12.1515C19.6464 11.5657 19.6464 10.6159 19.0607 10.0302L9.51472 0.484218C8.92893 -0.101567 7.97918 -0.101568 7.3934 0.484218C6.80761 1.07001 6.80761 2.01975 7.3934 2.60554L15.8787 11.0908L7.3934 19.5761C6.80761 20.1619 6.80761 21.1116 7.3934 21.6974C7.97918 22.2832 8.92893 22.2832 9.51472 21.6974L19.0607 12.1515ZM1.19693e-10 12.5908L9 12.5908L9 9.59082L-1.19693e-10 9.59082L1.19693e-10 12.5908ZM9 12.5908L18 12.5908L18 9.59082L9 9.59082L9 12.5908Z"
        fill="#008AC1" />
</svg>