<svg width="48" height="29" viewBox="0 0 48 29" fill="none" xmlns="http://www.w3.org/2000/svg">
<path d="M47.5266 7.00243C47.3964 6.89905 46.1811 5.98142 43.6182 5.98142C42.9415 5.98438 42.2662 6.04242 41.5989 6.15501C41.1028 2.7551 38.2919 1.09746 38.1659 1.0231L37.4777 0.626221L37.0251 1.27937C36.4582 2.15676 36.0444 3.12396 35.8015 4.13986C35.3426 6.08064 35.6217 7.90353 36.6076 9.46195C35.4171 10.1254 33.5073 10.2887 33.1209 10.3031H1.50253C0.676665 10.3043 0.0065172 10.9717 0.00201641 11.7975C-0.0348632 14.5674 0.434428 17.3208 1.38678 19.9221C2.47597 22.7785 4.09639 24.8825 6.20458 26.1702C8.56696 27.6169 12.4051 28.4437 16.7557 28.4437C18.7211 28.4498 20.6829 28.272 22.6152 27.9125C25.3013 27.4193 27.886 26.4804 30.2624 25.1346C32.2206 24.0007 33.9829 22.5582 35.4812 20.8625C37.9862 18.0268 39.4785 14.8687 40.5883 12.062C40.7371 12.062 40.886 12.062 41.0306 12.062C43.7733 12.062 45.4599 10.9645 46.3899 10.0448C47.008 9.45818 47.4905 8.74363 47.8036 7.95109L48 7.37653L47.5266 7.00243Z" fill="black"/>
</svg>
