<svg width="48" height="35" viewBox="0 0 48 35" fill="none" xmlns="http://www.w3.org/2000/svg">
<path d="M47.5266 13.0024C47.3964 12.899 46.1811 11.9814 43.6182 11.9814C42.9415 11.9844 42.2662 12.0424 41.5989 12.155C41.1028 8.7551 38.2919 7.09746 38.1659 7.0231L37.4777 6.62622L37.0251 7.27937C36.4582 8.15676 36.0444 9.12396 35.8015 10.1399C35.3426 12.0806 35.6217 13.9035 36.6076 15.4619C35.4171 16.1254 33.5073 16.2887 33.1209 16.3031H1.50253C0.676665 16.3043 0.0065172 16.9717 0.00201641 17.7975C-0.0348632 20.5674 0.434428 23.3208 1.38678 25.9221C2.47597 28.7785 4.09639 30.8825 6.20458 32.1702C8.56696 33.6169 12.4051 34.4437 16.7557 34.4437C18.7211 34.4498 20.6829 34.272 22.6152 33.9125C25.3013 33.4193 27.886 32.4804 30.2624 31.1346C32.2206 30.0007 33.9829 28.5582 35.4812 26.8625C37.9862 24.0268 39.4785 20.8687 40.5883 18.062C40.7371 18.062 40.886 18.062 41.0306 18.062C43.7733 18.062 45.4599 16.9645 46.3899 16.0448C47.008 15.4582 47.4905 14.7436 47.8036 13.9511L48 13.3765L47.5266 13.0024Z" fill="black"/>
<path d="M4.43341 15.3771H8.67041C8.87475 15.3771 9.04034 15.2115 9.04034 15.0072V11.2331C9.04149 11.0288 8.87677 10.8622 8.67249 10.8611C8.67182 10.8611 8.67108 10.8611 8.67041 10.8611H4.43341C4.22907 10.8611 4.06348 11.0267 4.06348 11.231C4.06348 11.2317 4.06348 11.2324 4.06348 11.2331V15.0071C4.06348 15.2115 4.22907 15.3771 4.43341 15.3771Z" fill="black"/>
<path d="M10.272 15.3771H14.509C14.7133 15.3771 14.8789 15.2115 14.8789 15.0072V11.2331C14.8801 11.0288 14.7153 10.8622 14.511 10.8611C14.5103 10.8611 14.5096 10.8611 14.5089 10.8611H10.2719C10.0664 10.8611 9.8999 11.0276 9.8999 11.2331V15.0071C9.90111 15.2118 10.0673 15.3771 10.272 15.3771Z" fill="black"/>
<path d="M16.1996 15.3771H20.4366C20.6409 15.3771 20.8065 15.2115 20.8065 15.0072V11.2331C20.8077 11.0288 20.643 10.8622 20.4386 10.8611C20.4379 10.8611 20.4372 10.8611 20.4365 10.8611H16.1995C15.9952 10.8611 15.8296 11.0267 15.8296 11.231C15.8296 11.2317 15.8296 11.2324 15.8296 11.2331V15.0071C15.8297 15.2115 15.9953 15.3771 16.1996 15.3771Z" fill="black"/>
<path d="M22.0571 15.3771H26.2941C26.4987 15.3771 26.6649 15.2119 26.6661 15.0072V11.2331C26.6661 11.0276 26.4996 10.8611 26.2941 10.8611H22.0571C21.8527 10.8611 21.6871 11.0267 21.6871 11.231C21.6871 11.2317 21.6871 11.2324 21.6871 11.2331V15.0071C21.6871 15.2115 21.8528 15.3771 22.0571 15.3771Z" fill="black"/>
<path d="M10.2722 9.94749H14.5092C14.7138 9.94635 14.8791 9.78009 14.8791 9.57547V5.80146C14.8791 5.59711 14.7134 5.43152 14.5092 5.43152H10.2722C10.0675 5.43152 9.90129 5.59677 9.90015 5.80146V9.57547C9.90129 9.78049 10.0671 9.94635 10.2722 9.94749Z" fill="black"/>
<path d="M16.1998 9.94749H20.4368C20.6414 9.94635 20.8067 9.78009 20.8067 9.57547V5.80146C20.8067 5.59711 20.641 5.43152 20.4368 5.43152H16.1998C15.9954 5.43152 15.8298 5.59717 15.8298 5.80146V9.57547C15.8298 9.78009 15.9952 9.94635 16.1998 9.94749Z" fill="black"/>
<path d="M22.0571 9.94749H26.2941C26.4991 9.94635 26.6649 9.78049 26.6661 9.57547V5.80146C26.6649 5.59677 26.4987 5.43152 26.2941 5.43152H22.0571C21.8527 5.43152 21.6871 5.59717 21.6871 5.80146V9.57547C21.6871 9.78009 21.8525 9.94635 22.0571 9.94749Z" fill="black"/>
<path d="M22.0571 4.51604H26.2941C26.4987 4.51604 26.6649 4.35072 26.6661 4.1461V0.369938C26.6649 0.165253 26.4987 0 26.2941 0H22.0571C21.8527 0 21.6871 0.165589 21.6871 0.369938V4.14604C21.6871 4.35038 21.8528 4.51604 22.0571 4.51604Z" fill="black"/>
<path d="M27.9661 15.3771H32.2031C32.4078 15.3771 32.574 15.2119 32.5751 15.0072V11.2331C32.5751 11.0276 32.4086 10.8611 32.2031 10.8611H27.9661C27.7618 10.8611 27.5962 11.0267 27.5962 11.231C27.5962 11.2317 27.5962 11.2324 27.5962 11.2331V15.0071C27.5962 15.2115 27.7618 15.3771 27.9661 15.3771Z" fill="black"/>
</svg>
