<svg width="100%" height="100%" viewBox="0 0 636 705" fill="#555555" xmlns="http://www.w3.org/2000/svg">
<path d="M221.168 287.002C215.28 287.002 210.501 291.585 210.501 297.232V327.919H167.834V297.232C167.834 291.585 163.055 287.002 157.167 287.002C151.279 287.002 146.5 291.585 146.5 297.232V379.065C146.5 384.711 151.279 389.294 157.167 389.294C163.055 389.294 167.834 384.711 167.834 379.065V348.377H210.501V379.065C210.501 384.711 215.28 389.294 221.168 389.294C227.056 389.294 231.835 384.711 231.835 379.065V297.232C231.835 291.584 227.056 287.002 221.168 287.002Z" fill="black"/>
<path d="M306.501 287.002H263.834C257.946 287.002 253.167 291.585 253.167 297.232C253.167 302.878 257.947 307.46 263.835 307.46H274.502V379.065C274.502 384.711 279.281 389.294 285.169 389.294C291.057 389.294 295.836 384.711 295.836 379.065V307.46H306.503C312.391 307.46 317.17 302.877 317.17 297.231C317.17 291.584 312.389 287.002 306.501 287.002Z" fill="black"/>
<path d="M417.243 287.8C413.275 286.184 408.688 287.064 405.616 290.01L381.168 313.455L356.72 289.989C353.669 287.085 349.061 286.204 345.093 287.78C341.104 289.355 338.501 293.099 338.501 297.232V379.065C338.501 384.711 343.28 389.294 349.168 389.294C355.056 389.294 359.835 384.711 359.835 379.065V321.925L373.638 335.14C377.798 339.13 384.561 339.13 388.721 335.14L402.502 321.925V379.065C402.502 384.711 407.281 389.294 413.169 389.294C419.057 389.294 423.836 384.711 423.836 379.086V297.253C423.835 293.119 421.232 289.375 417.243 287.8Z" fill="black"/>
<path d="M498.501 368.835H466.501V297.231C466.501 291.584 461.722 287.001 455.834 287.001C449.946 287.001 445.168 291.584 445.168 297.231V379.064C445.168 384.71 449.947 389.293 455.835 389.293H498.502C504.39 389.293 509.169 384.71 509.169 379.064C509.169 373.417 504.389 368.835 498.501 368.835Z" fill="black"/>
<path d="M620.857 288.409C629.215 288.409 635.999 537.595 635.999 528.751L636 80.113C636 35.9549 602.049 0 560.286 0H75.7138C33.9508 0 0 35.9549 0 80.1145V624.887C0 669.045 33.9508 705 75.7138 705H560.285C602.049 705 635.999 669.045 635.999 624.887V528.751C635.999 519.906 629.215 288.409 620.857 288.409C612.498 288.409 605.713 272.387 605.712 528.751V624.887C605.712 651.389 585.33 672.955 560.283 672.955H75.7138C50.6671 672.955 30.2852 651.389 30.2852 624.887V160.228H605.713L605.712 526.5C605.714 535.345 612.498 288.409 620.857 288.409ZM30.2852 128.183V80.1145C30.2852 53.6125 50.6671 32.0464 75.7138 32.0464H560.285C585.331 32.0464 605.713 53.6125 605.713 80.1145V128.183H30.2852Z" fill="black"/>
<path d="M79.6669 95.5005C86.3865 95.5005 91.8339 90.6874 91.8339 84.7502C91.8339 78.813 86.3865 74 79.6669 74C72.9473 74 67.5 78.813 67.5 84.7502C67.5 90.6874 72.9473 95.5005 79.6669 95.5005Z" fill="black"/>
<path d="M128.334 95.5005C135.053 95.5005 140.5 90.6874 140.5 84.7502C140.5 78.813 135.053 74 128.334 74C121.614 74 116.167 78.813 116.167 84.7502C116.167 90.6874 121.614 95.5005 128.334 95.5005Z" fill="black"/>
<path d="M177 95.5005C183.72 95.5005 189.167 90.6874 189.167 84.7502C189.167 78.813 183.72 74 177 74C170.28 74 164.833 78.813 164.833 84.7502C164.833 90.6874 170.28 95.5005 177 95.5005Z" fill="black"/>
<path d="M425.795 476.603L422.395 476.101C402.245 473.226 399.235 468.643 399.235 466.171C399.235 462.171 408.402 456.121 422.234 456.121C435.836 456.121 444.796 461.769 445.234 465.829C445.854 471.376 451.713 475.638 457.779 474.874C464.074 474.351 468.715 469.447 468.118 463.919C466.372 448 446.659 436 422.234 436C396.455 436 376.259 449.246 376.259 466.15C376.259 481.889 390.527 491.898 418.719 495.919L420.557 486.01L422.074 496.422C441.167 499.176 445.187 503.356 445.187 506.371C445.187 510.371 436.02 516.422 422.188 516.422C408.587 516.422 399.626 510.754 399.189 506.694C398.568 501.166 392.939 497.065 386.644 497.649C380.349 498.171 375.707 503.076 376.305 508.603C378.05 524.523 397.764 536.522 422.188 536.522C447.967 536.522 468.163 523.276 468.163 506.372C468.163 490.653 453.917 480.643 425.795 476.603Z" fill="black"/>
<path d="M310.892 476.603L307.492 476.101C287.342 473.226 284.332 468.643 284.332 466.171C284.332 462.171 293.5 456.121 307.331 456.121C320.933 456.121 329.894 461.789 330.331 465.829C330.951 471.376 336.741 475.638 342.876 474.874C349.171 474.351 353.813 469.447 353.215 463.919C351.469 448 331.756 436 307.331 436C281.552 436 261.357 449.246 261.357 466.15C261.357 481.889 275.625 491.898 303.816 495.919L305.655 486.01L307.194 496.422C326.264 499.176 330.285 503.356 330.285 506.371C330.285 510.371 321.117 516.422 307.285 516.422C293.684 516.422 284.723 510.754 284.286 506.694C283.666 501.166 277.922 497.065 271.741 497.649C265.446 498.171 260.804 503.076 261.402 508.603C263.148 524.523 282.861 536.522 307.285 536.522C333.064 536.522 353.26 523.276 353.26 506.372C353.26 490.653 339.015 480.643 310.892 476.603Z" fill="black"/>
<path d="M226.915 496.321C220.574 496.321 215.427 500.824 215.427 506.371C215.427 511.919 210.257 516.422 203.938 516.422H180.963C174.644 516.422 169.475 511.919 169.475 506.371V466.171C169.475 460.623 174.644 456.121 180.963 456.121H203.938C210.257 456.121 215.427 460.623 215.427 466.171C215.427 471.719 220.574 476.221 226.915 476.221C233.257 476.221 238.404 471.719 238.404 466.171C238.404 449.548 222.941 436.021 203.94 436.021H180.964C161.962 436.021 146.5 449.548 146.5 466.171V506.371C146.5 522.994 161.962 536.522 180.964 536.522H203.94C222.941 536.522 238.404 522.994 238.404 506.371C238.404 500.824 233.257 496.321 226.915 496.321Z" fill="black"/>
</svg>
