<svg width="12" height="15" viewBox="0 0 12 15" fill="none" xmlns="http://www.w3.org/2000/svg">
<path d="M4.31505 1.67687C7.45868 1.67687 10.0178 4.20874 10.0178 7.31892C10.0178 10.4291 7.45868 12.961 4.31505 12.961C4.07269 12.961 3.83032 12.9469 3.59509 12.9116C4.95661 11.3883 5.74074 9.39943 5.74074 7.31892C5.74074 5.23842 4.95661 3.24959 3.59509 1.72624C3.83032 1.69098 4.07269 1.67687 4.31505 1.67687ZM4.31505 0.266357C3.01769 0.266357 1.79873 0.618986 0.750854 1.21845C2.88225 2.43855 4.31505 4.70947 4.31505 7.31892C4.31505 9.92837 2.88225 12.1993 0.750854 13.4194C1.79873 14.0189 3.01769 14.3715 4.31505 14.3715C8.24993 14.3715 11.4435 11.2119 11.4435 7.31892C11.4435 3.42591 8.24993 0.266357 4.31505 0.266357Z" fill="#283237"/>
</svg>
