<svg width="300" height="200" viewBox="0 0 300 200" fill="none" xmlns="http://www.w3.org/2000/svg">
<rect width="300" height="200" fill="#DDDDDD"/>
<path d="M151.484 98.5177C151.026 98.0595 150.284 98.0595 149.826 98.5177C149.369 98.9747 149.369 99.7165 149.826 100.175C150.284 100.632 151.026 100.632 151.484 100.175C151.941 99.7165 151.941 98.9747 151.484 98.5177Z" fill="#F7B21F"/>
<path d="M166.399 83.6019C164.109 81.3122 160.402 81.3121 158.112 83.6019C155.828 85.8858 155.828 89.603 158.112 91.8887C160.397 94.172 164.114 94.1729 166.399 91.8885C168.688 89.5989 168.689 85.8919 166.399 83.6019ZM164.741 90.2311C163.371 91.6015 161.14 91.6015 159.769 90.2314C158.399 88.86 158.399 86.6295 159.769 85.2592C161.143 83.8854 163.367 83.8852 164.741 85.2592C166.115 86.6329 166.115 88.8572 164.741 90.2311Z" fill="#F7B21F"/>
<path d="M179.657 70.3433C179.427 70.1132 179.113 69.9885 178.786 70.0008C178.521 70.0103 172.212 70.2639 164.713 72.9146C158.703 75.0364 153.694 78.0742 149.825 81.9437C148.958 82.8108 148.114 83.7303 147.307 84.6855C143.481 82.4334 140.415 83.1395 138.477 84.1767C134.014 86.565 131.252 93.0497 131.252 97.688C131.252 98.1619 131.538 98.5893 131.976 98.7706C132.121 98.8307 132.273 98.8599 132.424 98.8599C132.729 98.8599 133.029 98.7407 133.253 98.5166C135.606 96.1631 138.509 96.3103 139.458 96.435L139.868 96.8454C139.06 98.7673 138.41 100.678 137.932 102.537C137.76 103.21 137.818 103.922 138.074 104.573C136.946 105.093 135.858 105.856 134.91 106.804C131.893 109.82 131.281 117.172 131.256 117.484C131.229 117.825 131.353 118.162 131.595 118.404C131.816 118.625 132.115 118.748 132.424 118.748C132.455 118.748 132.486 118.747 132.516 118.744C132.828 118.72 140.18 118.107 143.196 115.091C144.144 114.143 144.907 113.055 145.427 111.927C146.116 112.198 146.826 112.231 147.464 112.068C149.322 111.59 151.233 110.94 153.155 110.132L153.565 110.543C153.69 111.491 153.837 114.394 151.483 116.747C151.148 117.082 151.048 117.586 151.23 118.024C151.411 118.462 151.838 118.748 152.312 118.748C156.95 118.748 163.435 115.985 165.823 111.523C166.861 109.585 167.567 106.519 165.315 102.693C166.269 101.886 167.189 101.042 168.056 100.175C171.926 96.3053 174.964 91.2963 177.085 85.2874C179.736 77.7877 179.99 71.4788 179.999 71.214C180.011 70.8888 179.887 70.5734 179.657 70.3433ZM133.872 95.1674C134.6 91.6444 136.715 87.7785 139.583 86.2431C141.5 85.2173 143.596 85.3178 145.824 86.5374C143.926 89.0337 142.276 91.7231 140.9 94.5632C140.883 94.5524 140.672 94.2872 140.28 94.1988C140.119 94.1624 137.018 93.4955 133.872 95.1674ZM141.539 113.433C139.928 115.044 136.148 115.894 133.759 116.241C134.106 113.852 134.956 110.072 136.567 108.461C137.469 107.559 138.516 106.875 139.567 106.489L143.511 110.433C143.126 111.485 142.441 112.531 141.539 113.433ZM146.882 109.797C146.542 109.884 146.15 109.757 145.858 109.465C144.342 107.949 143.748 107.356 143.562 107.17C143.221 106.829 142.384 105.992 140.536 104.143C140.244 103.85 140.116 103.458 140.203 103.119C140.578 101.657 141.069 100.158 141.666 98.6434L151.357 108.334C149.842 108.931 148.343 109.422 146.882 109.797ZM163.757 110.417C162.222 113.285 158.356 115.4 154.833 116.128C155.956 114.014 156.204 111.323 155.794 109.692C155.698 109.313 155.451 109.122 155.437 109.1C158.277 107.724 160.966 106.074 163.463 104.176C164.683 106.404 164.783 108.5 163.757 110.417ZM166.399 98.5175C165.343 99.5734 164.206 100.594 163.02 101.549C160.167 103.846 157.027 105.792 153.678 107.341L142.66 96.3229C144.208 92.9729 146.154 89.8333 148.451 86.981C149.407 85.7936 150.427 84.6564 151.483 83.601C154.954 80.1292 159.435 77.3662 164.804 75.3773L174.623 85.1966C172.634 90.5651 169.871 95.0456 166.399 98.5175ZM175.466 82.725L167.275 74.5341C171.738 73.148 175.62 72.629 177.558 72.4424C177.371 74.3806 176.852 78.2629 175.466 82.725Z" fill="#F7B21F"/>
<path d="M148.168 118.404C147.711 117.947 146.969 117.947 146.511 118.404L143.197 121.72C142.739 122.177 142.74 122.919 143.197 123.377C143.655 123.834 144.397 123.834 144.855 123.377L148.169 120.061C148.626 119.604 148.626 118.862 148.168 118.404Z" fill="#F7B21F"/>
<path d="M131.596 101.832C131.139 101.374 130.397 101.374 129.939 101.831L126.624 105.146C126.166 105.603 126.166 106.345 126.623 106.803C127.081 107.26 127.822 107.261 128.28 106.803L131.596 103.489C132.053 103.031 132.054 102.289 131.596 101.832Z" fill="#F7B21F"/>
<path d="M139.882 120.062C139.425 119.605 138.683 119.605 138.225 120.062L130.287 127.999C129.829 128.457 129.829 129.199 130.287 129.657C130.744 130.114 131.486 130.115 131.944 129.657L139.882 121.72C140.34 121.262 140.34 120.52 139.882 120.062Z" fill="#F7B21F"/>
<path d="M130.507 120.062C130.05 119.605 129.308 119.605 128.85 120.062L120.912 127.999C120.454 128.457 120.454 129.199 120.912 129.657C121.369 130.114 122.111 130.115 122.569 129.657L130.507 121.72C130.965 121.262 130.965 120.52 130.507 120.062Z" fill="#F7B21F"/>
<path d="M129.938 110.118C129.48 109.66 128.738 109.66 128.28 110.118L120.343 118.056C119.886 118.514 119.886 119.256 120.343 119.713C120.801 120.171 121.543 120.171 122.001 119.713L129.938 111.775C130.395 111.317 130.395 110.575 129.938 110.118Z" fill="#F7B21F"/>
<path d="M156.455 93.5452C155.997 93.0876 155.256 93.0876 154.798 93.5452L153.141 95.2022C152.683 95.6598 152.683 96.4019 153.141 96.8596C153.598 97.3172 154.34 97.3172 154.798 96.8596L156.455 95.2026C156.913 94.7449 156.913 94.0029 156.455 93.5452Z" fill="#F7B21F"/>
</svg>
