<svg width="28" height="31" viewBox="0 0 28 31" fill="none" xmlns="http://www.w3.org/2000/svg">
<path d="M10.1404 24.5156C9.81127 26.3705 8.33476 27.7698 6.56308 27.7698H3.64648C3.24378 27.7698 2.91733 27.4083 2.91733 26.9624V23.733C2.91733 21.7713 4.18106 20.1364 5.85628 19.772L5.87352 19.2184C5.90267 18.2825 5.98972 17.3639 6.13073 16.4667H0.729871C0.214022 16.4667 -0.138711 15.8898 0.0528704 15.3595L2.96948 7.28589C3.08021 6.97937 3.34832 6.77838 3.64648 6.77838H10.2088C10.2459 6.77838 10.2822 6.78143 10.3178 6.78732C13.7512 2.45328 18.8489 -0.202126 24.4584 0.0120519C25.3489 0.046054 26.2359 0.153328 27.1121 0.332986C27.409 0.393866 27.6413 0.651083 27.6963 0.979838C28.8929 8.13458 26.4722 15.1036 21.8676 19.5785C21.8726 19.6169 21.8753 19.6562 21.8753 19.6962V26.9624C21.8753 27.2925 21.6937 27.5894 21.4169 27.712L14.1254 30.9415C13.6464 31.1536 13.1255 30.763 13.1255 30.1918V24.2092C12.3042 24.3687 11.4738 24.4647 10.6403 24.4965L10.1404 24.5156ZM8.7323 24.0472L6.2793 21.3311C5.20527 21.4851 4.37563 22.5018 4.37563 23.733V26.155H6.56308C7.67501 26.155 8.59317 25.2364 8.7323 24.0472ZM14.5838 23.8573V28.9993L20.417 26.4158V20.8478C18.6931 22.2023 16.7294 23.2365 14.5838 23.8573ZM6.44757 14.852C7.00353 12.4969 7.93764 10.3169 9.17159 8.3931H4.14014L1.80685 14.852H6.44757ZM9.77123 22.914L10.59 22.8827C11.4083 22.8515 12.2234 22.7529 13.0285 22.5878C21.8318 20.7827 27.7022 11.5579 26.3471 1.82705C25.7051 1.71783 25.0576 1.65061 24.4081 1.62581C15.291 1.27771 7.64534 9.17911 7.33096 19.2741L7.30272 20.1807L9.77123 22.914ZM17.5004 16.4667C15.0842 16.4667 13.1255 14.2979 13.1255 11.6225C13.1255 8.94718 15.0842 6.77838 17.5004 6.77838C19.9166 6.77838 21.8753 8.94718 21.8753 11.6225C21.8753 14.2979 19.9166 16.4667 17.5004 16.4667ZM17.5004 14.852C19.1112 14.852 20.417 13.4061 20.417 11.6225C20.417 9.83897 19.1112 8.3931 17.5004 8.3931C15.8896 8.3931 14.5838 9.83897 14.5838 11.6225C14.5838 13.4061 15.8896 14.852 17.5004 14.852Z" fill="#CCCCCC"/>
</svg>
