<svg width="90" height="23" viewBox="0 0 90 23" fill="none" xmlns="http://www.w3.org/2000/svg">
<path d="M41.9396 6.69359C41.4695 6.67811 41.076 7.04657 41.0604 7.51662C41.0598 7.53533 41.0598 7.55404 41.0604 7.57274V11.8001C39.0208 10.162 36.0394 10.4876 34.4014 12.5273C33.7257 13.3687 33.3576 14.4156 33.3579 15.4947C33.3132 18.1095 35.3967 20.2654 38.0115 20.3101C40.6263 20.3548 42.7823 18.2713 42.827 15.6565C42.8279 15.6026 42.8279 15.5486 42.827 15.4947V7.57691C42.834 7.33962 42.7403 7.11044 42.5689 6.94618C42.4011 6.78209 42.1742 6.69251 41.9396 6.69776V6.69359ZM40.8272 16.6347C40.5248 17.3459 39.9605 17.9137 39.2511 18.2205C38.5078 18.5352 37.6688 18.5352 36.9255 18.2205C36.2176 17.9166 35.6554 17.3495 35.3577 16.6389C35.0466 15.904 35.0466 15.0744 35.3577 14.3396C35.656 13.6313 36.2184 13.0671 36.9255 12.7662C37.6687 12.4515 38.5078 12.4515 39.2511 12.7662C39.9604 13.073 40.5248 13.6407 40.8272 14.352C41.1382 15.084 41.1382 15.911 40.8272 16.643" fill="#0073EC"/>
<path d="M51.8255 12.1424C49.9754 10.294 46.9772 10.2953 45.1288 12.1454C44.2421 13.0329 43.7438 14.236 43.7434 15.4905C43.6987 18.1054 45.7822 20.2613 48.397 20.306C51.0118 20.3507 53.1678 18.2672 53.2125 15.6524C53.2134 15.5985 53.2134 15.5446 53.2125 15.4906C53.2129 14.8679 53.0938 14.2509 52.8619 13.6729C52.623 13.0982 52.2705 12.5776 51.8255 12.1424ZM51.2141 16.6306C51.0628 16.9815 50.8476 17.3012 50.5792 17.5733C50.3084 17.8452 49.9886 18.0635 49.6365 18.2164C48.8938 18.5311 48.0551 18.5311 47.3124 18.2164C46.6037 17.9131 46.0408 17.3459 45.7432 16.6348C45.4321 15.8999 45.4321 15.0703 45.7432 14.3354C46.0424 13.6283 46.6053 13.0654 47.3124 12.7662C48.0551 12.4515 48.8938 12.4515 49.6365 12.7662C49.9886 12.9191 50.3084 13.1373 50.5792 13.4094C50.8476 13.6814 51.0628 14.0011 51.2141 14.352C51.5233 15.0844 51.5233 15.9107 51.2141 16.6431" fill="#0073EC"/>
<path d="M71.4012 11.6345C71.4018 11.5181 71.3779 11.4029 71.3309 11.2963C71.2831 11.1941 71.2182 11.1008 71.139 11.0203C71.0609 10.9388 70.967 10.874 70.863 10.8298C70.7532 10.7845 70.6355 10.7615 70.5166 10.7622C70.3488 10.7611 70.1842 10.809 70.0432 10.9002L64.9878 14.1891V7.58517C64.9923 7.34877 64.8989 7.12103 64.7297 6.95582C64.5671 6.78492 64.3404 6.68986 64.1045 6.69359C63.6175 6.69054 63.2202 7.0829 63.2171 7.56996C63.2171 7.57368 63.2171 7.57736 63.2171 7.58104V19.3328C63.2143 19.5677 63.3075 19.7936 63.4752 19.9581C63.6391 20.1295 63.8673 20.2246 64.1045 20.2203C64.3396 20.2241 64.5655 20.1289 64.727 19.9581C64.8946 19.7936 64.9879 19.5677 64.9851 19.3328V16.2855L66.016 15.6093L69.9232 19.9967C70.0815 20.1489 70.2944 20.231 70.5139 20.2244C70.6327 20.2258 70.7506 20.2028 70.8603 20.1568C70.9645 20.1136 71.0585 20.0493 71.1363 19.9677C71.2167 19.8851 71.2817 19.7889 71.3281 19.6834C71.3751 19.5769 71.3991 19.4617 71.3985 19.3453C71.3991 19.116 71.3116 18.8951 71.1543 18.7283L67.5218 14.6362L71.0632 12.3369C71.2919 12.1789 71.4204 11.9119 71.4012 11.6345Z" fill="#0073EC"/>
<path d="M56.7332 13.3901C57.0061 13.1202 57.3279 12.9048 57.6813 12.7552C58.0474 12.5995 58.4415 12.5206 58.8392 12.5234C59.1914 12.5201 59.5411 12.5828 59.8702 12.7083C60.2 12.8409 60.5055 13.0275 60.7742 13.2604C60.9375 13.3904 61.1409 13.4597 61.3497 13.4563C61.5876 13.4663 61.8188 13.3762 61.9873 13.2079C62.1532 13.0389 62.2433 12.8098 62.2371 12.5731C62.24 12.3161 62.1282 12.0712 61.9321 11.905C61.0849 11.1468 59.9828 10.7362 58.8461 10.7554C56.2308 10.7554 54.1109 12.8754 54.1109 15.4906C54.1043 18.102 56.216 20.2242 58.8274 20.2308C59.9673 20.2337 61.0699 19.8246 61.9321 19.079C62.11 18.9097 62.2099 18.6744 62.2081 18.4289C62.2236 17.9589 61.8552 17.5653 61.3851 17.5498C61.3664 17.5491 61.3477 17.5491 61.329 17.5498C61.1278 17.5507 60.932 17.6154 60.77 17.7347C60.5057 17.9675 60.2025 18.1521 59.8743 18.2798C59.5448 18.4037 59.1953 18.4655 58.8433 18.462C58.4456 18.4648 58.0515 18.3859 57.6854 18.2302C57.3323 18.0801 57.0106 17.8647 56.7373 17.5953C55.5772 16.4422 55.5715 14.5669 56.7247 13.4068C56.7289 13.4026 56.7331 13.3984 56.7373 13.3942" fill="#0073EC"/>
<path d="M88.9635 11.3475C88.7925 11.187 88.5892 11.0647 88.3673 10.9886C88.1135 10.8975 87.85 10.8364 87.582 10.8064C87.3169 10.7739 87.05 10.7573 86.7829 10.7567C86.2409 10.7551 85.7028 10.8485 85.193 11.0328C84.6935 11.215 84.2272 11.4779 83.8129 11.8112V11.6345C83.7935 11.1464 83.3821 10.7662 82.8939 10.7855C82.4328 10.8037 82.0631 11.1734 82.0449 11.6345V19.3453C82.0642 19.8336 82.4756 20.2136 82.9638 20.1944C83.425 20.1762 83.7946 19.8065 83.8129 19.3453V15.4906C83.8102 15.0924 83.8891 14.6978 84.0447 14.3313C84.1935 13.9798 84.4086 13.6602 84.6782 13.3901C84.9495 13.1208 85.2693 12.9053 85.6208 12.7552C85.9874 12.5995 86.3819 12.5206 86.7802 12.5233C87.176 12.5194 87.5691 12.5911 87.9381 12.7345C88.0547 12.7906 88.1815 12.8221 88.3107 12.827C88.4296 12.8281 88.5474 12.805 88.6572 12.7593C88.7612 12.7154 88.8551 12.6506 88.9332 12.5689C89.012 12.4885 89.0765 12.3951 89.1236 12.2929C89.1716 12.1837 89.196 12.0657 89.1954 11.9465C89.204 11.7243 89.1177 11.5091 88.9581 11.3544" fill="#0073EC"/>
<path d="M80.7474 13.6799C79.9954 11.922 78.2719 10.7781 76.36 10.7678C73.7456 10.7671 71.6255 12.8858 71.6248 15.5003C71.6248 15.5007 71.6248 15.5012 71.6248 15.5016C71.6243 18.1176 73.7445 20.2387 76.3605 20.2392C77.4961 20.2394 78.5941 19.8316 79.4542 19.09C79.4667 19.0776 79.486 19.061 79.4888 19.0569C79.5659 18.9944 79.6333 18.921 79.6889 18.8388C79.9731 18.4295 79.8717 17.8673 79.4626 17.5829C79.1196 17.3601 78.6687 17.4006 78.3709 17.6809C78.3419 17.7072 78.2591 17.7845 78.2453 17.7955L78.2329 17.8065C77.9809 18.0208 77.6931 18.189 77.3827 18.3034C77.0543 18.4191 76.7082 18.4761 76.3601 18.4718C76.0392 18.4733 75.7202 18.4221 75.416 18.3199C75.1198 18.2209 74.8406 18.0771 74.5879 17.8935C74.3362 17.7093 74.115 17.4867 73.9324 17.2337C73.7459 16.9755 73.6031 16.6883 73.5101 16.3836H80.2051C80.44 16.389 80.6671 16.2988 80.8344 16.1338C81.0066 15.9707 81.1006 15.7415 81.0925 15.5045C81.0979 14.8804 80.9802 14.2613 80.7461 13.6827L80.7474 13.6799ZM73.5086 14.6253C73.5971 14.3203 73.7371 14.0328 73.9226 13.7751C74.1063 13.5218 74.329 13.2991 74.5823 13.1154C74.8385 12.932 75.121 12.7882 75.4201 12.689C75.7227 12.5882 76.0396 12.5369 76.3586 12.5371C76.6757 12.5368 76.9908 12.5881 77.2916 12.689C77.8885 12.8873 78.4085 13.267 78.7793 13.7751C78.9687 14.0325 79.1133 14.3199 79.2072 14.6253H73.5086Z" fill="#0073EC"/>
<path d="M85.9437 18.9451C85.6053 18.9504 85.3353 19.2291 85.3407 19.5675C85.346 19.9059 85.6247 20.1759 85.963 20.1705C86.2993 20.1652 86.5683 19.89 86.5661 19.5537C86.5623 19.2138 86.2837 18.9413 85.9438 18.9451C85.9438 18.9451 85.9437 18.9451 85.9437 18.9451ZM85.9437 20.0395C85.6756 20.0517 85.4485 19.8443 85.4363 19.5763C85.4241 19.3083 85.6315 19.0811 85.8995 19.0689C86.1675 19.0568 86.3947 19.2641 86.4069 19.5322C86.4073 19.5407 86.4075 19.5493 86.4074 19.5579C86.4166 19.8146 86.2159 20.0301 85.9592 20.0392C85.954 20.0394 85.9489 20.0395 85.9437 20.0395Z" fill="#0073EC"/>
<path d="M86.0844 19.5731V19.5648C86.1523 19.5517 86.2033 19.4955 86.21 19.4268C86.2126 19.3741 86.1907 19.3231 86.1507 19.2888C86.0859 19.2544 86.0127 19.2391 85.9396 19.2446C85.8614 19.2435 85.7833 19.25 85.7063 19.2639V19.8712H85.8443V19.6269H85.9106C85.9893 19.6269 86.0251 19.6559 86.0375 19.7236C86.0458 19.7748 86.0616 19.8246 86.0845 19.8712H86.2377C86.2139 19.8236 86.1985 19.7722 86.1921 19.7194C86.1859 19.6533 86.1433 19.5963 86.0817 19.5717L86.0844 19.5731ZM85.9147 19.5275H85.847V19.3522C85.8732 19.3491 85.8996 19.3491 85.9257 19.3522C86.0141 19.3522 86.0555 19.3895 86.0555 19.4447C86.0555 19.4999 85.992 19.5344 85.9175 19.5344" fill="#0073EC"/>
<path d="M31.7361 8.68243C31.6492 8.61339 30.8377 8.00065 29.1263 8.00065C28.6744 8.00262 28.2235 8.04138 27.7779 8.11656C27.4466 5.84625 25.5696 4.73936 25.4855 4.6897L25.0259 4.42468L24.7237 4.86083C24.3452 5.44671 24.0688 6.09256 23.9066 6.77093C23.6002 8.0669 23.7866 9.28414 24.4449 10.3248C23.6499 10.7678 22.3747 10.8768 22.1166 10.8865H1.00332C0.451846 10.8872 0.00435189 11.3329 0.00134646 11.8843C-0.0232801 13.734 0.290092 15.5726 0.926031 17.3096C1.65334 19.217 2.73539 20.622 4.14314 21.4818C5.72063 22.4479 8.28354 22.9999 11.1887 22.9999C12.5011 23.004 13.8111 22.8853 15.1014 22.6452C16.8951 22.3159 18.621 21.689 20.2079 20.7903C21.5154 20.0331 22.6922 19.0699 23.6928 17.9376C25.3655 16.044 26.362 13.9352 27.1031 12.061C27.2024 12.061 27.3018 12.061 27.3984 12.061C29.2298 12.061 30.3561 11.3281 30.9771 10.714C31.3898 10.3223 31.712 9.84513 31.9211 9.3159L32.0522 8.93224L31.7361 8.68243Z" fill="#0073EC"/>
<path d="M2.96041 10.2682H5.78968C5.92613 10.2682 6.03671 10.1576 6.03671 10.0211V7.50098C6.03747 7.36453 5.92748 7.25333 5.79107 7.25256C5.79062 7.25256 5.79013 7.25256 5.78968 7.25256H2.96041C2.82395 7.25256 2.71338 7.36318 2.71338 7.49959C2.71338 7.50004 2.71338 7.50053 2.71338 7.50098V10.0211C2.71338 10.1576 2.82395 10.2682 2.96041 10.2682Z" fill="#0073EC"/>
<path d="M6.8593 10.2682H9.68858C9.82503 10.2682 9.9356 10.1576 9.9356 10.0211V7.50098C9.93637 7.36453 9.82638 7.25333 9.68992 7.25256C9.68947 7.25256 9.68898 7.25256 9.68853 7.25256H6.85926C6.72204 7.25256 6.61084 7.36376 6.61084 7.50098V10.0211C6.61165 10.1578 6.72262 10.2682 6.8593 10.2682Z" fill="#0073EC"/>
<path d="M10.8174 10.2682H13.6467C13.7831 10.2682 13.8937 10.1576 13.8937 10.0211V7.50098C13.8944 7.36453 13.7845 7.25333 13.648 7.25256C13.6476 7.25256 13.6471 7.25256 13.6466 7.25256H10.8173C10.6809 7.25256 10.5703 7.36318 10.5703 7.49959C10.5703 7.50004 10.5703 7.50053 10.5703 7.50098V10.0211C10.5704 10.1576 10.681 10.2682 10.8174 10.2682Z" fill="#0073EC"/>
<path d="M14.7287 10.2682H17.558C17.6947 10.2682 17.8056 10.1578 17.8064 10.0211V7.50098C17.8064 7.36376 17.6952 7.25256 17.558 7.25256H14.7287C14.5923 7.25256 14.4817 7.36318 14.4817 7.49959C14.4817 7.50004 14.4817 7.50053 14.4817 7.50098V10.0211C14.4817 10.1576 14.5923 10.2682 14.7287 10.2682Z" fill="#0073EC"/>
<path d="M6.85926 6.64252H9.68853C9.82517 6.64175 9.93556 6.53073 9.93556 6.3941V3.87398C9.93556 3.73753 9.82494 3.62695 9.68853 3.62695H6.85926C6.72262 3.62695 6.6116 3.7373 6.61084 3.87398V6.3941C6.6116 6.531 6.72235 6.64175 6.85926 6.64252Z" fill="#0073EC"/>
<path d="M10.8173 6.64252H13.6466C13.7832 6.64175 13.8936 6.53073 13.8936 6.3941V3.87398C13.8936 3.73753 13.783 3.62695 13.6466 3.62695H10.8173C10.6809 3.62695 10.5703 3.73757 10.5703 3.87398V6.3941C10.5703 6.53073 10.6807 6.64175 10.8173 6.64252Z" fill="#0073EC"/>
<path d="M14.7287 6.64252H17.558C17.6949 6.64175 17.8056 6.531 17.8064 6.3941V3.87398C17.8056 3.7373 17.6947 3.62695 17.558 3.62695H14.7287C14.5923 3.62695 14.4817 3.73757 14.4817 3.87398V6.3941C14.4817 6.53073 14.5921 6.64175 14.7287 6.64252Z" fill="#0073EC"/>
<path d="M14.7287 3.01561H17.558C17.6947 3.01561 17.8056 2.90522 17.8064 2.76858V0.247028C17.8056 0.110349 17.6947 0 17.558 0H14.7287C14.5923 0 14.4817 0.110573 14.4817 0.247028V2.76854C14.4817 2.90499 14.5923 3.01561 14.7287 3.01561Z" fill="#0073EC"/>
<path d="M18.6745 10.2682H21.5038C21.6405 10.2682 21.7514 10.1578 21.7522 10.0211V7.50098C21.7522 7.36376 21.641 7.25256 21.5038 7.25256H18.6745C18.5381 7.25256 18.4275 7.36318 18.4275 7.49959C18.4275 7.50004 18.4275 7.50053 18.4275 7.50098V10.0211C18.4275 10.1576 18.5381 10.2682 18.6745 10.2682Z" fill="#0073EC"/>
</svg>
