<?xml version="1.0" encoding="iso-8859-1"?>
<!-- Generator: Adobe Illustrator 19.0.0, SVG Export Plug-In . SVG Version: 6.00 Build 0)  -->
<svg version="1.1" id="Capa_1" xmlns="http://www.w3.org/2000/svg" xmlns:xlink="http://www.w3.org/1999/xlink" x="0px" y="0px"
	 viewBox="0 0 490 490" style="enable-background:new 0 0 490 490;" xml:space="preserve">
<g>
	<polygon points="260.313,109.424 229.688,109.424 229.688,213.283 182.774,213.283 245,296.902 307.226,213.283 260.313,213.283 	
		"/>
	<path d="M22.969,362.717h183.75v52.951h-69.863v30.625h216.289v-30.625h-69.863v-52.951h183.75
		c12.633,0,22.969-10.336,22.969-22.969V66.676c0-12.633-10.336-22.969-22.969-22.969H22.969C10.336,43.707,0,54.043,0,66.676
		v273.073C0,352.381,10.336,362.717,22.969,362.717z M30.625,74.332h428.75v257.76H30.625V74.332z"/>
</g>
<g>
</g>
<g>
</g>
<g>
</g>
<g>
</g>
<g>
</g>
<g>
</g>
<g>
</g>
<g>
</g>
<g>
</g>
<g>
</g>
<g>
</g>
<g>
</g>
<g>
</g>
<g>
</g>
<g>
</g>
</svg>
