<?xml version="1.0" encoding="iso-8859-1"?>
<!-- Generator: Adobe Illustrator 19.0.0, SVG Export Plug-In . SVG Version: 6.00 Build 0)  -->
<svg version="1.1" id="Layer_1" xmlns="http://www.w3.org/2000/svg" xmlns:xlink="http://www.w3.org/1999/xlink" x="0px" y="0px"
	 viewBox="0 0 508 508" style="enable-background:new 0 0 508 508;" xml:space="preserve">
<path style="fill:#235B9E;" d="M504,378.8c0,68.8-56.4,125.2-125.2,125.2H129.2C60.4,504,4,447.6,4,378.8V129.2
	C4,60.4,60.4,4,129.2,4h249.6C447.6,4,504,60.4,504,129.2V378.8z"/>
<path style="fill:#FFFFFF;" d="M214.4,408.8H274V254h47.2l5.6-63.6H278v-24c0-12,7.6-16,13.2-16h34.4v-52h-48.8
	c-53.6,0-66.4,40-66.4,65.2v27.2h-27.6V254h31.6L214.4,408.8L214.4,408.8z"/>
<path d="M274,412.8h-59.6c-2.4,0-4-1.6-4-4V258h-27.6c-2.4,0-4-1.6-4-4v-63.6c0-2.4,1.6-4,4-4h23.6v-23.2
	c0-33.2,18.4-69.2,70.4-69.2h48.8c2.4,0,4,1.6,4,4v52.8c0,2.4-1.6,4-4,4h-34.4c-2,0-9.2,0.8-9.2,12v20h44.8c1.2,0,2,0.4,2.8,1.2
	s1.2,2,1.2,3.2l-5.6,63.6c0,2-2,3.6-4,3.6H278V306c0,2.4-1.6,4-4,4s-4-1.6-4-4v-52c0-2.4,1.6-4,4-4h43.6l4.8-55.6H278
	c-2.4,0-4-1.6-4-4v-24c0-13.6,8.8-20,17.2-20h30.4V102h-44.8c-10.4,0-62.4,2.8-62.4,61.2v27.2c0,2.4-1.6,4-4,4h-23.6V250h27.6
	c2.4,0,4,1.6,4,4v150.8H270v-31.6c0-2.4,1.6-4,4-4s4,1.6,4,4v35.6C278,410.8,276,412.8,274,412.8z"/>
<path d="M378.8,508H129.2C58,508,0,450,0,378.8V129.2C0,58,58,0,129.2,0h249.6C450,0,508,58,508,129.2v249.6
	C508,450,450,508,378.8,508z M129.2,8C62.4,8,8,62.4,8,129.2v249.6C8,445.6,62.4,500,129.2,500h249.6c66.8,0,121.2-54.4,121.2-121.2
	V129.2C500,62.4,445.6,8,378.8,8H129.2z"/>
<path d="M370,484H138c-62,0-114-52.4-114-114.4V138C24,76,76,24,138,24h231.2c2.4,0,4,1.6,4,4s-1.6,4-4,4H138
	C80.4,32,32,80.4,32,138v232c0,57.6,48.8,106.4,106,106.4h232c57.6,0,106-48.8,106-106.4V258c0-2.4,1.6-4,4-4s4,1.6,4,4v112
	C484,432,432,484,370,484z"/>
<path d="M446.8,65.2c-1.2,0-2-0.4-2.8-1.2c-20.4-20.4-47.6-32-75.2-32c-2.4,0-4-1.6-4-4s1.6-4,4-4c29.6,0,58.8,12.4,80.8,34.4
	c1.6,1.6,1.6,4,0,5.6C449.2,64.8,448,65.2,446.8,65.2z"/>
<path d="M480,234c-2.4,0-4-1.6-4-4v-59.2c0-2.4,1.6-4,4-4s4,1.6,4,4V230C484,232.4,482.4,234,480,234z"/>
<g>
</g>
<g>
</g>
<g>
</g>
<g>
</g>
<g>
</g>
<g>
</g>
<g>
</g>
<g>
</g>
<g>
</g>
<g>
</g>
<g>
</g>
<g>
</g>
<g>
</g>
<g>
</g>
<g>
</g>
</svg>
