<svg width="31" height="26" viewBox="0 0 31 26" fill="none" xmlns="http://www.w3.org/2000/svg">
<path d="M11.6247 18.4167H19.3747H11.6247ZM11.6247 14.0833H19.3747H11.6247ZM11.6247 9.75H12.9163H11.6247ZM16.7913 3.25H10.5913C9.14455 3.25 8.42113 3.25 7.86853 3.48616C7.38244 3.69387 6.98724 4.02533 6.73958 4.43302C6.45801 4.89649 6.45801 5.50322 6.45801 6.71667V19.2833C6.45801 20.4968 6.45801 21.1036 6.73958 21.567C6.98724 21.9747 7.38244 22.3062 7.86853 22.5138C8.42113 22.75 9.14455 22.75 10.5913 22.75H20.408C21.8548 22.75 22.5783 22.75 23.1308 22.5138C23.6169 22.3062 24.0121 21.9747 24.2598 21.567C24.5413 21.1036 24.5413 20.4968 24.5413 19.2833V9.75M16.7913 3.25L24.5413 9.75L16.7913 3.25ZM16.7913 3.25V8.01667C16.7913 8.62339 16.7913 8.92675 16.9321 9.15849C17.056 9.36233 17.2535 9.52806 17.4966 9.63193C17.7729 9.75 18.1345 9.75 18.858 9.75H24.5413" fill="white"/>
<path d="M11.6247 18.4167H19.3747M11.6247 14.0833H19.3747M11.6247 9.75H12.9163M16.7913 3.25H10.5913C9.14455 3.25 8.42113 3.25 7.86853 3.48616C7.38244 3.69387 6.98724 4.02533 6.73958 4.43302C6.45801 4.89649 6.45801 5.50322 6.45801 6.71667V19.2833C6.45801 20.4968 6.45801 21.1036 6.73958 21.567C6.98724 21.9747 7.38244 22.3062 7.86853 22.5138C8.42113 22.75 9.14455 22.75 10.5913 22.75H20.408C21.8548 22.75 22.5783 22.75 23.1308 22.5138C23.6169 22.3062 24.0121 21.9747 24.2598 21.567C24.5413 21.1036 24.5413 20.4968 24.5413 19.2833V9.75M16.7913 3.25L24.5413 9.75M16.7913 3.25V8.01667C16.7913 8.62339 16.7913 8.92675 16.9321 9.15849C17.056 9.36233 17.2535 9.52806 17.4966 9.63193C17.7729 9.75 18.1345 9.75 18.858 9.75H24.5413" stroke="black" stroke-linecap="round" stroke-linejoin="round"/>
</svg>
