<svg width="25" height="25" viewBox="0 0 38 33" fill="none" xmlns="http://www.w3.org/2000/svg">
    <path
        d="M34.8815 6.66984C34.8815 7.02795 34.7173 7.3714 34.4249 7.62462C34.1325 7.87784 33.7359 8.0201 33.3224 8.0201H19.2908C18.8773 8.0201 18.4808 7.87784 18.1884 7.62462C17.896 7.3714 17.7317 7.02795 17.7317 6.66984C17.7317 6.31173 17.896 5.96829 18.1884 5.71506C18.4808 5.46184 18.8773 5.31958 19.2908 5.31958H33.3224C33.7359 5.31958 34.1325 5.46184 34.4249 5.71506C34.7173 5.96829 34.8815 6.31173 34.8815 6.66984ZM33.3224 12.0709H22.4089C21.9955 12.0709 21.5989 12.2131 21.3065 12.4664C21.0141 12.7196 20.8499 13.063 20.8499 13.4211C20.8499 13.7793 21.0141 14.1227 21.3065 14.3759C21.5989 14.6291 21.9955 14.7714 22.4089 14.7714H33.3224C33.7359 14.7714 34.1325 14.6291 34.4249 14.3759C34.7173 14.1227 34.8815 13.7793 34.8815 13.4211C34.8815 13.063 34.7173 12.7196 34.4249 12.4664C34.1325 12.2131 33.7359 12.0709 33.3224 12.0709ZM33.3224 18.8222H25.5271C25.1136 18.8222 24.717 18.9644 24.4247 19.2177C24.1323 19.4709 23.968 19.8143 23.968 20.1724C23.968 20.5306 24.1323 20.874 24.4247 21.1272C24.717 21.3804 25.1136 21.5227 25.5271 21.5227H33.3224C33.7359 21.5227 34.1325 21.3804 34.4249 21.1272C34.7173 20.874 34.8815 20.5306 34.8815 20.1724C34.8815 19.8143 34.7173 19.4709 34.4249 19.2177C34.1325 18.9644 33.7359 18.8222 33.3224 18.8222ZM33.3224 25.5735H28.6452C28.2317 25.5735 27.8352 25.7157 27.5428 25.969C27.2504 26.2222 27.0862 26.5656 27.0862 26.9237C27.0862 27.2819 27.2504 27.6253 27.5428 27.8785C27.8352 28.1317 28.2317 28.274 28.6452 28.274H33.3224C33.7359 28.274 34.1325 28.1317 34.4249 27.8785C34.7173 27.6253 34.8815 27.2819 34.8815 26.9237C34.8815 26.5656 34.7173 26.2222 34.4249 25.969C34.1325 25.7157 33.7359 25.5735 33.3224 25.5735ZM9.93637 3.29419C9.52288 3.29419 9.12632 3.43645 8.83394 3.68967C8.54155 3.94289 8.3773 4.28634 8.3773 4.64445V25.6896L6.36142 23.9437C6.06737 23.6978 5.67355 23.5617 5.26476 23.5647C4.85598 23.5678 4.46494 23.7098 4.17588 23.9602C3.88682 24.2105 3.72285 24.5492 3.7193 24.9032C3.71574 25.2572 3.87289 25.5983 4.15689 25.853L8.8341 29.9038C8.97893 30.0295 9.15097 30.1293 9.34038 30.1974C9.5298 30.2654 9.73285 30.3005 9.93793 30.3005C10.143 30.3005 10.3461 30.2654 10.5355 30.1974C10.7249 30.1293 10.8969 30.0295 11.0417 29.9038L15.719 25.853C16.003 25.5983 16.1601 25.2572 16.1566 24.9032C16.153 24.5492 15.989 24.2105 15.7 23.9602C15.4109 23.7098 15.0199 23.5678 14.6111 23.5647C14.2023 23.5617 13.8085 23.6978 13.5144 23.9437L11.4954 25.6896V4.64445C11.4954 4.28634 11.3312 3.94289 11.0388 3.68967C10.7464 3.43645 10.3499 3.29419 9.93637 3.29419Z"
        fill="black" />
</svg>