<svg width="15" height="15" viewBox="0 0 19 19" fill="none" xmlns="http://www.w3.org/2000/svg">
<path d="M0 9.5C0 4.2533 4.2533 0 9.5 0V0C14.7467 0 19 4.2533 19 9.5V9.5C19 14.7467 14.7467 19 9.5 19V19C4.2533 19 0 14.7467 0 9.5V9.5Z" fill="black"/>
<path d="M9.5 0C4.25363 0 0 4.25363 0 9.5C0 14.7464 4.25363 19 9.5 19C14.7464 19 19 14.7464 19 9.5C19 4.25363 14.7464 0 9.5 0ZM11.2559 14.7377C10.9757 14.7923 10.8854 14.6197 10.8854 14.4717V12.9509C10.8854 12.4339 10.7041 12.0967 10.5046 11.9249C11.7396 11.7879 13.0364 11.3193 13.0364 9.19046C13.0364 8.58483 12.8203 8.09083 12.4656 7.70292C12.5226 7.56279 12.7126 6.99913 12.411 6.23596C12.411 6.23596 11.9463 6.08713 10.8886 6.80358C10.4445 6.68167 9.97104 6.62071 9.5 6.61833C9.02896 6.62071 8.55554 6.68167 8.11221 6.80438C7.05375 6.08792 6.58825 6.23675 6.58825 6.23675C6.28821 6.99992 6.47742 7.56358 6.53521 7.70292C6.18054 8.09083 5.96363 8.58483 5.96363 9.19046C5.96363 11.3137 7.25721 11.7887 8.48825 11.9288C8.32992 12.0674 8.18663 12.3112 8.13675 12.6698C7.82008 12.8115 7.01813 13.0562 6.52413 12.2091C6.52413 12.2091 6.23121 11.6771 5.67467 11.6375C5.67467 11.6375 5.13396 11.6304 5.63667 11.9748C5.63667 11.9748 6.00083 12.145 6.25179 12.7854C6.25179 12.7854 6.57242 13.775 8.11458 13.4393V14.4709C8.11458 14.6173 8.02513 14.7891 7.74883 14.7377C5.54642 14.0054 3.95833 11.928 3.95833 9.48021C3.95833 6.41883 6.44021 3.93854 9.5 3.93854C12.5598 3.93854 15.0417 6.41883 15.0417 9.48021C15.0417 11.9273 13.456 14.0046 11.2559 14.7377V14.7377Z" fill="white"/>
</svg>
