<svg width="16" height="16" viewBox="0 0 16 16" fill="none" xmlns="http://www.w3.org/2000/svg">
<path d="M8.79996 7.19995H7.19995V12H8.79996V7.19995Z" fill="#F7B21F"/>
<path d="M7.99998 0C3.58001 0 0 3.58002 0 8C0 12.42 3.58001 16 7.99998 16C12.42 16 16 12.42 16 8C16 3.57998 12.42 0 7.99998 0ZM7.99998 14.4C4.47198 14.4 1.59997 11.528 1.59997 8C1.59997 4.47199 4.47198 1.60002 7.99998 1.60002C11.528 1.60002 14.4 4.47199 14.4 8C14.4 11.528 11.528 14.4 7.99998 14.4Z" fill="#F7B21F"/>
<path d="M8.79996 4H7.19995V5.60002H8.79996V4Z" fill="#F7B21F"/>
</svg>
