<svg width="250" height="250" viewBox="0 0 312 312" fill="none" xmlns="http://www.w3.org/2000/svg">
<path d="M295.242 230.794C287.587 230.794 281.118 235.957 279.123 242.982H235.947V211.758H249.215C262.498 211.758 273.304 200.977 273.304 187.725C273.304 174.479 262.508 163.702 249.234 163.692V4.57031C249.234 2.04567 247.188 0 244.663 0H165.445C162.92 0 160.874 2.04567 160.874 4.57031V115.832C158.192 114.366 155.328 113.217 152.343 112.433V4.57031C152.343 2.04567 150.297 0 147.773 0H68.5541C66.0294 0 63.9838 2.04567 63.9838 4.57031V97.1953C63.9838 99.72 66.0294 101.766 68.5541 101.766C71.0787 101.766 73.1244 99.72 73.1244 97.1953V94.7962H143.203V111.216C143.101 111.215 143 111.211 142.898 111.211C124.444 111.211 109.056 124.556 105.924 142.082C102.434 140.538 98.6316 139.722 94.7462 139.722C85.9926 139.722 78.1822 143.814 73.1244 150.178V117C73.1244 114.475 71.0787 112.43 68.5541 112.43C66.0294 112.43 63.9838 114.475 63.9838 117V163.723C63.5822 163.702 63.18 163.691 62.7778 163.691C49.4983 163.691 38.6947 174.472 38.6947 187.724C38.6947 200.976 49.4989 211.758 62.7784 211.758H76.053V242.982H32.877C30.8819 235.957 24.4134 230.794 16.7578 230.794C7.51786 230.794 0 238.312 0 247.552C0 256.792 7.51786 264.31 16.7578 264.31C24.4134 264.31 30.8819 259.147 32.877 252.122H80.6234C83.148 252.122 85.1937 250.077 85.1937 247.552V211.758H104.812V214.398C104.812 216.923 106.858 218.969 109.383 218.969C111.907 218.969 113.953 216.923 113.953 214.398V211.758H151.43V255.053C144.405 257.048 139.242 263.516 139.242 271.172C139.242 280.412 146.76 287.93 156 287.93C165.24 287.93 172.758 280.412 172.758 271.172C172.758 263.516 167.595 257.048 160.57 255.053V211.758H198.047V279.123C191.022 281.118 185.859 287.587 185.859 295.242C185.859 304.482 193.377 312 202.617 312C211.857 312 219.375 304.482 219.375 295.242C219.375 287.587 214.212 281.118 207.188 279.123V211.758H226.806V247.552C226.806 250.077 228.852 252.122 231.377 252.122H279.123C281.118 259.147 287.587 264.31 295.242 264.31C304.482 264.31 312 256.792 312 247.552C312 238.312 304.482 230.794 295.242 230.794ZM16.7578 255.169C12.5574 255.169 9.14062 251.752 9.14062 247.552C9.14062 243.351 12.5574 239.935 16.7578 239.935C20.9582 239.935 24.375 243.351 24.375 247.552C24.375 251.752 20.9582 255.169 16.7578 255.169ZM170.016 9.14062H240.094V25.9368H170.016V9.14062ZM170.015 94.7968H214.392C216.916 94.7968 218.962 92.7511 218.962 90.2265C218.962 87.7019 216.916 85.6562 214.392 85.6562H170.016V35.0781H240.094V85.6562H234.102C231.577 85.6562 229.531 87.7019 229.531 90.2265C229.531 92.7511 231.577 94.7968 234.102 94.7968H240.094V163.674C237.076 155.623 229.288 149.876 220.181 149.876C219.742 149.876 219.306 149.889 218.873 149.915C218.892 149.503 218.902 149.09 218.902 148.677C218.902 134.055 206.98 122.16 192.328 122.16C185.72 122.16 179.51 124.56 174.722 128.799C173.355 126.635 171.772 124.633 170.015 122.81V94.7968ZM73.125 9.14062H143.203V25.9368H73.125V9.14062ZM73.125 85.6556V35.0775H143.203V85.6556H73.125ZM163.617 271.172C163.617 275.372 160.2 278.789 156 278.789C151.8 278.789 148.383 275.372 148.383 271.172C148.383 266.971 151.8 263.555 156 263.555C160.2 263.555 163.617 266.971 163.617 271.172ZM210.234 295.242C210.234 299.443 206.818 302.859 202.617 302.859C198.417 302.859 195 299.443 195 295.242C195 291.042 198.417 287.625 202.617 287.625C206.818 287.625 210.234 291.042 210.234 295.242ZM62.7784 202.617C54.5391 202.617 47.8359 195.936 47.8359 187.725C47.8359 179.513 54.5391 172.832 62.7784 172.832C65.2336 172.832 67.665 173.438 69.8076 174.587C71.3298 175.402 73.1798 175.29 74.5924 174.298C76.0049 173.306 76.738 171.603 76.4875 169.896C76.362 169.038 76.298 168.149 76.298 167.253C76.298 157.113 84.5739 148.863 94.7468 148.863C99.2392 148.863 103.564 150.491 106.925 153.445C106.929 153.449 106.934 153.452 106.937 153.455C110.912 156.948 113.191 161.977 113.191 167.253C113.191 171.738 111.553 176.058 108.58 179.415C106.906 181.306 107.082 184.193 108.971 185.867C109.842 186.638 110.923 187.016 112 187.016C113.263 187.016 114.52 186.496 115.423 185.476C119.879 180.445 122.333 173.974 122.333 167.253C122.333 160.055 119.496 153.173 114.499 148.051C114.836 132.721 127.441 120.352 142.898 120.352C153.912 120.352 164.005 126.836 168.639 136.682C166.754 140.386 165.752 144.483 165.752 148.68C165.752 157.751 170.324 166.097 177.981 171.006C178.745 171.495 179.599 171.729 180.443 171.729C181.948 171.729 183.422 170.986 184.295 169.625C185.657 167.5 185.039 164.673 182.914 163.311C177.891 160.091 174.892 154.622 174.892 148.68C174.892 145.387 175.82 142.183 177.574 139.415C177.576 139.412 177.579 139.409 177.581 139.406C180.798 134.331 186.31 131.302 192.327 131.302C201.939 131.302 209.759 139.097 209.759 148.678C209.759 150.683 209.422 152.642 208.758 154.502C208.136 156.242 208.624 158.186 209.994 159.427C211.364 160.667 213.347 160.961 215.017 160.17C216.631 159.406 218.368 159.018 220.179 159.018C226.858 159.018 232.291 164.433 232.291 171.088C232.291 171.507 232.272 171.907 232.235 172.272C232.048 174.117 232.995 175.892 234.631 176.765C236.267 177.638 238.269 177.437 239.697 176.253C242.359 174.048 245.739 172.833 249.214 172.833C257.456 172.833 264.162 179.515 264.162 187.726C264.162 195.937 257.458 202.617 249.216 202.617H62.7784ZM295.242 255.169C291.042 255.169 287.625 251.752 287.625 247.552C287.625 243.351 291.042 239.935 295.242 239.935C299.443 239.935 302.859 243.351 302.859 247.552C302.859 251.752 299.443 255.169 295.242 255.169Z" fill="#06222F"/>
</svg>
