<svg xmlns="http://www.w3.org/2000/svg" width="100%" height="100%" viewBox="0 0 44 44"><path d="M20.44 24.3s-1 .6.73.81a15.68 15.68 0 0 0 5.59-.24 9.4 9.4 0 0 0 1.48.72c-5.28 2.27-11.95-.13-7.8-1.29zm-.65-2.95s-1.15.86.61 1a21.72 21.72 0 0 0 7.21-.35 3.17 3.17 0 0 0 1.11.68c-6.38 1.87-13.49.15-8.93-1.37zm5.44-5.01a2 2 0 0 1-.34 2.85s3.3-1.71 1.79-3.84-2.51-3 3.37-6.39c0 0-9.23 2.3-4.82 7.38z"/><path d="M32.21 26.49s.77.63-.84 1.11c-3 .93-12.68 1.2-15.36 0-1-.42.85-1 1.41-1.12a3.81 3.81 0 0 1 .93-.11c-1.07-.75-6.91 1.48-3 2.12 10.76 1.75 19.62-.78 16.82-2zm-11.28-8.2S16 19.46 19.2 19.88a36.49 36.49 0 0 0 6.48-.07c2-.17 4.07-.54 4.07-.54a9.06 9.06 0 0 0-1.24.66c-5 1.31-14.59.7-11.82-.63a9.19 9.19 0 0 1 4.24-1zm8.8 4.92c5.06-2.63 2.72-5.16 1.08-4.82a4 4 0 0 0-.57.16.86.86 0 0 1 .43-.34c3.23-1.13 5.71 3.35-1 5.13a.64.64 0 0 0 .1-.13zM26.68 3.45s2.8 2.8-2.66 7.11C19.64 14 23 16 24 18.24c-2.56-2.3-4.43-4.33-3.18-6.22 1.85-2.77 7-4.12 5.84-8.57z"/><path d="M21.43 30.33c4.86.31 12.32-.17 12.49-2.47 0 0-.34.87-4 1.56a39.93 39.93 0 0 1-12.29.19s.62.52 3.81.72zm12.27 4.12h-.15v-.08H34v.08h-.2v.42h-.1v-.42zm.79 0-.14.4h-.07l-.15-.4v.4H34v-.5h.15l.13.35.14-.35h.14v.5h-.1v-.4zm-13.85 4.66a2.21 2.21 0 0 1-1.38.62.88.88 0 0 1-1-1c0-.64.36-1.11 1.8-1.11h.54v1.46zm1.26 1.43v-4.42c0-1.12-.64-1.87-2.19-1.87a5.74 5.74 0 0 0-2.35.51l.19.78a5.34 5.34 0 0 1 1.81-.36c.89 0 1.28.36 1.28 1.11v.55h-.45C18 36.84 17 37.69 17 39c0 1.09.65 1.71 1.86 1.71a2.82 2.82 0 0 0 1.91-.79l.1.67zm4.22 0h-1.58l-1.9-6.18H24l1.18 3.8.26 1.14a23.49 23.49 0 0 0 1.23-4.94H28a25.26 25.26 0 0 1-1.91 6.18zm6.05-1.43a2.21 2.21 0 0 1-1.38.62.87.87 0 0 1-.95-1c0-.64.36-1.11 1.79-1.11h.54v1.46zm1.26 1.43v-4.42c0-1.12-.64-1.87-2.19-1.87a5.74 5.74 0 0 0-2.35.51l.19.78a5.34 5.34 0 0 1 1.81-.36c.89 0 1.28.36 1.28 1.11v.55h-.45c-2.17 0-3.15.85-3.15 2.11 0 1.09.65 1.71 1.86 1.71a2.82 2.82 0 0 0 1.91-.79l.1.67zm-17.78 1.05a3.38 3.38 0 0 1-1.58 1.18l-.62-.77a2.64 2.64 0 0 0 1.09-1 4 4 0 0 0 .24-1.79v-7h1.34v6.95a4 4 0 0 1-.47 2.47z"/></svg>