<svg width="115" height="106" viewBox="0 0 115 106" fill="none" xmlns="http://www.w3.org/2000/svg">
<g clip-path="url(#clip0_8164_424)">
<path d="M12.4905 55.2647V55.1895V43.6924H15.2261V56.1491C15.3532 57.1531 15.2596 58.1703 14.9509 59.1402C14.6423 60.11 14.1249 61.0126 13.4296 61.7942C12.1373 62.8216 10.4815 63.3772 8.77506 63.356L8.48926 61.4743C9.58995 61.4749 10.6518 61.0995 11.4698 60.4206C12.2047 59.6303 12.4905 58.5577 12.4905 55.2647ZM32.8915 53.7805C32.8915 55.1918 32.8915 56.4525 33.014 57.5439H30.5846L30.4213 55.3047C29.9132 56.097 29.1865 56.7511 28.3152 57.2006C27.4439 57.6501 26.4589 57.8789 25.4606 57.8638C23.0925 57.8638 20.2753 56.6783 20.2753 51.8424V43.8076H23.0108V51.3343C23.0108 53.9499 23.8887 55.6998 26.3588 55.6998C26.867 55.7049 27.3712 55.6163 27.8418 55.4394C28.3124 55.2624 28.7399 55.0007 29.0993 54.6694C29.4586 54.3382 29.7426 53.9441 29.9346 53.5104C30.1266 53.0766 30.2226 52.6119 30.2172 52.1435V43.7135H32.9527V53.7053L32.8915 53.7805ZM38.0768 48.2843C38.0768 46.5344 38.0768 45.1043 37.9543 43.8059H40.4041L40.5266 46.158C41.0724 45.3082 41.8581 44.6109 42.8 44.1403C43.742 43.6698 44.8048 43.4436 45.8752 43.486C49.509 43.486 52.2445 46.2897 52.2445 50.4671C52.2445 55.3971 48.9578 57.8433 45.4056 57.8433C44.4965 57.8807 43.5922 57.7012 42.7804 57.3221C41.9686 56.943 41.2766 56.3772 40.7715 55.6794V63.2061H38.0768V48.3408V48.2843ZM40.7715 51.9536C40.779 52.2951 40.82 52.6352 40.894 52.9698C41.1257 53.8053 41.6529 54.5457 42.3924 55.074C43.1319 55.6022 44.0414 55.8881 44.9769 55.8864C47.8554 55.8864 49.5498 53.7224 49.5498 50.58C49.5498 47.8327 47.9575 45.4806 45.079 45.4806C43.9399 45.5666 42.8739 46.0326 42.0809 46.7912C41.288 47.5499 40.8224 48.5491 40.7715 49.6015V51.9536ZM57.1184 43.7934L60.4052 51.9035C60.7522 52.8067 61.1197 53.8981 61.3647 54.7072C61.6505 53.8792 61.9567 52.8255 62.3241 51.847L65.3047 43.7934H68.1831L64.1002 53.5782C62.0588 58.2824 60.8135 60.7098 58.9353 62.1775C57.9893 62.9739 56.836 63.5314 55.5873 63.7957L54.9137 61.6882C55.7868 61.4238 56.5973 61.0088 57.3022 60.4652C58.2981 59.717 59.0884 58.7629 59.609 57.6803C59.7204 57.4928 59.7964 57.2891 59.8336 57.0781C59.8103 56.851 59.7483 56.6288 59.6498 56.4195L54.0971 43.7558H57.0776L57.1184 43.7934ZM75.4452 39.8457V43.7972H79.3648V45.6789H75.4452V53.0928C75.4452 54.7863 75.976 55.7648 77.4867 55.7648C78.0232 55.7729 78.5586 55.7159 79.079 55.5954L79.2015 57.4771C78.4211 57.7263 77.5976 57.8411 76.7722 57.8158C76.2255 57.8474 75.6779 57.7695 75.167 57.5876C74.656 57.4057 74.1938 57.1241 73.8121 56.7621C72.9805 55.7369 72.6012 54.4594 72.7505 53.1869V45.6601H70.4233V43.7784H72.7913V40.429L75.4452 39.8457ZM84.4041 51.1088C84.3487 51.747 84.4442 52.3886 84.6842 52.9894C84.9242 53.5901 85.3028 54.1357 85.7939 54.5884C86.285 55.0411 86.8769 55.3901 87.5287 55.6113C88.1805 55.8324 88.8766 55.9205 89.569 55.8695C90.9693 55.8983 92.3605 55.6547 93.6519 55.1544L94.1214 57.0361C92.5368 57.6378 90.8329 57.9262 89.1198 57.8829C88.1211 57.9459 87.1195 57.8091 86.1836 57.4817C85.2476 57.1544 84.3996 56.6444 83.6976 55.9866C82.9956 55.3289 82.4563 54.5389 82.1166 53.671C81.777 52.803 81.645 51.8776 81.7298 50.9583C81.7298 46.8186 84.4041 43.5444 88.7728 43.5444C93.6723 43.5444 94.8971 47.496 94.8971 50.0174C94.9233 50.4059 94.9233 50.7956 94.8971 51.1841H84.3428L84.4041 51.1088ZM92.4066 49.2271C92.4854 48.724 92.4462 48.2112 92.2918 47.7233C92.1374 47.2353 91.8714 46.7835 91.5115 46.3984C91.1517 46.0132 90.7065 45.7036 90.2059 45.4905C89.7053 45.2773 89.1609 45.1655 88.6095 45.1627C87.4878 45.2375 86.4369 45.6958 85.6628 46.4476C84.8886 47.1995 84.447 48.1907 84.4245 49.2271H92.4066ZM99.0478 48.0722C99.0478 46.454 99.0478 45.0615 98.9253 43.782H101.375V46.4728H101.497C101.755 45.6423 102.286 44.9062 103.018 44.3667C103.749 43.8272 104.645 43.511 105.58 43.4621C105.838 43.4309 106.099 43.4309 106.356 43.4621V45.8142C106.044 45.7809 105.729 45.7809 105.417 45.8142C104.49 45.8473 103.608 46.1902 102.936 46.7789C102.263 47.3676 101.847 48.1617 101.763 49.0131C101.687 49.3981 101.646 49.7884 101.64 50.1797V57.4995H98.9457V48.091L99.0478 48.0722Z" fill="#4E4E4E"/>
<path d="M97.8492 5.99329C97.933 7.25742 97.6067 8.51594 96.9118 9.60852C96.2169 10.7011 95.1849 11.5783 93.9472 12.1284C92.7096 12.6784 91.3223 12.8764 89.9621 12.6972C88.6019 12.518 87.3304 11.9696 86.3095 11.1219C85.2886 10.2742 84.5646 9.16564 84.2297 7.93735C83.8948 6.70906 83.9642 5.41667 84.4289 4.22484C84.8937 3.03301 85.7328 1.99566 86.8394 1.24496C87.9461 0.49426 89.2701 0.0641856 90.6428 0.00952247C91.5428 -0.0361273 92.4438 0.0826702 93.2938 0.359084C94.1438 0.635496 94.9262 1.06407 95.5959 1.62016C96.2656 2.17626 96.8095 2.8489 97.1962 3.5994C97.5829 4.3499 97.8048 5.16347 97.8492 5.99329Z" fill="#767677"/>
<path d="M57.4823 79.6912C39.1093 79.6912 22.9613 73.6133 14.6118 64.6377C17.8515 72.7123 23.697 79.6783 31.3617 84.5981C39.0263 89.518 48.1424 92.1553 57.4823 92.1553C66.8223 92.1553 75.9382 89.518 83.603 84.5981C91.2676 79.6783 97.1131 72.7123 100.353 64.6377C92.0238 73.6133 75.937 79.6912 57.4823 79.6912Z" fill="#F37726"/>
<path d="M57.4823 21.3255C75.8554 21.3255 92.0034 27.4033 100.353 36.3789C97.1131 28.3043 91.2676 21.3383 83.603 16.4185C75.9382 11.4987 66.8223 8.86133 57.4823 8.86133C48.1424 8.86133 39.0263 11.4987 31.3617 16.4185C23.697 21.3383 17.8515 28.3043 14.6118 36.3789C22.9613 27.3845 39.0277 21.3255 57.4823 21.3255Z" fill="#F37726"/>
<path d="M32.1891 97.1582C32.2968 98.7505 31.8879 100.336 31.0144 101.714C30.1408 103.091 28.8423 104.197 27.2841 104.892C25.7259 105.586 23.9787 105.838 22.2651 105.614C20.5514 105.39 18.9489 104.701 17.6616 103.634C16.3744 102.568 15.4608 101.172 15.0371 99.6251C14.6135 98.0783 14.699 96.4502 15.2828 94.9483C15.8666 93.4465 16.9222 92.1388 18.3152 91.1919C19.7082 90.245 21.3755 89.7018 23.1046 89.6315C24.2373 89.5756 25.3709 89.726 26.4406 90.0741C27.5102 90.4222 28.495 90.9611 29.3386 91.6601C30.1822 92.359 30.8682 93.2044 31.3573 94.1478C31.8464 95.0911 32.129 96.1141 32.1891 97.1582Z" fill="#9E9E9E"/>
<path d="M16.6997 19.2796C15.7097 19.3048 14.7337 19.0596 13.8945 18.5749C13.0553 18.0902 12.3902 17.3876 11.9831 16.5554C11.5759 15.7232 11.4448 14.7987 11.6062 13.898C11.7676 12.9973 12.2143 12.1608 12.8902 11.4935C13.566 10.8262 14.4409 10.358 15.4046 10.1478C16.3684 9.93763 17.3781 9.99477 18.3067 10.3121C19.2353 10.6294 20.0414 11.1927 20.6236 11.9312C21.2058 12.6697 21.5382 13.5504 21.5788 14.4625C21.6175 15.6958 21.1268 16.8934 20.2133 17.7953C19.2998 18.6972 18.0372 19.2305 16.6997 19.2796Z" fill="#616262"/>
</g>
<defs>
<clipPath id="clip0_8164_424">
<rect width="115" height="106" fill="white"/>
</clipPath>
</defs>
</svg>
