<svg width="15" height="15" viewBox="0 0 15 15" fill="none" xmlns="http://www.w3.org/2000/svg">
<path d="M4.10442 3.02929L2.95036 1.87641L2.04635 2.78455L3.194 3.93743L4.10442 3.02929ZM0.411438 6.67473H2.33486V7.96287H0.411438V6.67473ZM6.82286 0.266235H8.10515V2.16624H6.82286V0.266235ZM11.9776 1.87319L12.8804 2.7794L11.7327 3.93228L10.8306 3.02543L11.9776 1.87319ZM10.8236 11.6083L11.9712 12.7676L12.8752 11.8595L11.7212 10.7066L10.8236 11.6083ZM12.5931 6.67473H14.5166V7.96287H12.5931V6.67473ZM7.464 3.45438C5.34182 3.45438 3.61715 5.18693 3.61715 7.3188C3.61715 9.45067 5.34182 11.1832 7.464 11.1832C9.58618 11.1832 11.3109 9.45067 11.3109 7.3188C11.3109 5.18693 9.58618 3.45438 7.464 3.45438ZM7.464 9.89508C6.04708 9.89508 4.89943 8.74219 4.89943 7.3188C4.89943 5.89541 6.04708 4.74252 7.464 4.74252C8.88093 4.74252 10.0286 5.89541 10.0286 7.3188C10.0286 8.74219 8.88093 9.89508 7.464 9.89508ZM6.82286 12.4714H8.10515V14.3714H6.82286V12.4714ZM2.04635 11.8531L2.95036 12.7612L4.09801 11.6019L3.194 10.6937L2.04635 11.8531Z" fill="#F7B21F"/>
</svg>
