<svg width="32" height="33" viewBox="0 0 32 33" fill="none" xmlns="http://www.w3.org/2000/svg">
<path d="M3.8572 7.7144C5.98747 7.7144 7.7144 5.98747 7.7144 3.8572C7.7144 1.72693 5.98747 0 3.8572 0C1.72693 0 0 1.72693 0 3.8572C0 5.98747 1.72693 7.7144 3.8572 7.7144Z" fill="#555555"/>
<path d="M7.7144 10.8689H0V32.2627H7.7144V10.8689Z" fill="#555555"/>
<path d="M11.3135 10.869V32.2629H17.974V20.6913C17.974 20.6913 17.974 16.1315 21.8312 16.1315C25.6884 16.1315 25.3371 21.3939 25.3371 21.3939V32.2629H31.9975C31.9975 32.2629 31.9975 21.7452 31.9975 20.34C31.9975 18.9347 32.3488 10.1736 24.6344 10.1736C19.372 10.1736 17.6227 13.6795 17.6227 13.6795V10.8762H11.3135V10.869Z" fill="#555555"/>
</svg>
