<svg xmlns="http://www.w3.org/2000/svg" xmlns:xlink="http://www.w3.org/1999/xlink" viewBox="0 0 589.1 342.8"><defs><style>.cls-2,.cls-3{opacity:0.25;}.cls-2{fill:url(#linear-gradient);}.cls-3{fill:url(#linear-gradient-2);}</style><linearGradient id="linear-gradient" x1="489.9" y1="352.18" x2="425.81" y2="214.74" gradientUnits="userSpaceOnUse"><stop offset="0" stop-color="#0085c9" stop-opacity="0"/><stop offset="0.97" stop-color="#0085c9"/></linearGradient><linearGradient id="linear-gradient-2" x1="63.39" y1="341.74" x2="116.44" y2="237.61" xlink:href="#linear-gradient"/></defs><g id="Layer_2" data-name="Layer 2"><g id="Layer_1-2" data-name="Layer 1"><path class="solid" d="M487.42,139.45a101.35,101.35,0,0,0-34.4,6C431.55,61.8,355.67,0,265.35,0,166.62,0,85.2,73.86,73.19,169.33A87.07,87.07,0,0,0,0,255.27c0,46.54,36.5,84.87,82.46,86.94,31.53,1.42,62.07-13.17,96-35,21.75-14,53.52-40.63,53.52-40.63s-16.83,4.11-22,5.11c-13.66,2.63-26.42.69-37.49-15l49.85-13.93-47.84,3a17.8,17.8,0,0,1-16.74-7.66,83.64,83.64,0,0,1-6.74-12l60.14.81-53.18-9a18.21,18.21,0,0,1-15.11-13.14c-1.21-4.32-1.19-6.6-2-11l55.41,11.87L150.45,188.5a18.3,18.3,0,0,1-12.22-16.36c-.32-5.71-.07-9.9.1-15.38l55,32.42-34-29.1c-20.69-17.71-17.61-36.09-13.78-54.35,2.8-11.33,5.35-18.29,5.35-18.29s11.22,31.94,35,67.07a.87.87,0,0,1,0,.11s18.84,30,31.49,40.25c0,0-17.13-23.61-28.27-50.09-10.07-23.94-14.26-43.17-5.07-59.6,0,0,56.54,168.28,141.72,141,9.3-3,28-20.33,40.09-50.39-8.14.82-31.91,5-31.91,5s-9.42-49.71,46.69-51.21l-3.25,33.13c5.05-2.46,11.73-3.6,20.07.81,16.39-6.77,27.93-4.79,27.93-4.79-54.95,24.54-74.46,83.1-130,124.84-24.37,18.32-41.66,21.47-77.76,27.27-38.55,6.19-48.6,31.62-21.69,31.52.12,0,272.8.37,291.43.37a101.68,101.68,0,1,0,0-203.35Z"/><path class="cls-2" d="M587.42,259.46A87.9,87.9,0,0,0,413.3,276.59c0,2.7.14,5.36.37,8a49.83,49.83,0,0,0-19.27-3.86c-27.13,0-58.06,22.95-52.5,61.92l100.89.12c0-.13.11-.25.14-.38.16.14.31.24.47.38l44,0A101.69,101.69,0,0,0,587.42,259.46Z"/><path class="cls-3" d="M177.5,308.14c-3.38-28.4-27.4-48.5-56.88-49.21-8.36-22.3-29.92-40.87-55.14-40.87A58.81,58.81,0,0,0,6.66,276.87a95.41,95.41,0,0,0,1.49,16.54,86.53,86.53,0,0,0,74,49.29C113.49,344.11,143.84,329.73,177.5,308.14Z"/></g></g></svg>