<svg width="115" height="67" viewBox="0 0 115 67" fill="none" xmlns="http://www.w3.org/2000/svg">
<path d="M94.4269 27.0154C92.155 27.0144 89.9001 27.4076 87.7627 28.1777C83.6034 11.9724 68.9033 0 51.4058 0C32.279 0 16.5056 14.3088 14.179 32.804C10.2232 33.4427 6.62402 35.4689 4.02599 38.5195C1.42795 41.5701 0.000762189 45.446 0 49.453C0 58.4691 7.07108 65.8947 15.9748 66.2957C22.0831 66.5708 27.9995 63.7443 34.5727 59.5152C38.7863 56.803 44.941 51.644 44.941 51.644C44.941 51.644 41.6806 52.4403 40.679 52.634C38.0327 53.1435 35.5607 52.7677 33.4162 49.7281L43.0735 47.0294L33.8056 47.6106C33.1811 47.6823 32.5489 47.582 31.9773 47.3204C31.4057 47.0589 30.9165 46.6461 30.5625 46.1267C30.0642 45.3889 29.6275 44.6114 29.2568 43.8019L40.9076 43.9588L30.6052 42.2153C29.9219 42.1234 29.2805 41.8334 28.7602 41.381C28.24 40.9286 27.8637 40.3336 27.6779 39.6697C27.4435 38.8328 27.4474 38.3911 27.2905 37.5387L38.0249 39.8382L29.1464 36.5177C28.4815 36.2845 27.9012 35.8585 27.4795 35.2939C27.0579 34.7294 26.814 34.0521 26.779 33.3484C26.717 32.2422 26.7655 31.4304 26.7984 30.3688L37.4535 36.6495L30.8667 31.012C26.8585 27.5811 27.4551 24.0203 28.1971 20.4829C28.7396 18.2879 29.2336 16.9396 29.2336 16.9396C29.2336 16.9396 31.4072 23.1273 36.014 29.9329C36.0145 29.94 36.0145 29.9471 36.014 29.9542C36.014 29.9542 39.6639 35.7661 42.1145 37.7518C42.1145 37.7518 38.796 33.1779 36.6379 28.048C34.687 23.4101 33.8753 19.6847 35.6557 16.5018C35.6557 16.5018 46.609 49.1023 63.1108 43.8174C64.9125 43.2362 68.5352 39.8789 70.8774 34.0555C69.3004 34.2143 64.6955 35.0241 64.6955 35.0241C64.6955 35.0241 62.8706 25.3939 73.7407 25.1033L73.111 31.5215C74.0894 31.0449 75.3835 30.8241 76.9992 31.6784C80.1744 30.3669 82.41 30.7505 82.41 30.7505C71.7646 35.5045 67.985 46.8493 57.2253 54.9355C52.5042 58.4846 49.1546 59.0948 42.161 60.2184C34.6928 61.4176 32.7459 66.3441 37.9591 66.3247C37.9823 66.3247 90.8081 66.3964 94.4173 66.3964C97.0204 66.4222 99.6028 65.9318 102.015 64.9535C104.428 63.9752 106.622 62.5284 108.472 60.6968C110.322 58.8652 111.791 56.685 112.793 54.2824C113.795 51.8798 114.311 49.3024 114.311 46.6991C114.311 44.0959 113.795 41.5184 112.793 39.1158C111.791 36.7132 110.322 34.5331 108.472 32.7014C106.622 30.8698 104.428 29.423 102.015 28.4447C99.6028 27.4664 97.0204 26.976 94.4173 27.0018L94.4269 27.0154Z" fill="#008AC1"/>
</svg>
