<?xml version="1.0" encoding="iso-8859-1"?>
<!-- Generator: Adobe Illustrator 19.0.0, SVG Export Plug-In . SVG Version: 6.00 Build 0)  -->
<svg version="1.1" id="Capa_1" xmlns="http://www.w3.org/2000/svg" xmlns:xlink="http://www.w3.org/1999/xlink" x="0px" y="0px"
	 viewBox="0 0 490 490" style="enable-background:new 0 0 490 490;" xml:space="preserve">
<g>
	<g>
		<g>
			<polygon points="244.2,1.2 214.7,23.3 273.4,23.3 			"/>
			<polygon points="443,151.3 443,210 481.8,180.4 			"/>
			<polygon points="303.3,339.5 490,480.3 490,198.7 			"/>
			<path d="M423.5,224.8v-182H64.9v181.6l179.3,135.3L423.5,224.8z M127.9,94.1h232.6c5.4,0,9.7,4.3,9.7,9.7c0,5.4-4.3,9.7-9.7,9.7
				H127.9c-5.4,0-9.7-4.3-9.7-9.7S122.5,94.1,127.9,94.1z M127.9,161.8h232.6c5.4,0,9.7,4.3,9.7,9.7s-4.3,9.7-9.7,9.7H127.9
				c-5.4,0-9.7-4.3-9.7-9.7S122.5,161.8,127.9,161.8z M118.2,238.8c0-5.4,4.3-9.7,9.7-9.7h232.6c5.4,0,9.7,4.3,9.7,9.7
				s-4.3,9.7-9.7,9.7H127.9C122.5,248.5,118.2,244.2,118.2,238.8z"/>
			<path d="M287.4,351.6L250.1,380c-3.4,2.6-8.1,2.6-11.6,0L201,351.9L19.4,488.8H469L287.4,351.6z"/>
			<polygon points="45.5,151.3 6.6,180.4 45.5,210 			"/>
			<polygon points="0,200.3 0,479.1 184.7,339.5 			"/>
		</g>
	</g>
</g>
<g>
</g>
<g>
</g>
<g>
</g>
<g>
</g>
<g>
</g>
<g>
</g>
<g>
</g>
<g>
</g>
<g>
</g>
<g>
</g>
<g>
</g>
<g>
</g>
<g>
</g>
<g>
</g>
<g>
</g>
</svg>
