<?xml version="1.0" encoding="iso-8859-1"?>
<!-- Generator: Adobe Illustrator 19.0.0, SVG Export Plug-In . SVG Version: 6.00 Build 0)  -->
<svg version="1.1" id="Layer_1" xmlns="http://www.w3.org/2000/svg" xmlns:xlink="http://www.w3.org/1999/xlink" x="0px" y="0px"
	 viewBox="0 0 511.996 511.996" style="enable-background:new 0 0 511.996 511.996;" xml:space="preserve">
<path style="fill:#717272;" d="M489.275,147.704l-33.282,33.282l-12.289-12.203l-12.63-25.345c-0.427-0.853-1.024-1.707-1.792-2.389
	c-16.043-16.129-41.047-18.092-59.31-5.974l-16.555-16.555l11.521-34.476c1.365-4.096-0.171-8.534-3.755-10.838
	c-34.476-22.785-64.089-15.958-89.092-6.23V59.38c31.063-20.054,89.434-39.426,157.192,28.332c4.011,4.011,4.95,6.827,6.4,11.009
	c1.877,5.803,4.267,12.971,13.654,22.273c0.683,0.768,1.536,1.365,2.389,1.792l25.345,12.63L489.275,147.704z"/>
<rect x="236.727" y="178.28" transform="matrix(-0.7071 0.7071 -0.7071 -0.7071 649.4247 106.3842)" style="fill:#BDBDBD;" width="131.905" height="18.825"/>
<path style="fill:#3949AB;" d="M257.072,261.971l-28.247,39.511L102.781,427.612c-0.512,0.427-0.853,0.939-1.195,1.451
	l-24.919,37.293l-11.35,3.755L20.26,425.052l3.755-11.435l37.293-24.833c0.512-0.341,1.024-0.768,1.451-1.195l126.044-126.044
	l39.511-28.247L257.072,261.971z"/>
<g>
	<path style="fill:#717272;" d="M456.506,434.012l-14.251-33.367c-1.109-2.475-3.157-4.352-5.632-5.291
		c-2.56-0.939-5.376-0.768-7.766,0.427l-55.299,27.649c-4.608,2.389-6.656,7.851-4.608,12.63l13.739,32.087
		c-15.958-4.95-31.148-16.214-34.135-29.783c-3.926-17.238,12.971-35.927,47.704-52.824c28.161-14.678,49.496-14.251,59.992,1.109
		C464.954,399.28,464.442,419.163,456.506,434.012z"/>
	<path style="fill:#717272;" d="M89.042,141.475c-28.161,14.678-49.496,14.251-60.078-1.109c-8.619-12.63-8.107-32.514-0.171-47.362
		l14.251,33.282c1.109,2.475,3.157,4.438,5.632,5.376c2.56,0.939,5.376,0.768,7.766-0.427l55.299-27.649
		c4.608-2.389,6.656-7.851,4.608-12.63l-13.739-32.087c15.958,4.95,31.148,16.214,34.135,29.783
		C140.586,105.889,123.774,124.578,89.042,141.475z"/>
</g>
<g>
	<path style="fill:#BDBDBD;" d="M402.914,361.475c-1.877,0.597-11.777,4.694-15.446,6.656
		c-18.945,9.131-32.172,18.518-41.303,27.649c-1.024,1.024-1.792,2.048-2.731,3.158c-24.492-34.22-54.019-67.758-88.922-100.954
		c0,0,22.956-32.428,23.212-32.94C315.869,298.752,357.941,331.266,402.914,361.475z"/>
	<path style="fill:#BDBDBD;" d="M223.449,213.67l-36.183,25.857c-31.234-24.919-65.539-49.666-103.173-74.5
		c1.195-0.427,10.07-4.182,13.739-6.144c18.945-9.131,32.172-18.518,41.303-27.649c2.645-2.645,4.779-5.206,6.742-7.851
		c0.171-0.171,0.171-0.256,0.256-0.427C168.15,153.337,194.178,183.802,223.449,213.67z"/>
</g>
<path d="M414.946,153.337l12.63,25.26c0.427,0.853,1.024,1.707,1.707,2.389l20.054,20.054c3.67,3.67,9.643,3.67,13.313,0
	l46.594-46.68c3.669-3.67,3.669-9.643,0-13.313l-19.969-20.054c-0.683-0.683-1.536-1.28-2.475-1.707l-25.175-12.63
	c-5.376-5.632-6.571-9.302-8.107-13.825c-1.621-5.035-3.67-11.265-10.923-18.433C383.798,15.516,316.211,5.447,257.328,46.665
	c-2.56,1.792-4.096,4.608-4.096,7.766v26.625c0,3.157,1.707,6.059,4.352,7.766c2.645,1.792,6.144,2.048,9.046,0.768
	c24.919-10.582,48.642-20.566,78.084-4.352l-10.326,30.722l-90.543,90.543c-34.135-34.135-63.833-69.038-88.154-103.771
	c0.171-0.512,1.28-13.142,0.171-18.262c-6.315-28.161-40.791-47.448-69.123-47.789c-3.328-0.085-6.4,1.536-8.278,4.352
	c-1.792,2.731-2.133,6.23-0.853,9.302l17.153,39.853l-37.805,18.945L40.314,70.218c-1.28-2.816-3.755-4.95-6.827-5.632
	c-3.072-0.683-6.315,0.085-8.619,2.133C1.571,87.2-3.976,126.797,12.835,151.459c5.632,8.107,18.518,22.444,45.229,20.054
	c2.048,1.109,2.048,1.109,2.816,1.621c40.706,26.369,110.768,78.937,110.768,78.937L50.043,373.593l-39.17,26.199
	c-1.707,1.109-3.072,2.816-3.67,4.864l-6.742,19.969c-1.109,3.414-0.171,7.083,2.304,9.643l53.336,53.336
	c2.475,2.475,6.23,3.414,9.643,2.219l19.969-6.656c1.963-0.597,3.755-1.963,4.864-3.67l26.113-39.255l126.044-125.958
	c0.085-0.085,0.171-0.256,0.256-0.341c35.415,33.964,65.113,68.185,89.348,103.088c-2.304,5.12-3.072,8.107-3.072,8.107
	c-1.195,6.4-1.024,12.289,0.171,17.409c6.315,28.161,40.791,47.448,69.123,47.789c3.328,0.085,6.4-1.621,8.278-4.352
	c1.792-2.731,2.133-6.23,0.853-9.302l-17.153-39.853l37.805-18.945l16.641,38.914c1.195,2.816,3.755,4.95,6.827,5.632
	c3.072,0.683,6.23-0.085,8.619-2.219c23.297-20.396,28.844-59.992,11.947-84.655c-5.291-7.766-18.433-20.993-42.925-20.054
	c-52.483-34.05-101.21-71.342-144.477-110.085l90.97-91.055C386.699,143.694,403.852,143.352,414.946,153.337z M28.964,140.365
	c-8.619-12.63-8.107-32.514-0.171-47.362l14.251,33.282c1.109,2.475,3.157,4.438,5.632,5.376c2.56,0.939,5.376,0.768,7.766-0.427
	l55.299-27.649c4.608-2.389,6.656-7.851,4.608-12.63l-13.739-32.087c15.958,4.95,31.148,16.214,34.135,29.783
	c3.84,17.238-12.971,35.927-47.704,52.824C60.88,156.153,39.546,155.726,28.964,140.365z M84.092,165.028
	c1.195-0.427,10.07-4.182,13.739-6.144c18.945-9.131,32.172-18.518,41.303-27.649c2.645-2.645,4.779-5.206,6.742-7.851
	c0.171-0.171,0.171-0.256,0.256-0.427c22.017,30.38,48.045,60.846,77.316,90.714l-36.183,25.857
	C156.032,214.609,121.726,189.861,84.092,165.028z M228.825,301.483L102.781,427.612c-0.512,0.427-0.853,0.939-1.195,1.451
	l-24.919,37.293l-11.35,3.755L20.26,425.052l3.755-11.435l37.293-24.833c0.512-0.341,1.024-0.768,1.451-1.195l126.044-126.044
	l39.511-28.247l28.759,28.673L228.825,301.483z M456.25,386.65c8.704,12.63,8.192,32.514,0.256,47.362l-14.251-33.367
	c-1.109-2.475-3.157-4.352-5.632-5.291c-2.56-0.939-5.376-0.768-7.766,0.427l-55.299,27.649c-4.608,2.389-6.656,7.851-4.608,12.63
	l13.739,32.087c-15.958-4.95-31.148-16.214-34.135-29.783c-3.926-17.238,12.971-35.927,47.704-52.824
	C424.419,370.862,445.753,371.289,456.25,386.65z M402.914,361.475c-1.877,0.597-11.777,4.694-15.446,6.656
	c-18.945,9.131-32.172,18.518-41.303,27.649c-1.024,1.024-1.792,2.048-2.731,3.158c-24.492-34.22-54.019-67.758-88.922-100.954
	c0,0,22.956-32.428,23.212-32.94C315.869,298.752,357.941,331.266,402.914,361.475z M262.704,240.978l-13.313-13.313l93.274-93.274
	l13.313,13.313L262.704,240.978z M353.418,118.519l11.521-34.476c1.365-4.096-0.171-8.534-3.755-10.838
	c-34.476-22.785-64.089-15.958-89.092-6.23V59.38c31.063-20.054,89.434-39.426,157.192,28.332c4.011,4.011,4.95,6.827,6.4,11.009
	c1.877,5.803,4.267,12.971,13.654,22.273c0.683,0.768,1.536,1.365,2.389,1.792l25.345,12.63l12.203,12.289l-33.282,33.282
	l-12.289-12.203l-12.63-25.345c-0.427-0.853-1.024-1.707-1.792-2.389c-16.043-16.129-41.047-18.092-59.31-5.974L353.418,118.519z"/>
<g>
	<path style="fill:#90A4AE;" d="M269.019,295.509c0,0,9.831-13.893,16.701-23.639c-2.637-2.287-5.402-4.531-7.996-6.827
		c-0.256,0.512-23.212,32.94-23.212,32.94c34.903,33.196,64.43,66.734,88.922,100.954c0.939-1.109,1.707-2.133,2.731-3.158
		c2.031-2.031,4.301-4.079,6.759-6.136C329.438,357.789,301.601,326.504,269.019,295.509z"/>
	<path style="fill:#90A4AE;" d="M104.317,165.455c1.195-0.427,10.07-4.182,13.739-6.144c16.427-7.919,28.545-16.026,37.429-23.997
		c-3.132-4.122-6.366-8.235-9.353-12.357c-0.085,0.171-0.085,0.256-0.256,0.427c-1.963,2.645-4.096,5.206-6.742,7.851
		c-9.131,9.131-22.358,18.518-41.303,27.649c-3.67,1.963-12.545,5.718-13.739,6.144c37.634,24.833,71.94,49.581,103.173,74.5
		l10.249-7.331C168.952,209.907,138.043,187.711,104.317,165.455z"/>
</g>
<g>
	<path style="fill:#555656;" d="M96.705,129.741c-28.161,14.678-49.496,14.251-60.078-1.109c-5.607-8.227-7.288-19.508-5.632-30.491
		l-2.202-5.137c-7.936,14.849-8.448,34.732,0.171,47.362c10.582,15.361,31.916,15.787,60.078,1.109
		c24.936-12.135,40.459-25.183,45.912-37.958C126.881,112.434,114.029,121.309,96.705,129.741z"/>
	<path style="fill:#555656;" d="M360.023,438.364c-3.926-17.238,12.971-35.927,47.704-52.824
		c10.923-5.692,20.788-9.046,29.424-10.206c-10.906-1.493-24.722,1.784-40.885,10.206c-34.732,16.897-51.629,35.586-47.704,52.824
		c2.987,13.569,18.177,24.833,34.135,29.783l-2.714-6.332C370.033,455.961,362.088,447.743,360.023,438.364z"/>
</g>
<path style="fill:#283593;" d="M230.361,279.039L104.317,405.168c-0.512,0.427-0.853,0.939-1.195,1.451l-24.919,37.293l-11.35,3.755
	L29.288,410.1l-5.274,3.516l-3.755,11.435l45.058,45.058l11.35-3.755l24.919-37.293c0.341-0.512,0.683-1.024,1.195-1.451
	l126.044-126.129l28.247-39.511l-8.474-8.448L230.361,279.039z"/>
<rect x="240.141" y="186.531" transform="matrix(-0.7071 0.7071 -0.7071 -0.7071 657.6743 109.8172)" style="fill:#90A4AE;" width="131.905" height="9.174"/>
<g>
	<path style="fill:#555656;" d="M419.725,132.42c-0.427-0.853-1.024-1.707-1.792-2.389c-15.984-16.069-40.851-18.057-59.096-6.093
		l11.137,11.137c15.284-10.138,35.227-10.283,50.75-0.649L419.725,132.42z"/>
	<polygon style="fill:#555656;" points="477.072,135.416 476.261,135.015 477.925,136.687 444.772,169.841 455.993,180.986 
		489.275,147.704 	"/>
</g>
<g>
</g>
<g>
</g>
<g>
</g>
<g>
</g>
<g>
</g>
<g>
</g>
<g>
</g>
<g>
</g>
<g>
</g>
<g>
</g>
<g>
</g>
<g>
</g>
<g>
</g>
<g>
</g>
<g>
</g>
</svg>
