<?xml version="1.0" encoding="iso-8859-1"?>
<!-- Generator: Adobe Illustrator 18.0.0, SVG Export Plug-In . SVG Version: 6.00 Build 0)  -->
<!DOCTYPE svg PUBLIC "-//W3C//DTD SVG 1.1//EN" "http://www.w3.org/Graphics/SVG/1.1/DTD/svg11.dtd">
<svg version="1.1" id="Capa_1" xmlns="http://www.w3.org/2000/svg" xmlns:xlink="http://www.w3.org/1999/xlink" x="0px" y="0px"
	 viewBox="0 0 312.668 312.668" style="enable-background:new 0 0 312.668 312.668;" xml:space="preserve">
<g>
	<path d="M305.651,143.334l-96-30c-1.834-0.572-3.794-0.605-5.645-0.095l-46.899,12.95c-1.518,2.49-3.099,5.025-4.791,7.641
		c-4.004,6.188-8.157,12.195-12.186,17.797l17.671-4.88v30.678l-53.921,14.784l-65.976-19.827l6.503-32.031l17.979,4.31
		c-2.435-3.514-4.874-7.137-7.26-10.823c-3.036-4.69-5.78-9.171-8.254-13.462l-7.874-1.887c-2.638-0.633-5.419-0.166-7.707,1.293
		c-2.287,1.458-3.884,3.783-4.424,6.441L0.202,257.557c-1.084,5.337,2.303,10.559,7.617,11.749l98.333,22
		c1.64,0.367,3.348,0.315,4.963-0.153l75.684-21.901l106.667,27.969c0.837,0.22,1.689,0.327,2.536,0.327
		c2.105,0,4.179-0.664,5.912-1.935c2.43-1.78,3.928-4.562,4.077-7.571l6.666-134.668
		C312.881,148.821,310.001,144.693,305.651,143.334z M157.802,256.822l-49.785,14.406l-86.264-19.3l11.156-54.943l67.216,20.199
		c2.226,0.667,4.645,0.698,6.902,0.084l50.775-13.921V256.822z M286.623,274.75l-97.419-25.544
		c-0.831-0.219-1.684-0.327-2.536-0.327c-0.936,0-1.872,0.132-2.78,0.395l-1.086,0.314v-53.093l6.665-1.827l100.023,22.168
		L286.623,274.75z M290.744,191.508l-98.895-21.92c-1.969-0.434-4.059-0.383-6.004,0.149l-3.042,0.834v-30.727l23.692-6.542
		l85.804,26.814L290.744,191.508z"/>
	<path d="M103.667,171.245c1.502,0,2.923-0.675,3.873-1.837c12.819-15.696,54.646-68.99,54.646-95.769
		c0-32.267-26.251-58.518-58.518-58.518c-32.266,0-58.517,26.251-58.517,58.518c0,26.794,41.825,80.077,54.644,95.769
		C100.744,170.571,102.166,171.245,103.667,171.245z M83.668,70.291c0-11.028,8.972-20,20-20s20,8.972,20,20
		c0,11.028-8.972,20-20,20S83.668,81.319,83.668,70.291z"/>
</g>
<g>
</g>
<g>
</g>
<g>
</g>
<g>
</g>
<g>
</g>
<g>
</g>
<g>
</g>
<g>
</g>
<g>
</g>
<g>
</g>
<g>
</g>
<g>
</g>
<g>
</g>
<g>
</g>
<g>
</g>
</svg>
