<svg width="32" height="19" viewBox="0 0 32 19" fill="none" xmlns="http://www.w3.org/2000/svg">
<path d="M18.0499 9.08705C18.0499 14.1055 14.0093 18.1738 9.02511 18.1738C4.04097 18.1738 0 14.1055 0 9.08705C0 4.06857 4.04067 0 9.02511 0C14.0096 0 18.0499 4.06857 18.0499 9.08705Z" fill="#555555"/>
<path d="M27.9504 9.08698C27.9504 13.8108 25.9301 17.6417 23.4379 17.6417C20.9456 17.6417 18.9253 13.8108 18.9253 9.08698C18.9253 4.36316 20.9453 0.532227 23.4375 0.532227C25.9298 0.532227 27.9501 4.36194 27.9501 9.08698" fill="#555555"/>
<path d="M32 9.08705C32 13.3184 31.2896 16.7508 30.4129 16.7508C29.5363 16.7508 28.8262 13.3194 28.8262 9.08705C28.8262 4.85475 29.5366 1.42334 30.4129 1.42334C31.2893 1.42334 32 4.85444 32 9.08705Z" fill="#555555"/>
</svg>
