<svg width="30" height="50" viewBox="0 0 512 233" fill="none" xmlns="http://www.w3.org/2000/svg">
<path d="M488.727 0H23.273C10.42 0 0 10.42 0 23.273C0 36.126 10.42 46.546 23.273 46.546H488.728C501.581 46.546 512.001 36.126 512.001 23.273C512 10.42 501.58 0 488.727 0Z" fill="var(--primary-dark-color)"/>
<path d="M488.727 93.0911H23.273C10.42 93.0911 0 103.511 0 116.364C0 129.217 10.42 139.637 23.273 139.637H488.728C501.58 139.637 512 129.217 512 116.364C512 103.511 501.58 93.0911 488.727 93.0911Z" fill="var(--primary-dark-color)"/>
<path d="M488.727 186.182H23.273C10.42 186.182 0 196.602 0 209.455C0 222.308 10.42 232.728 23.273 232.728H488.728C501.581 232.728 512.001 222.308 512.001 209.455C512 196.602 501.58 186.182 488.727 186.182Z" fill="var(--primary-dark-color)"/>
</svg>
