<svg width="48" height="47" viewBox="0 0 48 47" fill="none" xmlns="http://www.w3.org/2000/svg">
<path d="M46.8126 28.3691C46.6964 28.3423 46.5305 28.2965 46.4165 28.2755C45.9836 28.2156 45.5476 28.1805 45.1106 28.1703C44.2851 28.1163 43.4667 27.982 42.6672 27.7694C42.4205 27.6304 42.2172 27.4257 42.0798 27.1781L41.5298 27.018C42.1177 22.7218 41.1082 18.3593 38.6927 14.7582C38.8334 14.6304 39.1 14.3945 39.1752 14.3251C39.1564 14.0444 39.2482 13.7676 39.4308 13.5536C40.0584 13.0145 40.7369 12.5378 41.4569 12.1302C41.8466 11.9321 42.2245 11.7116 42.5888 11.4699C42.6766 11.4047 42.7967 11.3014 42.8887 11.2278C43.0505 11.1246 43.1888 10.9886 43.2947 10.8285C43.4005 10.6685 43.4716 10.4879 43.5032 10.2986C43.5348 10.1094 43.5262 9.91554 43.4781 9.72977C43.4299 9.544 43.3433 9.37042 43.2237 9.2203C43.1042 9.07018 42.9544 8.94687 42.7841 8.85837C42.6138 8.76987 42.4268 8.71815 42.2353 8.70657C42.0437 8.69499 41.8519 8.72381 41.6722 8.79115C41.4925 8.8585 41.3289 8.96287 41.1922 9.0975C41.0992 9.17077 40.9727 9.26696 40.8901 9.33861C40.5718 9.63832 40.2713 9.95624 39.9899 10.2908C39.433 10.9029 38.8179 11.4594 38.1533 11.9524C37.8916 12.0588 37.6054 12.0899 37.327 12.0421L36.8086 12.4123C33.8256 9.28184 29.8078 7.34046 25.5014 6.94882C25.4888 6.76775 25.4733 6.43981 25.4685 6.34073C25.2372 6.18034 25.0777 5.93596 25.024 5.65968C24.9952 4.83292 25.0469 4.00532 25.1783 3.18856C25.265 2.76085 25.327 2.32848 25.3639 1.89363C25.3681 1.78388 25.3616 1.62444 25.3616 1.50601C25.3807 1.31557 25.3597 1.12324 25.2999 0.94142C25.2401 0.759603 25.1429 0.592343 25.0145 0.450433C24.886 0.308524 24.7293 0.195117 24.5543 0.117533C24.3793 0.0399485 24.19 -9.04314e-05 23.9986 1.53362e-07C23.8073 9.07382e-05 23.618 0.0403088 23.4431 0.118059C23.2682 0.195809 23.1116 0.309363 22.9833 0.451395C22.855 0.593426 22.7579 0.760778 22.6983 0.942651C22.6386 1.12452 22.6178 1.31688 22.6371 1.5073C22.6371 1.52021 22.64 1.53247 22.6403 1.54538C22.6391 1.65835 22.6336 1.79521 22.6371 1.89398C22.6743 2.32914 22.7364 2.76182 22.823 3.18989C22.9536 4.00651 23.0045 4.83391 22.9747 5.66037C22.8974 5.93246 22.744 6.1768 22.5325 6.36466L22.5003 6.94112C21.6715 7.00954 20.8486 7.13606 20.0375 7.31973C16.6303 8.0897 13.531 9.86043 11.1375 12.4046C10.9718 12.2903 10.8076 12.1739 10.6449 12.0553C10.3754 12.136 10.0851 12.1078 9.8361 11.9769C9.17139 11.4849 8.55628 10.9291 7.99954 10.3176C7.71925 9.98324 7.41996 9.66532 7.10317 9.36538C7.02022 9.29437 6.89337 9.19755 6.80041 9.1233C6.5303 8.90547 6.1975 8.77991 5.85082 8.76503C5.64482 8.75424 5.43918 8.79217 5.25058 8.87573C5.06198 8.95929 4.89573 9.08613 4.76533 9.24596C4.54451 9.55706 4.4558 9.94291 4.51857 10.3192C4.58135 10.6955 4.79051 11.0317 5.10036 11.2542L5.12135 11.2691C5.21044 11.342 5.32017 11.4353 5.4028 11.4957C5.76626 11.7375 6.14334 11.9582 6.53217 12.1567C7.25215 12.5643 7.93061 13.0413 8.55787 13.5808C8.72081 13.8119 8.81574 14.0841 8.83191 14.3664L9.26798 14.7563C6.85927 18.3703 5.86954 22.7463 6.48861 27.0451L5.91828 27.211C5.76945 27.4487 5.56942 27.6502 5.33278 27.8007C4.53388 28.0139 3.71609 28.1487 2.89102 28.2032C2.45373 28.2131 2.01737 28.2482 1.58412 28.3084C1.47955 28.3278 1.33431 28.3646 1.22036 28.393L1.20842 28.3955L1.18906 28.4014C1.00037 28.4262 0.818944 28.4901 0.65638 28.589C0.493817 28.688 0.353701 28.8198 0.244997 28.976C0.136293 29.1322 0.0613958 29.3094 0.0250988 29.4962C-0.0111983 29.683 -0.00809611 29.8753 0.0342069 30.0609C0.07651 30.2464 0.157082 30.4211 0.270767 30.5737C0.384452 30.7263 0.528747 30.8535 0.694416 30.9472C0.860086 31.0408 1.04348 31.0989 1.23287 31.1176C1.42226 31.1363 1.61346 31.1152 1.79425 31.0558L1.81457 31.0526C1.8236 31.0506 1.83135 31.0461 1.84036 31.0445C1.95268 31.0187 2.09405 30.9919 2.19281 30.9651C2.60871 30.8323 3.01671 30.676 3.41481 30.4968C4.18194 30.1874 4.97733 29.9534 5.78976 29.798C6.0715 29.8152 6.34277 29.9111 6.57281 30.0746L7.16675 29.973C8.49997 34.0919 11.2944 37.5806 15.023 39.7809L14.7748 40.3749C14.8902 40.6142 14.9325 40.8821 14.8965 41.1453C14.5569 41.9214 14.144 42.6632 13.6635 43.3608C13.3992 43.7092 13.1554 44.0726 12.933 44.4492C12.8788 44.5518 12.8101 44.709 12.7581 44.8165C12.6598 44.9801 12.5968 45.1626 12.5732 45.352C12.5497 45.5415 12.566 45.7338 12.6212 45.9165C12.6765 46.0993 12.7693 46.2685 12.8938 46.4132C13.0184 46.5579 13.1718 46.6749 13.3443 46.7567C13.5168 46.8386 13.7045 46.8834 13.8953 46.8883C14.0862 46.8933 14.276 46.8582 14.4524 46.7854C14.6289 46.7126 14.7882 46.6036 14.92 46.4655C15.0519 46.3274 15.1534 46.1633 15.2179 45.9836L15.2202 45.981V45.9778C15.2718 45.8713 15.3451 45.7315 15.3887 45.6318C15.5438 45.2236 15.675 44.8068 15.7818 44.3833C16.017 43.5222 16.3721 42.6984 16.8366 41.9361C16.999 41.7837 17.2036 41.6838 17.4237 41.6495L17.7326 41.0911C21.7765 42.6461 26.2514 42.6575 30.3032 41.123C30.3897 41.2773 30.5511 41.5723 30.5937 41.6469C30.8719 41.6914 31.1217 41.8432 31.2892 42.0697C31.6749 42.8009 31.9882 43.568 32.2246 44.3601C32.3324 44.7835 32.4644 45.2003 32.62 45.6086C32.6642 45.7093 32.7362 45.8506 32.7885 45.9578C32.8529 46.1376 32.9542 46.3019 33.0859 46.4401C33.2177 46.5784 33.3769 46.6876 33.5533 46.7606C33.7297 46.8337 33.9195 46.869 34.1104 46.8643C34.3013 46.8597 34.4891 46.8151 34.6618 46.7335C34.8344 46.6519 34.988 46.535 35.1128 46.3905C35.2376 46.2459 35.3308 46.0768 35.3863 45.8941C35.4418 45.7114 35.4585 45.5191 35.4352 45.3296C35.412 45.14 35.3493 44.9574 35.2512 44.7936C35.1993 44.6861 35.1276 44.5289 35.0737 44.4269C34.8514 44.0512 34.6075 43.6886 34.3433 43.3411C33.8713 42.6613 33.4667 41.937 33.1355 41.1785C33.0636 40.9073 33.1012 40.6186 33.2401 40.3748C33.1529 40.1966 33.0771 40.013 33.0132 39.8251C36.7537 37.607 39.5484 34.0913 40.8655 29.9468C41.0418 29.9749 41.3487 30.0285 41.4485 30.0488C41.6557 29.8586 41.9291 29.757 42.2102 29.7657C43.0229 29.921 43.8185 30.155 44.5858 30.4645C44.9839 30.6452 45.3921 30.8028 45.8084 30.9364C45.9069 30.9622 46.0473 30.9868 46.1602 31.0116C46.1696 31.0142 46.178 31.0181 46.187 31.0206L46.2064 31.0236C46.3871 31.0829 46.5782 31.1038 46.7675 31.0851C46.9568 31.0663 47.1401 31.0083 47.3057 30.9147C47.4713 30.821 47.6155 30.6939 47.7291 30.5414C47.8428 30.3889 47.9233 30.2143 47.9657 30.0289C48.008 29.8434 48.0112 29.6512 47.975 29.4644C47.9389 29.2777 47.8641 29.1006 47.7556 28.9444C47.6471 28.7881 47.5071 28.6563 47.3448 28.5572C47.1824 28.4582 47.0011 28.3941 46.8126 28.3691H46.8126ZM33.8695 14.4942L28.0477 18.6214L28.0274 18.6118C27.8519 18.7397 27.6451 18.8177 27.4289 18.8376C27.2126 18.8574 26.995 18.8182 26.7993 18.7242C26.6035 18.6303 26.4369 18.485 26.3171 18.3039C26.1972 18.1228 26.1287 17.9127 26.1188 17.6957L26.1124 17.6926L25.7079 10.5583C28.7861 10.9405 31.6536 12.3234 33.8692 14.4942L33.8695 14.4942ZM22.9024 22.3143H25.0934L26.4555 24.0172L25.9671 26.141L23.9995 27.088L22.0261 26.139L21.5368 24.0142L22.9024 22.3143ZM20.8413 10.8082C21.3212 10.7001 21.8063 10.6168 22.2947 10.5583L21.8896 17.7035L21.8599 17.7177C21.8508 17.9347 21.7829 18.1451 21.6636 18.3266C21.5444 18.508 21.3781 18.6537 21.1825 18.7482C20.987 18.8427 20.7695 18.8823 20.5532 18.863C20.3369 18.8436 20.1299 18.7659 19.9543 18.6382L19.943 18.6447L14.0834 14.49C15.9488 12.6568 18.2895 11.3816 20.8413 10.8082ZM11.9586 17.1603L17.3082 21.945L17.3024 21.9741C17.4663 22.1167 17.5885 22.3012 17.6559 22.5079C17.7232 22.7145 17.7332 22.9356 17.6847 23.1475C17.6363 23.3593 17.5312 23.5541 17.3808 23.711C17.2304 23.8678 17.0402 23.9809 16.8305 24.0382L16.825 24.0614L9.96777 26.04C9.6261 22.9412 10.3266 19.8169 11.9586 17.1606L11.9586 17.1603ZM19.1212 29.8709L16.3967 36.4545C13.7816 34.7805 11.7921 32.2904 10.7366 29.3703L17.7675 28.1761L17.7794 28.1919C17.8571 28.177 17.936 28.17 18.015 28.1709C18.2122 28.1738 18.4056 28.2253 18.5782 28.3207C18.7508 28.4161 18.8972 28.5525 19.0045 28.718C19.1119 28.8834 19.1768 29.0727 19.1936 29.2692C19.2104 29.4656 19.1786 29.6632 19.1009 29.8445L19.1212 29.8709ZM27.1633 38.3372C24.6141 38.9218 21.9525 38.7851 19.4766 37.9424L22.9344 31.6897H22.9402C23.043 31.4987 23.1956 31.339 23.3818 31.2277C23.568 31.1163 23.7809 31.0574 23.9978 31.0572C24.2148 31.057 24.4278 31.1155 24.6142 31.2265C24.8006 31.3376 24.9535 31.4969 25.0566 31.6878H25.0824L28.549 37.9508C28.099 38.101 27.6371 38.23 27.1633 38.3378L27.1633 38.3372ZM31.6308 36.4809L28.8782 29.8303L28.8866 29.8183C28.7645 29.5338 28.7569 29.2132 28.8653 28.9232C28.9737 28.6332 29.1898 28.3962 29.4685 28.2616C29.6123 28.1913 29.7687 28.1506 29.9285 28.1422C30.021 28.1379 30.1136 28.1447 30.2044 28.1625L30.2164 28.1476L37.3099 29.3464C36.2628 32.2899 34.2645 34.8005 31.6308 36.4812L31.6308 36.4809ZM38.0549 26.0167L31.1631 24.0317L31.1566 24.0027C30.9474 23.9449 30.7576 23.8315 30.6076 23.6746C30.4576 23.5176 30.3529 23.323 30.3046 23.1113C30.2562 22.8997 30.2661 22.6789 30.3332 22.4724C30.4002 22.2659 30.5219 22.0814 30.6854 21.9385L30.6828 21.9247L36.0027 17.1635C37.6317 19.8128 38.3521 22.9212 38.0545 26.0171L38.0549 26.0167Z" fill="black"/>
</svg>
