<svg width="23" height="21" viewBox="0 0 23 21" fill="none" xmlns="http://www.w3.org/2000/svg">
<g clip-path="url(#clip0_7906_133)">
<path d="M16.2918 18.375V16.625C16.2918 15.6967 15.888 14.8065 15.1691 14.1501C14.4502 13.4937 13.4752 13.125 12.4585 13.125H4.79183C3.77517 13.125 2.80014 13.4937 2.08125 14.1501C1.36236 14.8065 0.958496 15.6967 0.958496 16.625V18.375" stroke="black" stroke-width="2" stroke-linecap="round" stroke-linejoin="round"/>
<path d="M8.62484 9.625C10.7419 9.625 12.4582 8.058 12.4582 6.125C12.4582 4.192 10.7419 2.625 8.62484 2.625C6.50775 2.625 4.7915 4.192 4.7915 6.125C4.7915 8.058 6.50775 9.625 8.62484 9.625Z" stroke="black" stroke-width="2" stroke-linecap="round" stroke-linejoin="round"/>
<path d="M22.0415 18.3745V16.6245C22.0409 15.849 21.7582 15.0957 21.2378 14.4828C20.7174 13.8699 19.9889 13.4322 19.1665 13.2383" stroke="black" stroke-width="2" stroke-linecap="round" stroke-linejoin="round"/>
<path d="M15.3335 2.73828C16.1581 2.93104 16.8889 3.36889 17.4108 3.9828C17.9327 4.59671 18.216 5.35176 18.216 6.12891C18.216 6.90606 17.9327 7.6611 17.4108 8.27501C16.8889 8.88892 16.1581 9.32677 15.3335 9.51953" stroke="black" stroke-width="2" stroke-linecap="round" stroke-linejoin="round"/>
</g>
<defs>
<clipPath id="clip0_7906_133">
<rect width="23" height="21" fill="white"/>
</clipPath>
</defs>
</svg>
