<svg width="30" height="30" viewBox="0 0 30 30" fill="none" xmlns="http://www.w3.org/2000/svg">
<path d="M20 10H10V20H20V10ZM16.6667 16.6667H13.3333V13.3333H16.6667V16.6667ZM30 13.3333V10H26.6667V6.66667C26.6667 4.83333 25.1667 3.33333 23.3333 3.33333H20V0H16.6667V3.33333H13.3333V0H10V3.33333H6.66667C4.83333 3.33333 3.33333 4.83333 3.33333 6.66667V10H0V13.3333H3.33333V16.6667H0V20H3.33333V23.3333C3.33333 25.1667 4.83333 26.6667 6.66667 26.6667H10V30H13.3333V26.6667H16.6667V30H20V26.6667H23.3333C25.1667 26.6667 26.6667 25.1667 26.6667 23.3333V20H30V16.6667H26.6667V13.3333H30ZM23.3333 23.3333H6.66667V6.66667H23.3333V23.3333Z" fill="#CCCCCC"/>
</svg>
