<svg id="svg" version="1.1" xmlns="http://www.w3.org/2000/svg" xmlns:xlink="http://www.w3.org/1999/xlink" width="400" height="60.53935057787562" viewBox="0, 0, 400,60.53935057787562"><g id="svgg"><path id="path0" d="M41.208 1.780 C 40.727 1.819,40.333 1.907,40.333 1.977 C 40.333 2.046,39.658 2.198,38.833 2.315 C 38.008 2.432,37.333 2.579,37.333 2.643 C 37.333 2.706,36.696 2.898,35.917 3.069 C 35.137 3.240,34.500 3.444,34.500 3.523 C 34.500 3.602,34.366 3.667,34.202 3.667 C 34.038 3.667,33.613 3.815,33.257 3.996 C 32.902 4.178,32.342 4.414,32.014 4.520 C 31.685 4.627,31.379 4.771,31.333 4.839 C 31.287 4.907,30.988 5.086,30.667 5.237 C 29.728 5.680,29.102 6.041,28.865 6.278 C 28.743 6.400,28.467 6.544,28.250 6.598 C 28.034 6.652,27.817 6.802,27.767 6.932 C 27.718 7.061,27.587 7.167,27.478 7.167 C 27.368 7.167,27.159 7.278,27.014 7.414 C 26.293 8.088,25.770 8.500,25.636 8.500 C 25.554 8.500,25.160 8.837,24.759 9.250 C 24.358 9.662,23.978 10.000,23.915 10.000 C 23.751 10.000,22.172 11.555,22.169 11.720 C 22.168 11.794,21.916 12.094,21.609 12.386 C 21.302 12.678,20.952 13.104,20.832 13.333 C 20.712 13.563,20.476 13.848,20.307 13.968 C 20.138 14.088,20.000 14.294,20.000 14.426 C 20.000 14.558,19.923 14.667,19.829 14.667 C 19.735 14.667,19.587 14.854,19.500 15.083 C 19.413 15.313,19.279 15.500,19.202 15.500 C 19.125 15.500,18.959 15.762,18.833 16.083 C 18.707 16.404,18.540 16.667,18.460 16.667 C 18.381 16.667,18.238 16.892,18.142 17.167 C 18.046 17.442,17.914 17.667,17.848 17.667 C 17.783 17.667,17.626 17.929,17.500 18.250 C 17.374 18.571,17.218 18.833,17.154 18.833 C 17.090 18.833,16.937 19.171,16.815 19.583 C 16.694 19.996,16.547 20.333,16.490 20.333 C 16.433 20.333,16.285 20.652,16.160 21.042 C 16.036 21.431,15.844 21.900,15.733 22.083 C 15.623 22.267,15.479 22.679,15.414 23.000 C 15.348 23.321,15.237 23.658,15.167 23.750 C 14.997 23.971,14.500 26.201,14.500 26.741 C 14.500 26.975,14.435 27.167,14.357 27.167 C 14.278 27.167,14.171 27.577,14.119 28.079 C 13.999 29.241,13.935 29.333,13.240 29.333 C 12.925 29.333,12.667 29.398,12.667 29.477 C 12.667 29.556,12.217 29.717,11.667 29.833 C 11.117 29.950,10.667 30.098,10.667 30.163 C 10.667 30.227,10.363 30.380,9.992 30.503 C 9.621 30.625,9.264 30.810,9.200 30.914 C 9.136 31.018,8.845 31.199,8.554 31.317 C 8.262 31.434,7.983 31.636,7.934 31.765 C 7.884 31.894,7.762 32.000,7.661 32.000 C 7.292 32.000,4.340 35.218,4.336 35.625 C 4.334 35.740,4.277 35.834,4.208 35.834 C 4.051 35.834,3.267 37.368,2.974 38.250 C 2.852 38.617,2.708 38.954,2.654 39.000 C 2.043 39.520,2.060 47.833,2.672 47.833 C 2.745 47.833,2.855 48.133,2.917 48.499 C 2.978 48.865,3.099 49.208,3.184 49.261 C 3.269 49.313,3.296 49.426,3.243 49.512 C 3.190 49.597,3.226 49.667,3.322 49.667 C 3.439 49.667,3.462 49.104,3.392 47.952 C 3.081 42.873,5.631 39.127,10.454 37.578 C 11.439 37.261,14.982 37.282,15.583 37.607 C 15.767 37.707,16.343 37.989,16.864 38.235 C 18.830 39.161,20.435 40.739,21.550 42.844 L 22.113 43.904 23.431 44.101 C 27.423 44.697,31.333 48.451,31.333 51.687 C 31.333 51.951,31.368 52.167,31.411 52.167 C 31.628 52.167,32.667 51.586,32.667 51.465 C 32.667 51.388,32.854 51.254,33.083 51.167 C 33.313 51.080,33.500 50.931,33.500 50.837 C 33.500 50.744,33.594 50.667,33.708 50.666 C 33.899 50.666,34.471 50.258,35.208 49.595 C 35.369 49.451,35.571 49.333,35.657 49.333 C 35.744 49.333,35.912 49.195,36.032 49.026 C 36.152 48.858,36.424 48.627,36.638 48.514 C 37.007 48.318,37.333 48.051,38.089 47.325 C 38.276 47.146,38.485 47.000,38.553 47.000 C 38.622 47.000,38.929 46.749,39.236 46.442 C 39.542 46.135,39.915 45.838,40.063 45.781 C 40.212 45.724,40.333 45.562,40.333 45.422 C 40.333 45.137,39.259 45.049,39.092 45.320 C 39.040 45.404,38.323 45.568,37.499 45.685 C 36.674 45.802,36.000 45.958,36.000 46.032 C 36.000 46.106,35.550 46.167,35.000 46.167 C 34.450 46.167,34.000 46.100,34.000 46.019 C 34.000 45.937,33.747 45.823,33.438 45.765 C 33.129 45.707,32.716 45.530,32.521 45.371 C 32.326 45.213,31.941 44.899,31.666 44.674 C 30.930 44.072,31.009 43.728,31.917 43.592 C 32.329 43.530,32.667 43.419,32.667 43.345 C 32.667 43.272,33.229 43.111,33.917 42.989 C 34.604 42.867,35.167 42.719,35.167 42.660 C 35.167 42.602,35.692 42.454,36.333 42.333 C 36.975 42.212,37.500 42.057,37.500 41.988 C 37.500 41.919,37.800 41.812,38.167 41.750 C 39.893 41.458,38.695 41.309,35.708 41.443 C 33.990 41.520,31.855 41.583,30.964 41.583 L 29.345 41.583 28.602 40.797 C 28.193 40.364,27.811 39.858,27.752 39.672 C 27.693 39.486,27.574 39.333,27.489 39.333 C 27.403 39.333,27.333 39.258,27.333 39.167 C 27.333 39.059,29.028 39.000,32.083 39.000 C 35.139 39.000,36.833 38.941,36.833 38.833 C 36.833 38.742,36.683 38.667,36.500 38.667 C 36.317 38.667,36.167 38.605,36.167 38.529 C 36.167 38.453,35.323 38.295,34.292 38.178 C 33.260 38.062,32.342 37.905,32.250 37.831 C 32.158 37.756,31.296 37.603,30.333 37.490 C 29.371 37.377,28.508 37.232,28.417 37.168 C 28.325 37.104,27.901 36.958,27.476 36.842 C 26.869 36.678,26.635 36.510,26.396 36.066 C 26.228 35.755,26.038 35.500,25.972 35.500 C 25.837 35.500,25.586 34.025,25.702 33.909 C 25.802 33.809,27.663 34.139,28.083 34.332 C 28.267 34.417,29.017 34.571,29.750 34.676 C 30.483 34.780,31.158 34.923,31.250 34.992 C 31.669 35.307,34.500 35.604,34.500 35.333 C 34.500 35.242,34.387 35.167,34.250 35.167 C 34.112 35.167,34.000 35.101,34.000 35.020 C 34.000 34.939,33.656 34.786,33.235 34.680 C 32.814 34.574,32.307 34.383,32.110 34.256 C 31.912 34.129,31.469 33.973,31.125 33.910 C 30.781 33.848,30.500 33.737,30.500 33.665 C 30.500 33.592,30.108 33.439,29.629 33.324 C 29.150 33.209,28.664 33.021,28.549 32.906 C 28.434 32.791,28.038 32.646,27.670 32.584 C 27.301 32.522,27.000 32.416,27.000 32.350 C 27.000 32.283,26.754 32.132,26.453 32.014 C 25.344 31.579,24.247 27.668,25.313 27.946 C 25.507 27.997,25.667 28.104,25.667 28.184 C 25.667 28.264,25.910 28.444,26.208 28.584 C 26.929 28.924,27.689 29.372,27.951 29.612 C 28.068 29.719,28.427 29.893,28.748 29.999 C 29.070 30.106,29.333 30.253,29.333 30.326 C 29.333 30.399,29.577 30.558,29.875 30.678 C 30.173 30.799,30.473 30.989,30.543 31.102 C 30.612 31.215,30.887 31.355,31.154 31.414 C 31.421 31.472,31.680 31.628,31.731 31.760 C 31.781 31.892,31.932 32.000,32.066 32.000 C 32.200 32.000,32.412 32.094,32.536 32.208 C 33.248 32.863,34.000 33.012,34.000 32.500 C 34.000 32.317,33.892 32.167,33.759 32.167 C 33.627 32.167,33.421 32.033,33.301 31.871 C 33.181 31.708,32.708 31.276,32.250 30.912 C 31.792 30.548,31.319 30.119,31.199 29.958 C 31.079 29.798,30.910 29.667,30.824 29.667 C 30.737 29.667,30.368 29.385,30.002 29.042 C 29.637 28.698,28.812 27.929,28.169 27.333 C 27.527 26.738,27.001 26.164,27.000 26.059 C 27.000 25.955,26.896 25.829,26.770 25.781 C 26.643 25.732,26.448 25.311,26.336 24.846 C 26.225 24.380,26.066 23.957,25.983 23.906 C 25.787 23.785,25.789 21.081,25.985 20.706 C 26.068 20.547,26.272 19.648,26.439 18.708 C 26.771 16.833,26.888 16.670,27.186 17.667 C 27.296 18.033,27.441 18.333,27.508 18.333 C 27.575 18.333,27.730 18.671,27.851 19.083 C 27.973 19.496,28.120 19.833,28.177 19.833 C 28.234 19.833,28.370 20.133,28.480 20.500 C 28.590 20.867,28.746 21.167,28.827 21.167 C 28.907 21.167,29.024 21.397,29.086 21.678 C 29.148 21.959,29.293 22.226,29.409 22.270 C 29.524 22.314,29.717 22.647,29.836 23.009 C 29.956 23.371,30.107 23.667,30.173 23.667 C 30.239 23.667,30.386 23.892,30.500 24.167 C 30.614 24.442,30.759 24.667,30.822 24.667 C 30.886 24.667,31.040 24.926,31.164 25.243 C 31.288 25.560,31.483 25.855,31.596 25.898 C 31.709 25.942,31.852 26.208,31.914 26.489 C 31.976 26.770,32.098 27.000,32.185 27.000 C 32.272 27.000,32.393 27.131,32.454 27.292 C 32.514 27.452,32.756 27.856,32.990 28.189 C 33.225 28.522,33.529 28.965,33.667 29.174 C 33.804 29.384,34.048 29.693,34.208 29.861 C 34.369 30.029,34.500 30.241,34.500 30.332 C 34.500 30.423,34.650 30.591,34.833 30.705 C 35.017 30.820,35.167 31.000,35.167 31.106 C 35.167 31.212,35.353 31.475,35.580 31.691 C 35.808 31.907,35.996 32.146,35.997 32.223 C 36.002 32.463,37.500 33.833,37.756 33.833 C 38.110 33.833,38.055 33.268,37.667 32.917 C 37.483 32.751,37.333 32.518,37.333 32.399 C 37.333 32.280,37.240 32.123,37.125 32.050 C 36.903 31.908,36.502 31.263,36.084 30.375 C 35.944 30.077,35.767 29.833,35.691 29.833 C 35.615 29.833,35.456 29.537,35.336 29.175 C 35.217 28.813,35.024 28.481,34.909 28.437 C 34.793 28.392,34.648 28.126,34.586 27.845 C 34.524 27.563,34.406 27.333,34.322 27.333 C 34.239 27.333,34.086 26.996,33.983 26.583 C 33.879 26.171,33.736 25.833,33.665 25.833 C 33.595 25.833,33.437 25.496,33.315 25.083 C 33.194 24.671,33.043 24.333,32.982 24.333 C 32.920 24.333,32.738 23.790,32.579 23.125 C 32.419 22.460,32.210 21.818,32.114 21.697 C 31.884 21.406,31.757 18.072,31.948 17.345 C 32.103 16.757,32.500 16.435,32.500 16.898 C 32.500 17.040,32.678 17.553,32.895 18.037 C 33.112 18.521,33.338 19.123,33.398 19.375 C 33.458 19.627,33.574 19.833,33.657 19.833 C 33.739 19.833,33.859 20.071,33.923 20.361 C 33.986 20.651,34.217 21.224,34.436 21.636 C 34.655 22.047,34.833 22.478,34.833 22.594 C 34.833 22.710,34.895 22.831,34.970 22.861 C 35.045 22.892,35.358 23.442,35.666 24.083 C 35.974 24.725,36.277 25.287,36.339 25.333 C 36.401 25.379,36.543 25.698,36.655 26.042 C 36.767 26.385,36.924 26.667,37.002 26.667 C 37.081 26.667,37.240 26.929,37.356 27.250 C 37.472 27.571,37.626 27.833,37.698 27.833 C 37.770 27.833,37.942 28.077,38.080 28.375 C 38.417 29.100,38.962 29.986,39.246 30.270 C 39.374 30.398,39.523 30.645,39.579 30.819 C 39.634 30.993,39.789 31.178,39.923 31.229 C 40.057 31.281,40.167 31.435,40.167 31.572 C 40.167 31.709,40.317 31.902,40.500 32.000 C 40.683 32.098,40.833 32.262,40.833 32.364 C 40.833 32.466,41.089 32.819,41.402 33.149 C 41.716 33.480,42.371 34.181,42.860 34.708 C 43.348 35.235,43.807 35.667,43.879 35.667 C 43.951 35.667,44.251 35.929,44.546 36.250 C 44.840 36.571,45.172 36.833,45.282 36.833 C 45.393 36.833,45.543 36.927,45.617 37.042 C 45.690 37.157,45.975 37.363,46.250 37.500 C 46.525 37.638,46.849 37.844,46.970 37.958 C 47.091 38.073,47.390 38.216,47.635 38.278 C 47.880 38.339,48.171 38.480,48.282 38.591 C 48.393 38.702,48.768 38.847,49.116 38.912 C 49.464 38.977,49.801 39.114,49.863 39.215 C 50.018 39.465,54.312 39.479,54.849 39.231 C 55.069 39.130,55.539 38.953,55.892 38.840 C 56.245 38.726,56.673 38.509,56.843 38.358 C 57.012 38.207,57.530 37.749,57.992 37.340 C 58.455 36.931,58.833 36.540,58.833 36.470 C 58.833 36.401,59.060 36.098,59.338 35.797 C 59.970 35.111,60.826 33.818,60.830 33.542 C 60.832 33.427,60.896 33.333,60.973 33.333 C 61.050 33.333,61.212 33.033,61.333 32.667 C 61.454 32.300,61.601 32.000,61.660 32.000 C 61.795 32.000,62.167 30.984,62.167 30.613 C 62.167 30.459,62.108 30.333,62.037 30.333 C 61.813 30.333,57.773 30.824,57.292 30.910 C 56.838 30.991,56.833 30.983,56.833 30.079 C 56.833 29.577,56.898 29.167,56.977 29.167 C 57.056 29.167,57.163 28.805,57.215 28.364 C 57.316 27.512,58.019 26.012,58.424 25.786 C 58.558 25.711,58.667 25.541,58.667 25.408 C 58.667 25.275,58.782 25.167,58.922 25.167 C 59.062 25.167,59.220 25.054,59.273 24.916 C 59.326 24.778,59.643 24.538,59.976 24.383 C 60.310 24.228,60.623 24.044,60.672 23.975 C 60.720 23.906,61.264 23.753,61.880 23.636 C 62.496 23.520,63.000 23.366,63.000 23.295 C 63.000 23.225,63.266 23.167,63.591 23.167 L 64.182 23.167 64.070 24.875 C 64.009 25.815,63.893 26.655,63.813 26.742 C 63.732 26.829,63.667 27.266,63.667 27.713 L 63.667 28.527 64.715 28.414 C 65.345 28.347,66.045 28.377,66.466 28.491 C 67.193 28.687,69.167 28.425,69.167 28.133 C 69.167 28.060,69.392 28.000,69.667 28.000 C 70.341 28.000,70.299 28.264,69.583 28.523 C 69.262 28.639,69.000 28.795,69.000 28.871 C 69.000 28.946,68.813 29.080,68.583 29.167 C 68.354 29.254,68.167 29.402,68.167 29.496 C 68.167 29.590,68.058 29.667,67.926 29.667 C 67.794 29.667,67.588 29.805,67.468 29.974 C 67.348 30.142,67.069 30.377,66.847 30.494 C 66.417 30.723,62.998 34.134,62.379 34.952 C 61.958 35.508,61.316 36.256,60.830 36.756 C 60.649 36.942,60.500 37.151,60.500 37.220 C 60.500 37.288,60.275 37.565,60.000 37.833 C 59.725 38.102,59.500 38.395,59.500 38.485 C 59.500 38.574,59.363 38.746,59.195 38.866 C 59.028 38.985,58.809 39.232,58.709 39.413 C 58.508 39.779,57.780 40.628,56.708 41.750 C 56.319 42.158,56.000 42.545,56.000 42.610 C 56.000 42.736,52.668 45.989,51.883 46.630 C 50.142 48.051,49.708 48.376,49.375 48.509 C 49.169 48.591,49.000 48.721,49.000 48.798 C 49.000 48.875,48.737 49.041,48.417 49.167 C 48.096 49.293,47.833 49.451,47.833 49.518 C 47.833 49.586,47.554 49.733,47.213 49.846 C 46.872 49.958,46.498 50.145,46.383 50.260 C 46.268 50.375,45.872 50.521,45.503 50.583 C 45.135 50.645,44.833 50.759,44.833 50.837 C 44.833 50.915,44.271 51.073,43.583 51.188 C 42.896 51.304,42.333 51.450,42.333 51.514 C 42.333 51.577,41.565 51.725,40.625 51.843 C 39.685 51.961,38.879 52.105,38.833 52.162 C 38.787 52.220,38.042 52.365,37.176 52.485 C 34.070 52.915,31.667 54.558,31.667 56.250 C 31.667 57.105,31.915 57.469,32.585 57.595 C 32.905 57.655,33.167 57.770,33.167 57.852 C 33.167 57.937,38.448 58.000,45.570 58.000 L 57.974 58.000 57.883 56.789 C 57.438 50.903,64.107 45.743,69.359 47.910 C 69.603 48.010,69.645 47.823,69.712 46.304 C 69.785 44.662,70.169 42.511,70.460 42.106 C 70.536 42.002,70.697 41.624,70.818 41.267 C 71.981 37.851,76.106 34.142,79.917 33.085 C 81.725 32.584,82.230 32.515,84.083 32.515 C 85.880 32.515,86.313 32.570,88.167 33.041 C 92.569 34.159,96.968 38.598,97.994 42.959 C 98.262 44.096,98.431 44.175,98.561 43.223 C 98.787 41.579,98.526 37.070,98.192 36.840 C 98.121 36.790,97.968 36.319,97.853 35.792 C 97.737 35.265,97.573 34.833,97.488 34.833 C 97.403 34.833,97.333 34.702,97.333 34.542 C 97.332 34.225,96.293 32.115,95.956 31.746 C 95.843 31.622,95.563 31.249,95.333 30.918 C 94.790 30.133,92.878 28.215,92.292 27.867 C 92.040 27.717,91.833 27.545,91.833 27.484 C 91.833 27.424,91.608 27.281,91.333 27.167 C 91.058 27.053,90.833 26.899,90.833 26.824 C 90.833 26.749,90.571 26.593,90.250 26.477 C 89.929 26.361,89.667 26.209,89.667 26.140 C 89.667 26.070,89.348 25.920,88.958 25.806 C 88.569 25.693,88.208 25.539,88.156 25.465 C 88.104 25.391,87.467 25.204,86.739 25.049 C 86.012 24.894,85.364 24.690,85.300 24.596 C 85.133 24.350,78.693 24.357,78.536 24.603 C 78.409 24.802,76.563 25.174,76.419 25.030 C 76.372 24.983,76.333 24.769,76.333 24.556 C 76.333 24.342,76.269 24.167,76.189 24.167 C 76.110 24.167,75.950 23.717,75.833 23.167 C 75.717 22.617,75.562 22.167,75.490 22.167 C 75.419 22.167,75.309 21.934,75.246 21.649 C 75.120 21.074,74.324 19.448,74.126 19.361 C 74.057 19.331,74.000 19.209,74.000 19.091 C 74.000 18.812,72.920 16.705,72.589 16.340 C 72.449 16.184,72.333 15.967,72.333 15.857 C 72.333 15.746,72.221 15.613,72.083 15.560 C 71.946 15.508,71.833 15.374,71.833 15.264 C 71.833 15.153,71.702 14.915,71.542 14.734 C 71.381 14.553,70.991 14.070,70.675 13.661 C 70.359 13.252,70.003 12.857,69.884 12.783 C 69.764 12.710,69.667 12.576,69.667 12.484 C 69.667 12.270,66.722 9.333,66.508 9.333 C 66.418 9.333,66.273 9.199,66.185 9.035 C 66.098 8.871,65.814 8.627,65.555 8.493 C 65.295 8.360,64.985 8.119,64.866 7.958 C 64.746 7.798,64.540 7.667,64.407 7.667 C 64.275 7.667,64.167 7.590,64.167 7.496 C 64.167 7.402,63.979 7.254,63.750 7.167 C 63.521 7.080,63.333 6.945,63.333 6.869 C 63.333 6.792,63.071 6.626,62.750 6.500 C 62.429 6.374,62.167 6.216,62.167 6.149 C 62.167 6.083,61.660 5.783,61.042 5.483 C 60.423 5.184,59.892 4.878,59.861 4.803 C 59.831 4.728,59.725 4.667,59.627 4.667 C 59.529 4.667,59.049 4.478,58.560 4.246 C 58.072 4.015,57.446 3.781,57.169 3.726 C 56.893 3.670,56.667 3.573,56.667 3.510 C 56.667 3.446,56.085 3.258,55.375 3.092 C 54.665 2.925,54.044 2.727,53.995 2.652 C 53.947 2.577,53.197 2.423,52.328 2.310 C 51.460 2.197,50.698 2.027,50.635 1.933 C 50.518 1.760,42.971 1.637,41.208 1.780 M126.000 19.167 C 126.000 19.258,125.644 19.334,125.208 19.334 C 124.293 19.334,121.501 19.796,121.252 19.988 C 121.159 20.060,120.727 20.220,120.292 20.345 C 119.856 20.470,119.500 20.620,119.500 20.677 C 119.500 20.734,119.200 20.870,118.833 20.980 C 118.467 21.090,118.167 21.240,118.167 21.314 C 118.167 21.387,117.867 21.537,117.500 21.647 C 117.133 21.757,116.833 21.914,116.833 21.995 C 116.833 22.077,116.692 22.189,116.520 22.244 C 116.347 22.298,116.047 22.472,115.852 22.630 C 115.657 22.788,115.303 23.067,115.067 23.250 C 114.408 23.761,112.000 26.093,112.000 26.221 C 112.000 26.283,111.869 26.478,111.708 26.655 C 111.170 27.247,111.000 27.485,110.806 27.910 C 110.700 28.143,110.553 28.333,110.480 28.333 C 110.407 28.333,110.257 28.633,110.147 29.000 C 110.037 29.367,109.887 29.667,109.814 29.667 C 109.740 29.667,109.586 29.985,109.471 30.375 C 109.356 30.765,109.174 31.174,109.066 31.285 C 108.958 31.396,108.781 31.995,108.673 32.616 C 108.565 33.237,108.411 33.785,108.332 33.834 C 107.760 34.188,107.736 43.415,108.306 43.830 C 108.372 43.878,108.512 44.339,108.617 44.856 C 108.722 45.373,108.964 46.137,109.154 46.555 C 109.344 46.973,109.500 47.376,109.500 47.451 C 109.500 47.611,110.336 49.213,110.482 49.333 C 110.538 49.379,110.696 49.642,110.833 49.917 C 110.971 50.192,111.177 50.477,111.291 50.550 C 111.406 50.623,111.500 50.774,111.500 50.884 C 111.500 50.995,111.763 51.327,112.083 51.621 C 112.404 51.915,112.667 52.215,112.668 52.287 C 112.671 52.448,113.742 53.500,113.904 53.500 C 113.969 53.500,114.261 53.749,114.553 54.054 C 114.845 54.359,115.215 54.656,115.375 54.715 C 115.535 54.775,115.667 54.895,115.667 54.984 C 115.667 55.073,115.929 55.240,116.250 55.356 C 116.571 55.472,116.833 55.631,116.833 55.709 C 116.833 55.787,117.058 55.929,117.333 56.025 C 117.608 56.121,117.833 56.267,117.833 56.350 C 117.833 56.432,117.920 56.500,118.026 56.500 C 118.131 56.500,118.604 56.683,119.076 56.906 C 119.548 57.129,120.305 57.404,120.759 57.516 C 121.212 57.629,121.625 57.784,121.677 57.861 C 121.728 57.937,122.534 58.092,123.468 58.203 C 124.402 58.315,125.167 58.465,125.167 58.537 C 125.167 58.608,126.404 58.667,127.917 58.667 C 129.639 58.667,130.667 58.604,130.667 58.500 C 130.667 58.408,130.890 58.333,131.164 58.333 C 131.945 58.333,134.000 57.946,134.000 57.799 C 134.000 57.726,134.104 57.667,134.231 57.667 C 134.599 57.667,136.167 57.128,136.167 57.001 C 136.167 56.938,136.467 56.788,136.833 56.667 C 137.200 56.546,137.500 56.384,137.500 56.307 C 137.500 56.230,137.598 56.167,137.719 56.167 C 137.839 56.167,138.087 56.027,138.271 55.856 C 138.454 55.685,138.787 55.448,139.010 55.329 C 139.234 55.211,139.515 54.976,139.634 54.807 C 139.754 54.638,139.920 54.500,140.003 54.500 C 140.192 54.500,141.665 53.079,141.672 52.890 C 141.675 52.813,141.927 52.501,142.233 52.197 C 142.539 51.893,142.893 51.443,143.019 51.197 C 143.146 50.951,143.343 50.690,143.458 50.617 C 143.573 50.543,143.667 50.409,143.667 50.318 C 143.667 50.227,143.825 49.938,144.020 49.676 C 144.214 49.413,144.325 49.121,144.267 49.028 C 144.121 48.791,142.274 47.883,141.666 47.750 C 141.392 47.690,141.167 47.577,141.167 47.500 C 141.167 47.423,140.792 47.236,140.333 47.083 C 139.875 46.931,139.500 46.744,139.500 46.667 C 139.500 46.589,139.274 46.477,138.998 46.416 C 138.722 46.356,138.386 46.195,138.250 46.060 C 137.834 45.644,136.861 45.566,136.724 45.937 C 136.660 46.109,136.509 46.310,136.388 46.383 C 136.266 46.457,136.167 46.592,136.167 46.685 C 136.167 46.912,133.993 49.074,133.625 49.213 C 133.465 49.273,133.333 49.388,133.333 49.468 C 133.333 49.548,133.033 49.712,132.667 49.833 C 132.300 49.954,132.000 50.111,132.000 50.181 C 132.000 50.252,131.569 50.404,131.042 50.519 C 130.515 50.635,130.032 50.806,129.969 50.899 C 129.817 51.124,125.918 51.109,125.633 50.882 C 125.514 50.788,125.136 50.660,124.793 50.598 C 124.250 50.500,122.570 49.753,122.333 49.504 C 122.287 49.456,122.028 49.304,121.757 49.166 C 121.175 48.871,119.111 46.878,118.953 46.458 C 118.893 46.298,118.780 46.167,118.703 46.167 C 118.626 46.167,118.459 45.904,118.333 45.583 C 118.207 45.262,118.055 45.000,117.996 45.000 C 117.936 45.000,117.784 44.681,117.659 44.292 C 117.533 43.902,117.371 43.541,117.298 43.490 C 117.226 43.439,117.074 42.820,116.962 42.115 C 116.850 41.410,116.700 40.833,116.629 40.833 C 116.558 40.833,116.500 39.933,116.500 38.833 C 116.500 37.733,116.558 36.833,116.629 36.833 C 116.700 36.833,116.848 36.267,116.958 35.576 C 117.068 34.884,117.267 34.210,117.399 34.077 C 117.531 33.945,117.689 33.611,117.750 33.335 C 117.810 33.059,117.924 32.833,118.002 32.833 C 118.080 32.833,118.198 32.665,118.263 32.458 C 118.328 32.252,118.558 31.851,118.774 31.568 C 118.990 31.284,119.167 31.006,119.167 30.949 C 119.167 30.771,120.743 29.237,121.045 29.121 C 121.203 29.060,121.333 28.942,121.333 28.859 C 121.333 28.775,121.577 28.609,121.875 28.488 C 122.173 28.368,122.473 28.177,122.543 28.064 C 122.612 27.952,122.912 27.807,123.209 27.742 C 123.507 27.678,123.793 27.557,123.846 27.474 C 123.899 27.392,124.405 27.238,124.971 27.133 C 125.537 27.027,126.000 26.879,126.000 26.804 C 126.000 26.728,126.787 26.667,127.750 26.667 C 128.712 26.667,129.500 26.725,129.500 26.795 C 129.500 26.866,129.995 27.018,130.599 27.132 C 131.204 27.247,131.809 27.452,131.944 27.587 C 132.080 27.723,132.283 27.833,132.396 27.833 C 132.509 27.833,132.834 28.002,133.119 28.208 C 133.403 28.415,133.802 28.696,134.005 28.833 C 134.535 29.192,135.667 30.249,135.667 30.385 C 135.667 30.448,135.798 30.645,135.958 30.821 C 136.501 31.419,136.667 31.652,136.667 31.816 C 136.667 32.139,137.046 32.205,137.684 31.994 C 138.041 31.876,138.333 31.729,138.333 31.667 C 138.333 31.604,138.633 31.454,139.000 31.333 C 139.367 31.212,139.667 31.062,139.667 31.000 C 139.667 30.938,139.967 30.788,140.333 30.667 C 140.700 30.546,141.000 30.384,141.000 30.307 C 141.000 30.230,141.079 30.167,141.177 30.167 C 141.460 30.167,144.136 28.851,144.260 28.651 C 144.322 28.550,144.214 28.253,144.020 27.991 C 143.825 27.728,143.667 27.439,143.667 27.348 C 143.667 27.258,143.573 27.123,143.458 27.050 C 143.343 26.977,143.139 26.702,143.003 26.440 C 142.868 26.178,142.474 25.680,142.129 25.335 C 141.783 24.989,141.500 24.663,141.500 24.612 C 141.500 24.435,140.712 23.667,140.531 23.667 C 140.431 23.667,140.290 23.569,140.217 23.450 C 140.143 23.330,139.746 22.974,139.333 22.658 C 138.921 22.342,138.546 22.039,138.500 21.984 C 138.262 21.701,135.446 20.348,134.843 20.227 C 134.563 20.171,134.333 20.069,134.333 20.001 C 134.333 19.834,132.709 19.526,131.125 19.393 C 130.415 19.333,129.833 19.220,129.833 19.142 C 129.833 19.064,128.971 19.000,127.917 19.000 C 126.750 19.000,126.000 19.065,126.000 19.167 M277.667 19.167 C 277.667 19.258,277.310 19.335,276.875 19.336 C 275.863 19.340,273.289 19.760,272.889 19.986 C 272.721 20.081,272.265 20.239,271.875 20.336 C 271.485 20.433,271.167 20.585,271.167 20.673 C 271.167 20.761,271.041 20.833,270.888 20.833 C 270.542 20.833,268.500 21.816,268.500 21.983 C 268.500 22.050,268.241 22.206,267.924 22.331 C 267.607 22.455,267.309 22.656,267.262 22.778 C 267.215 22.900,267.090 23.000,266.983 23.000 C 266.877 23.000,266.542 23.262,266.239 23.583 C 265.937 23.904,265.628 24.167,265.553 24.168 C 265.391 24.171,264.333 25.236,264.333 25.398 C 264.333 25.460,264.071 25.751,263.750 26.046 C 263.429 26.340,263.167 26.672,263.167 26.782 C 263.167 26.893,263.073 27.043,262.958 27.117 C 262.843 27.190,262.637 27.475,262.500 27.750 C 262.363 28.025,262.170 28.303,262.071 28.367 C 261.973 28.431,261.792 28.787,261.669 29.159 C 261.547 29.530,261.393 29.833,261.328 29.833 C 261.263 29.833,261.115 30.171,261.000 30.583 C 260.885 30.996,260.733 31.333,260.663 31.333 C 260.593 31.333,260.439 31.821,260.321 32.417 C 260.202 33.012,260.054 33.500,259.991 33.500 C 259.773 33.500,259.500 36.452,259.500 38.813 C 259.500 41.205,259.786 44.333,260.005 44.333 C 260.070 44.333,260.212 44.783,260.320 45.333 C 260.428 45.883,260.572 46.333,260.639 46.333 C 260.706 46.333,260.860 46.671,260.982 47.083 C 261.104 47.496,261.270 47.833,261.352 47.833 C 261.433 47.833,261.500 47.912,261.500 48.008 C 261.500 48.172,261.731 48.668,262.407 49.958 C 262.563 50.256,262.761 50.500,262.846 50.500 C 262.930 50.500,263.000 50.612,263.000 50.749 C 263.000 50.885,263.150 51.091,263.333 51.205 C 263.517 51.320,263.667 51.481,263.667 51.564 C 263.667 51.734,266.059 54.167,266.226 54.167 C 266.285 54.167,266.478 54.298,266.655 54.458 C 267.097 54.860,267.313 55.018,268.083 55.504 C 269.255 56.244,269.406 56.330,270.000 56.606 C 270.321 56.754,270.771 56.969,271.000 57.083 C 271.229 57.197,271.829 57.386,272.333 57.503 C 272.837 57.619,273.291 57.777,273.341 57.854 C 273.391 57.930,274.159 58.084,275.049 58.196 C 275.939 58.309,276.667 58.461,276.667 58.534 C 276.667 58.607,277.942 58.667,279.500 58.667 C 281.058 58.667,282.333 58.606,282.333 58.533 C 282.333 58.459,282.987 58.317,283.785 58.218 C 284.584 58.120,285.265 57.955,285.299 57.853 C 285.333 57.750,285.524 57.666,285.722 57.664 C 286.469 57.659,289.614 56.226,289.981 55.723 C 290.037 55.646,290.287 55.478,290.536 55.350 C 291.085 55.067,293.755 52.418,294.333 51.582 C 294.563 51.251,294.829 50.891,294.926 50.782 C 295.023 50.673,295.280 50.266,295.497 49.878 L 295.891 49.173 295.515 48.847 C 295.308 48.667,294.920 48.472,294.653 48.414 C 294.386 48.355,294.167 48.241,294.167 48.160 C 294.167 48.079,293.867 47.923,293.500 47.814 C 293.133 47.704,292.833 47.557,292.833 47.487 C 292.833 47.417,292.458 47.236,292.000 47.083 C 291.542 46.931,291.167 46.749,291.167 46.680 C 291.167 46.610,290.848 46.458,290.458 46.341 C 290.069 46.225,289.706 46.060,289.653 45.976 C 289.495 45.724,288.333 45.590,288.333 45.823 C 288.333 45.934,288.240 46.129,288.125 46.258 C 288.010 46.386,287.767 46.691,287.583 46.934 C 286.988 47.724,285.510 49.141,285.167 49.250 C 284.984 49.308,284.833 49.421,284.833 49.500 C 284.833 49.580,284.571 49.740,284.250 49.856 C 283.929 49.972,283.667 50.115,283.667 50.174 C 283.667 50.232,283.235 50.376,282.708 50.494 C 282.181 50.611,281.700 50.785,281.640 50.881 C 281.495 51.109,277.592 51.113,277.301 50.886 C 277.181 50.793,276.615 50.620,276.042 50.502 C 275.469 50.384,275.000 50.229,275.000 50.157 C 275.000 50.085,274.729 49.936,274.397 49.827 C 274.066 49.718,273.635 49.483,273.439 49.306 C 273.243 49.129,272.965 48.876,272.819 48.742 C 272.674 48.609,272.487 48.498,272.403 48.497 C 272.319 48.495,272.025 48.231,271.750 47.910 C 271.475 47.590,271.021 47.080,270.741 46.778 C 270.462 46.476,270.134 45.990,270.013 45.698 C 269.892 45.406,269.727 45.167,269.646 45.167 C 269.565 45.167,269.408 44.829,269.298 44.417 C 269.188 44.004,269.048 43.667,268.988 43.667 C 268.928 43.667,268.781 43.198,268.661 42.625 C 268.542 42.052,268.370 41.534,268.279 41.474 C 268.063 41.330,268.050 36.513,268.266 36.363 C 268.355 36.301,268.526 35.763,268.646 35.167 C 268.765 34.572,268.921 34.047,268.992 34.001 C 269.062 33.954,269.220 33.635,269.343 33.292 C 269.466 32.948,269.619 32.667,269.682 32.667 C 269.745 32.667,269.840 32.498,269.892 32.292 C 270.077 31.558,272.628 28.859,273.504 28.472 C 273.777 28.351,274.000 28.201,274.000 28.139 C 274.000 28.077,274.281 27.934,274.625 27.822 C 274.969 27.710,275.290 27.558,275.338 27.484 C 275.387 27.410,275.931 27.253,276.547 27.136 C 277.163 27.020,277.667 26.866,277.667 26.795 C 277.667 26.725,278.454 26.667,279.417 26.667 C 280.379 26.667,281.167 26.725,281.167 26.795 C 281.167 26.866,281.661 27.018,282.266 27.132 C 282.870 27.247,283.476 27.452,283.611 27.587 C 283.746 27.723,283.932 27.833,284.023 27.833 C 284.114 27.833,284.435 28.021,284.735 28.250 C 285.036 28.479,285.331 28.667,285.392 28.667 C 285.608 28.667,287.793 30.943,287.900 31.280 C 288.151 32.073,289.833 32.403,289.833 31.660 C 289.833 31.601,290.133 31.454,290.500 31.333 C 290.867 31.212,291.167 31.053,291.167 30.980 C 291.167 30.907,291.467 30.757,291.833 30.647 C 292.200 30.537,292.500 30.384,292.500 30.307 C 292.500 30.230,292.611 30.167,292.747 30.167 C 293.205 30.167,295.833 28.820,295.833 28.585 C 295.833 28.353,295.248 27.262,294.922 26.885 C 294.827 26.776,294.563 26.418,294.333 26.089 C 293.489 24.879,290.615 22.167,290.176 22.167 C 290.079 22.167,290.000 22.088,290.000 21.991 C 290.000 21.895,289.775 21.738,289.500 21.642 C 289.225 21.546,289.000 21.412,289.000 21.343 C 289.000 21.275,288.700 21.130,288.333 21.020 C 287.967 20.910,287.667 20.755,287.667 20.677 C 287.667 20.598,287.273 20.440,286.792 20.326 C 286.310 20.212,285.877 20.057,285.828 19.983 C 285.705 19.796,282.966 19.333,281.978 19.333 C 281.532 19.333,281.167 19.258,281.167 19.167 C 281.167 19.066,280.472 19.000,279.417 19.000 C 278.361 19.000,277.667 19.066,277.667 19.167 M297.667 38.833 L 297.667 58.000 301.583 58.000 L 305.500 58.000 305.500 38.833 L 305.500 19.667 301.583 19.667 L 297.667 19.667 297.667 38.833 M389.460 26.279 L 389.417 32.892 388.917 32.363 C 388.643 32.071,388.324 31.833,388.209 31.833 C 388.094 31.833,388.000 31.765,388.000 31.683 C 388.000 31.508,386.853 30.828,386.000 30.496 C 385.679 30.371,385.379 30.218,385.333 30.156 C 385.215 29.995,383.592 29.667,382.918 29.667 C 382.607 29.667,382.307 29.592,382.250 29.500 C 382.193 29.408,381.776 29.333,381.323 29.333 C 380.871 29.333,380.500 29.408,380.500 29.500 C 380.500 29.592,380.233 29.667,379.907 29.667 C 379.011 29.667,377.000 30.029,377.000 30.191 C 377.000 30.269,376.906 30.334,376.792 30.334 C 375.753 30.338,372.214 33.186,371.500 34.591 C 371.363 34.862,371.207 35.121,371.155 35.167 C 370.956 35.340,370.000 37.455,370.000 37.722 C 370.000 37.875,369.938 38.000,369.862 38.000 C 369.713 38.000,369.333 39.841,369.333 40.561 C 369.333 40.802,369.258 41.000,369.167 41.000 C 369.062 41.000,369.000 42.139,369.000 44.083 C 369.000 46.028,369.062 47.167,369.167 47.167 C 369.258 47.167,369.333 47.388,369.333 47.658 C 369.333 48.249,369.629 49.785,369.832 50.250 C 369.912 50.433,370.073 50.865,370.189 51.208 C 370.305 51.552,370.457 51.833,370.527 51.833 C 370.596 51.833,370.743 52.133,370.853 52.500 C 370.963 52.867,371.111 53.167,371.182 53.167 C 371.253 53.167,371.364 53.335,371.430 53.541 C 371.577 54.006,374.412 56.833,374.731 56.833 C 374.859 56.833,375.003 56.934,375.050 57.057 C 375.098 57.181,375.499 57.383,375.943 57.506 C 376.387 57.630,376.841 57.821,376.953 57.932 C 377.065 58.042,377.609 58.185,378.162 58.249 C 378.714 58.314,379.167 58.434,379.167 58.516 C 379.167 58.599,380.104 58.667,381.250 58.667 C 382.396 58.667,383.333 58.600,383.333 58.519 C 383.333 58.438,383.746 58.320,384.250 58.257 C 384.754 58.194,385.274 58.036,385.405 57.905 C 385.536 57.774,385.731 57.667,385.838 57.667 C 386.157 57.667,387.239 57.118,387.383 56.884 C 387.457 56.764,387.607 56.667,387.718 56.667 C 387.828 56.667,388.160 56.404,388.454 56.083 C 388.749 55.762,389.061 55.500,389.148 55.500 C 389.234 55.500,389.343 55.406,389.390 55.292 C 389.436 55.177,389.480 55.740,389.487 56.542 L 389.500 58.000 393.333 58.000 L 397.167 58.000 397.167 38.833 L 397.167 19.667 393.335 19.667 L 389.504 19.667 389.460 26.279 M175.167 29.500 C 175.167 29.592,174.795 29.667,174.340 29.667 C 173.268 29.667,171.000 30.005,171.000 30.164 C 171.000 30.232,170.650 30.336,170.223 30.395 C 169.395 30.508,166.007 32.073,165.783 32.445 C 165.710 32.567,165.539 32.667,165.403 32.667 C 165.267 32.667,165.111 32.785,165.055 32.929 C 165.000 33.074,164.777 33.260,164.561 33.342 C 163.938 33.579,164.056 34.663,164.792 35.464 C 164.906 35.588,165.000 35.794,165.000 35.920 C 165.000 36.047,165.102 36.210,165.226 36.283 C 165.351 36.357,165.544 36.698,165.656 37.042 C 165.768 37.385,165.919 37.667,165.993 37.667 C 166.066 37.667,166.225 37.910,166.345 38.208 C 166.722 39.139,167.085 39.222,167.811 38.542 C 168.570 37.829,169.050 37.495,169.458 37.392 C 169.665 37.340,169.833 37.242,169.833 37.175 C 169.833 37.108,170.133 36.954,170.500 36.833 C 170.867 36.712,171.167 36.561,171.167 36.496 C 171.167 36.356,172.861 36.000,173.528 36.000 C 173.788 36.000,174.000 35.925,174.000 35.833 C 174.000 35.742,174.412 35.667,174.917 35.667 C 175.421 35.667,175.833 35.742,175.833 35.833 C 175.833 35.925,176.077 36.000,176.375 36.001 C 177.060 36.002,178.167 36.304,178.167 36.490 C 178.167 36.567,178.367 36.681,178.612 36.742 C 179.104 36.866,180.103 37.868,180.271 38.406 C 180.330 38.595,180.458 38.801,180.556 38.864 C 180.846 39.050,180.936 43.248,180.646 43.075 C 180.520 43.000,180.035 42.659,179.569 42.317 C 179.103 41.976,178.409 41.603,178.027 41.488 C 177.646 41.374,177.333 41.228,177.333 41.165 C 177.333 41.031,175.267 40.667,174.510 40.667 C 174.229 40.667,174.000 40.592,174.000 40.500 C 174.000 40.295,170.891 40.272,170.765 40.476 C 170.717 40.554,170.211 40.667,169.642 40.726 C 169.072 40.786,168.451 40.935,168.261 41.059 C 168.072 41.182,167.617 41.377,167.250 41.493 C 166.883 41.609,166.508 41.789,166.417 41.893 C 166.325 41.998,166.038 42.193,165.780 42.326 C 165.388 42.529,164.651 43.266,164.010 44.099 C 163.557 44.687,162.986 46.022,162.895 46.710 C 162.837 47.149,162.724 47.548,162.645 47.597 C 162.466 47.707,162.450 51.167,162.629 51.167 C 162.699 51.167,162.845 51.628,162.952 52.192 C 163.059 52.757,163.212 53.263,163.291 53.317 C 163.371 53.372,163.542 53.679,163.672 54.000 C 163.802 54.321,164.102 54.773,164.339 55.005 C 164.576 55.237,164.820 55.557,164.881 55.717 C 164.942 55.877,165.120 56.056,165.275 56.116 C 165.431 56.176,165.689 56.343,165.850 56.487 C 166.455 57.031,166.652 57.153,167.729 57.657 C 168.336 57.941,169.171 58.219,169.583 58.276 C 169.996 58.332,170.333 58.443,170.333 58.523 C 170.333 58.602,171.308 58.667,172.500 58.667 C 173.692 58.667,174.667 58.608,174.667 58.537 C 174.667 58.466,175.201 58.323,175.855 58.220 C 176.509 58.117,177.090 57.969,177.147 57.891 C 177.204 57.812,177.550 57.647,177.917 57.523 C 178.570 57.303,179.754 56.597,180.083 56.232 C 180.626 55.629,180.833 55.820,180.833 56.922 L 180.833 58.000 184.589 58.000 L 188.345 58.000 188.298 47.359 C 188.262 39.509,188.199 36.656,188.054 36.482 C 187.946 36.352,187.769 35.890,187.659 35.456 C 187.550 35.022,187.413 34.667,187.354 34.667 C 187.296 34.667,187.147 34.439,187.024 34.161 C 186.746 33.532,184.917 31.669,184.248 31.333 C 183.974 31.196,183.656 30.995,183.542 30.887 C 183.427 30.779,182.921 30.598,182.417 30.485 C 181.913 30.373,181.500 30.226,181.500 30.160 C 181.500 30.004,179.219 29.667,178.160 29.667 C 177.705 29.667,177.333 29.592,177.333 29.500 C 177.333 29.406,176.861 29.333,176.250 29.333 C 175.639 29.333,175.167 29.406,175.167 29.500 M209.000 29.500 C 209.000 29.592,208.719 29.667,208.375 29.668 C 207.561 29.670,205.616 29.986,205.504 30.135 C 205.456 30.199,204.985 30.395,204.458 30.569 C 203.931 30.744,203.500 30.943,203.500 31.011 C 203.500 31.079,203.275 31.212,203.000 31.308 C 202.725 31.404,202.500 31.562,202.500 31.658 C 202.500 31.754,202.395 31.833,202.267 31.833 C 202.140 31.833,201.858 32.020,201.642 32.247 C 201.427 32.475,201.160 32.662,201.050 32.664 C 200.940 32.665,200.773 32.798,200.680 32.958 C 200.555 33.173,200.509 32.864,200.505 31.792 L 200.500 30.333 196.750 30.333 L 193.000 30.333 193.000 44.167 L 193.000 58.000 196.750 58.000 L 200.500 58.000 200.500 48.779 L 200.500 39.559 201.386 38.654 C 201.873 38.157,202.491 37.637,202.761 37.500 C 203.030 37.362,203.349 37.156,203.470 37.042 C 203.591 36.927,203.985 36.786,204.345 36.729 C 204.705 36.671,205.000 36.559,205.000 36.479 C 205.000 36.399,205.713 36.333,206.583 36.333 C 207.454 36.333,208.167 36.400,208.167 36.481 C 208.167 36.563,208.425 36.678,208.741 36.737 C 209.735 36.924,210.829 38.156,211.055 39.343 C 211.158 39.888,211.301 40.333,211.371 40.333 C 211.442 40.333,211.500 44.308,211.500 49.167 L 211.500 58.000 215.250 58.000 L 219.000 58.000 219.000 46.917 C 219.000 40.732,218.936 35.833,218.855 35.833 C 218.775 35.833,218.660 35.462,218.600 35.007 C 218.540 34.553,218.384 34.074,218.253 33.944 C 218.123 33.814,217.967 33.508,217.906 33.266 C 217.845 33.023,217.654 32.749,217.481 32.656 C 217.308 32.564,217.167 32.408,217.167 32.309 C 217.167 32.061,216.461 31.340,216.214 31.336 C 216.103 31.335,215.939 31.197,215.849 31.029 C 215.760 30.862,215.382 30.634,215.010 30.523 C 214.638 30.411,214.333 30.258,214.333 30.183 C 214.333 29.995,212.621 29.667,211.639 29.667 C 211.196 29.667,210.833 29.592,210.833 29.500 C 210.833 29.408,210.421 29.333,209.917 29.333 C 209.412 29.333,209.000 29.408,209.000 29.500 M235.167 29.500 C 235.167 29.592,234.817 29.667,234.389 29.667 C 233.417 29.667,231.500 29.992,231.500 30.157 C 231.500 30.225,231.087 30.373,230.583 30.485 C 230.079 30.598,229.563 30.794,229.437 30.920 C 229.310 31.047,229.004 31.201,228.757 31.263 C 228.509 31.325,228.267 31.479,228.219 31.605 C 228.170 31.730,228.029 31.833,227.905 31.833 C 227.627 31.833,224.667 34.692,224.667 34.961 C 224.667 35.068,224.517 35.235,224.333 35.333 C 224.150 35.431,224.000 35.604,224.000 35.717 C 224.000 35.830,223.813 36.199,223.583 36.536 C 223.354 36.873,223.167 37.265,223.167 37.408 C 223.167 37.550,223.099 37.667,223.017 37.667 C 222.934 37.667,222.773 38.060,222.659 38.542 C 222.545 39.023,222.389 39.457,222.313 39.507 C 221.689 39.916,221.712 48.424,222.338 48.639 C 222.427 48.669,222.500 48.852,222.500 49.044 C 222.500 49.411,222.849 50.525,223.009 50.667 C 223.060 50.712,223.201 50.994,223.321 51.292 C 223.442 51.590,223.599 51.833,223.671 51.833 C 223.742 51.833,223.879 52.058,223.975 52.333 C 224.071 52.608,224.223 52.833,224.313 52.833 C 224.404 52.833,224.525 52.982,224.583 53.165 C 224.725 53.612,226.955 55.785,227.535 56.042 C 227.791 56.156,228.000 56.298,228.000 56.360 C 228.000 56.516,230.050 57.500,230.376 57.500 C 230.523 57.500,230.742 57.597,230.863 57.716 C 231.088 57.936,232.932 58.333,233.728 58.333 C 233.969 58.333,234.167 58.408,234.167 58.500 C 234.167 58.604,235.139 58.667,236.750 58.667 C 238.171 58.667,239.333 58.607,239.333 58.534 C 239.333 58.461,240.021 58.314,240.860 58.208 C 241.700 58.102,242.432 57.951,242.485 57.873 C 242.539 57.795,243.023 57.627,243.561 57.501 C 244.099 57.374,244.626 57.184,244.732 57.077 C 244.839 56.971,245.205 56.792,245.546 56.679 C 245.887 56.566,246.167 56.414,246.167 56.341 C 246.167 56.267,246.392 56.114,246.667 56.000 C 246.942 55.886,247.167 55.725,247.167 55.642 C 247.167 55.560,247.354 55.420,247.583 55.333 C 248.046 55.157,248.193 54.140,247.792 53.883 C 247.511 53.703,246.500 52.241,246.500 52.014 C 246.500 51.915,246.423 51.833,246.329 51.833 C 246.235 51.833,246.087 51.646,246.000 51.417 C 245.913 51.188,245.779 51.000,245.702 51.000 C 245.625 51.000,245.459 50.737,245.333 50.417 C 245.066 49.736,244.507 49.627,244.045 50.167 C 243.888 50.350,243.661 50.500,243.541 50.500 C 243.421 50.500,243.284 50.602,243.236 50.726 C 243.188 50.851,242.853 51.050,242.491 51.170 C 242.129 51.289,241.833 51.444,241.833 51.515 C 241.833 51.585,241.402 51.737,240.875 51.853 C 240.348 51.968,239.863 52.142,239.798 52.240 C 239.632 52.486,235.195 52.479,235.036 52.233 C 234.970 52.131,234.529 51.956,234.054 51.844 C 233.580 51.731,233.151 51.533,233.101 51.403 C 233.051 51.273,232.925 51.167,232.821 51.167 C 232.614 51.167,230.833 49.362,230.833 49.152 C 230.833 49.082,230.740 48.925,230.625 48.804 C 230.381 48.545,230.000 47.516,230.000 47.113 C 230.000 46.959,229.925 46.833,229.833 46.833 C 229.742 46.833,229.667 46.758,229.667 46.667 C 229.667 46.557,233.194 46.500,239.917 46.500 L 250.167 46.500 250.162 45.708 C 250.152 44.154,249.841 40.626,249.697 40.440 C 249.616 40.335,249.453 39.781,249.336 39.208 C 249.218 38.635,249.065 38.167,248.996 38.167 C 248.927 38.167,248.822 37.907,248.762 37.589 C 248.702 37.271,248.560 36.915,248.445 36.797 C 248.330 36.679,248.136 36.340,248.014 36.042 C 247.893 35.744,247.732 35.500,247.658 35.500 C 247.583 35.500,247.472 35.340,247.409 35.144 C 247.276 34.724,244.644 32.000,244.371 32.000 C 244.268 32.000,244.123 31.897,244.050 31.771 C 243.845 31.420,242.093 30.545,241.339 30.418 C 240.969 30.355,240.667 30.243,240.667 30.169 C 240.667 29.994,238.782 29.667,237.778 29.667 C 237.350 29.667,237.000 29.592,237.000 29.500 C 237.000 29.408,236.588 29.333,236.083 29.333 C 235.579 29.333,235.167 29.408,235.167 29.500 M321.750 29.500 C 321.693 29.592,321.354 29.667,320.997 29.667 C 320.053 29.667,317.833 30.019,317.833 30.168 C 317.833 30.239,317.552 30.347,317.208 30.409 C 316.534 30.531,314.500 31.456,314.500 31.640 C 314.500 31.702,314.288 31.846,314.029 31.960 C 313.444 32.219,311.000 34.619,311.000 34.935 C 311.000 35.062,310.923 35.167,310.829 35.167 C 310.735 35.167,310.587 35.354,310.500 35.583 C 310.413 35.813,310.271 36.000,310.184 36.000 C 310.097 36.000,309.934 36.279,309.821 36.620 C 309.708 36.962,309.523 37.334,309.410 37.448 C 309.296 37.561,309.109 38.051,308.994 38.535 C 308.879 39.020,308.735 39.454,308.673 39.500 C 308.063 39.956,308.048 48.098,308.657 48.499 C 308.727 48.545,308.883 48.995,309.002 49.499 C 309.204 50.349,309.854 51.786,310.131 51.994 C 310.197 52.043,310.363 52.308,310.500 52.583 C 310.638 52.858,310.881 53.181,311.042 53.301 C 311.202 53.421,311.333 53.591,311.333 53.678 C 311.333 54.014,313.743 56.160,314.125 56.164 C 314.240 56.166,314.333 56.246,314.333 56.342 C 314.333 56.438,314.558 56.596,314.833 56.692 C 315.108 56.788,315.333 56.925,315.333 56.997 C 315.333 57.069,315.783 57.267,316.332 57.439 C 316.881 57.610,317.331 57.798,317.332 57.858 C 317.333 57.917,317.971 58.060,318.750 58.176 C 319.529 58.292,320.167 58.450,320.167 58.527 C 320.167 58.604,321.329 58.667,322.750 58.667 C 324.171 58.667,325.333 58.607,325.333 58.534 C 325.333 58.461,325.947 58.312,326.697 58.202 C 327.448 58.093,328.104 57.942,328.156 57.866 C 328.208 57.791,328.677 57.597,329.198 57.436 C 329.720 57.274,330.235 57.035,330.344 56.904 C 330.452 56.774,330.621 56.667,330.720 56.667 C 331.260 56.667,334.667 53.551,334.667 53.056 C 334.667 52.934,334.744 52.833,334.837 52.833 C 334.931 52.833,335.080 52.646,335.167 52.417 C 335.254 52.188,335.390 52.000,335.469 52.000 C 335.548 52.000,335.712 51.700,335.833 51.333 C 335.954 50.967,336.104 50.667,336.167 50.667 C 336.229 50.667,336.372 50.348,336.484 49.958 C 336.596 49.569,336.793 49.020,336.921 48.738 C 337.049 48.457,337.205 47.611,337.268 46.858 C 337.331 46.105,337.446 45.450,337.524 45.402 C 337.725 45.278,337.703 42.708,337.500 42.583 C 337.408 42.527,337.333 42.188,337.333 41.832 C 337.333 41.109,337.059 39.596,336.834 39.083 C 336.754 38.900,336.594 38.469,336.478 38.125 C 336.361 37.781,336.206 37.500,336.133 37.500 C 336.060 37.500,336.000 37.386,336.000 37.248 C 336.000 36.971,335.701 36.391,335.375 36.036 C 335.260 35.912,335.167 35.745,335.167 35.667 C 335.167 35.588,335.073 35.423,334.958 35.299 C 334.844 35.176,334.488 34.740,334.169 34.331 C 333.530 33.514,333.088 33.092,332.083 32.338 C 331.717 32.062,331.321 31.757,331.205 31.659 C 331.088 31.561,330.751 31.396,330.455 31.293 C 330.159 31.190,329.823 31.012,329.708 30.898 C 329.594 30.784,329.088 30.598,328.583 30.485 C 328.079 30.373,327.667 30.225,327.667 30.157 C 327.667 29.980,325.718 29.667,324.611 29.667 C 324.092 29.667,323.667 29.592,323.667 29.500 C 323.667 29.408,323.259 29.333,322.760 29.333 C 322.261 29.333,321.807 29.408,321.750 29.500 M159.542 29.866 C 159.060 29.954,158.667 30.086,158.667 30.160 C 158.667 30.233,158.335 30.377,157.929 30.479 C 157.524 30.582,157.079 30.778,156.941 30.916 C 156.803 31.054,156.614 31.167,156.520 31.167 C 156.427 31.167,156.148 31.354,155.901 31.583 C 155.654 31.813,155.393 32.000,155.322 32.000 C 155.251 32.000,154.887 32.312,154.513 32.693 L 153.833 33.386 153.833 31.860 L 153.833 30.333 149.917 30.333 L 146.000 30.333 146.000 44.167 L 146.000 58.000 149.917 58.000 L 153.833 58.000 153.835 48.875 L 153.837 39.750 154.395 39.208 C 154.701 38.910,155.038 38.667,155.143 38.667 C 155.248 38.667,155.333 38.588,155.333 38.491 C 155.333 38.395,155.558 38.238,155.833 38.142 C 156.108 38.046,156.333 37.907,156.333 37.834 C 156.333 37.760,156.727 37.607,157.208 37.492 C 157.690 37.378,158.137 37.202,158.202 37.101 C 158.279 36.983,159.068 36.917,160.410 36.917 L 162.500 36.917 162.500 33.292 L 162.500 29.667 161.458 29.686 C 160.885 29.697,160.023 29.778,159.542 29.866 M340.167 41.250 C 340.167 48.417,340.224 52.167,340.333 52.167 C 340.425 52.167,340.500 52.358,340.500 52.593 C 340.500 53.198,340.847 54.500,341.009 54.500 C 341.083 54.500,341.196 54.669,341.260 54.875 C 341.324 55.081,341.478 55.362,341.604 55.500 C 341.729 55.637,342.026 55.994,342.264 56.292 C 342.502 56.590,342.802 56.833,342.931 56.833 C 343.061 56.833,343.167 56.903,343.167 56.988 C 343.167 57.166,344.108 57.667,344.442 57.667 C 344.566 57.667,344.667 57.738,344.667 57.825 C 344.667 58.015,345.731 58.331,346.375 58.332 C 346.627 58.333,346.833 58.408,346.833 58.500 C 346.833 58.603,347.722 58.667,349.167 58.667 C 350.450 58.667,351.500 58.605,351.500 58.530 C 351.500 58.455,352.078 58.303,352.784 58.194 C 353.490 58.084,354.108 57.939,354.159 57.871 C 354.209 57.804,354.539 57.647,354.893 57.523 C 355.247 57.400,355.809 57.118,356.143 56.896 C 356.477 56.675,356.894 56.402,357.069 56.289 C 357.245 56.176,357.514 55.971,357.667 55.833 C 358.600 54.994,358.667 55.044,358.667 56.582 L 358.667 58.000 362.417 58.000 L 366.167 58.000 366.167 44.167 L 366.167 30.333 362.417 30.333 L 358.667 30.333 358.667 39.493 L 358.667 48.652 357.787 49.553 C 357.303 50.049,356.740 50.507,356.537 50.572 C 356.333 50.636,356.167 50.749,356.167 50.823 C 356.167 50.896,355.810 51.055,355.375 51.174 C 354.940 51.294,354.530 51.473,354.464 51.571 C 354.309 51.804,350.698 51.812,350.535 51.579 C 350.470 51.486,350.216 51.322,349.970 51.214 C 349.369 50.950,348.667 50.325,348.667 50.053 C 348.667 49.932,348.604 49.833,348.526 49.833 C 348.338 49.833,348.000 48.672,348.000 48.022 C 348.000 47.735,347.925 47.500,347.833 47.500 C 347.724 47.500,347.667 44.528,347.667 38.917 L 347.667 30.333 343.917 30.333 L 340.167 30.333 340.167 41.250 M237.833 35.823 C 237.833 35.891,238.246 36.039,238.750 36.152 C 239.254 36.265,239.667 36.429,239.667 36.517 C 239.667 36.605,239.798 36.725,239.958 36.785 C 240.488 36.979,241.788 38.513,241.942 39.125 C 241.994 39.331,242.095 39.500,242.166 39.500 C 242.238 39.500,242.346 39.781,242.407 40.125 C 242.468 40.469,242.556 40.881,242.603 41.042 C 242.684 41.316,242.301 41.333,236.178 41.333 C 229.844 41.333,229.667 41.325,229.667 41.010 C 229.667 40.832,229.734 40.645,229.817 40.594 C 229.899 40.543,230.055 40.131,230.164 39.680 C 230.272 39.228,230.467 38.818,230.597 38.768 C 230.727 38.718,230.833 38.584,230.833 38.469 C 230.833 38.193,232.345 36.667,232.619 36.667 C 232.737 36.667,232.833 36.595,232.833 36.507 C 232.833 36.419,233.152 36.254,233.542 36.140 C 233.931 36.026,234.289 35.878,234.337 35.810 C 234.524 35.545,237.833 35.557,237.833 35.823 M324.333 36.465 C 324.333 36.538,324.675 36.689,325.092 36.801 C 325.875 37.010,325.920 37.036,326.733 37.745 C 326.998 37.977,327.281 38.167,327.362 38.167 C 327.442 38.167,327.580 38.354,327.667 38.583 C 327.754 38.813,327.897 39.000,327.985 39.000 C 328.073 39.000,328.240 39.262,328.356 39.583 C 328.472 39.904,328.617 40.167,328.678 40.167 C 328.740 40.167,328.888 40.523,329.008 40.958 C 329.127 41.394,329.297 41.798,329.384 41.856 C 329.595 41.998,329.615 45.988,329.406 46.136 C 329.317 46.199,329.148 46.623,329.029 47.079 C 328.911 47.535,328.762 47.948,328.699 47.996 C 328.635 48.044,328.470 48.304,328.333 48.573 C 328.025 49.177,326.620 50.667,326.358 50.667 C 326.253 50.667,326.167 50.727,326.167 50.800 C 326.167 50.873,325.885 51.034,325.542 51.157 C 325.198 51.280,324.863 51.463,324.798 51.565 C 324.642 51.807,321.034 51.818,320.869 51.576 C 320.804 51.481,320.431 51.300,320.042 51.175 C 319.652 51.049,319.333 50.881,319.333 50.801 C 319.333 50.722,319.202 50.607,319.042 50.548 C 318.627 50.393,317.833 49.623,317.833 49.376 C 317.833 49.261,317.756 49.167,317.663 49.167 C 317.569 49.167,317.420 48.979,317.333 48.750 C 317.246 48.521,317.112 48.333,317.036 48.333 C 316.959 48.333,316.796 47.940,316.674 47.458 C 316.552 46.977,316.369 46.530,316.268 46.464 C 316.012 46.299,316.014 41.865,316.271 41.702 C 316.374 41.637,316.512 41.321,316.578 41.000 C 316.643 40.679,316.878 40.137,317.099 39.795 C 317.319 39.453,317.500 39.138,317.500 39.093 C 317.500 38.931,318.976 37.500,319.144 37.500 C 319.239 37.500,319.380 37.388,319.457 37.250 C 319.533 37.113,319.987 36.908,320.465 36.794 C 320.943 36.681,321.333 36.531,321.333 36.461 C 321.333 36.391,322.008 36.333,322.833 36.333 C 323.658 36.333,324.333 36.393,324.333 36.465 M385.167 36.485 C 385.167 36.569,385.468 36.688,385.837 36.751 C 386.205 36.813,386.599 36.951,386.712 37.057 C 386.824 37.163,387.139 37.362,387.412 37.500 C 387.684 37.637,388.031 37.862,388.183 38.000 C 388.336 38.137,388.608 38.362,388.789 38.500 C 389.462 39.012,389.500 39.314,389.499 44.197 L 389.499 48.917 388.757 49.625 C 388.349 50.015,387.824 50.421,387.591 50.527 C 387.358 50.633,387.167 50.775,387.167 50.842 C 387.167 50.909,386.960 51.015,386.708 51.078 C 386.456 51.141,385.988 51.318,385.667 51.471 C 384.971 51.804,381.900 51.875,381.702 51.563 C 381.637 51.460,381.340 51.322,381.043 51.258 C 380.745 51.193,380.445 51.053,380.376 50.945 C 380.307 50.837,380.063 50.649,379.833 50.526 C 379.604 50.402,379.154 49.971,378.833 49.567 C 378.512 49.163,378.167 48.736,378.065 48.618 C 377.964 48.501,377.777 48.107,377.650 47.744 C 377.522 47.381,377.364 47.043,377.298 46.994 C 376.875 46.678,376.867 41.478,377.290 41.182 C 377.367 41.128,377.533 40.765,377.659 40.375 C 377.784 39.985,377.945 39.667,378.015 39.667 C 378.086 39.667,378.190 39.524,378.245 39.349 C 378.301 39.174,378.567 38.780,378.837 38.474 C 379.107 38.167,379.329 37.874,379.331 37.823 C 379.332 37.771,379.593 37.627,379.910 37.503 C 380.227 37.378,380.522 37.184,380.565 37.072 C 380.608 36.959,380.949 36.815,381.322 36.752 C 381.695 36.689,382.000 36.569,382.000 36.485 C 382.000 36.402,382.712 36.333,383.583 36.333 C 384.454 36.333,385.167 36.402,385.167 36.485 M177.000 45.828 C 178.217 46.149,179.401 46.619,179.463 46.806 C 179.499 46.913,179.616 47.000,179.723 47.000 C 180.863 47.000,181.354 50.491,180.348 51.453 C 179.537 52.228,179.351 52.348,178.536 52.619 C 178.104 52.763,177.645 52.964,177.516 53.065 C 177.209 53.308,173.365 53.316,173.202 53.074 C 173.137 52.977,172.821 52.796,172.500 52.672 C 171.549 52.303,170.541 51.138,170.408 50.253 C 170.263 49.286,170.455 48.007,170.762 47.889 C 170.893 47.839,171.000 47.707,171.000 47.596 C 171.000 46.402,174.861 45.265,177.000 45.828 M96.556 48.778 C 96.556 48.900,96.656 49.000,96.778 49.000 C 96.900 49.000,97.000 48.900,97.000 48.778 C 97.000 48.656,96.900 48.556,96.778 48.556 C 96.656 48.556,96.556 48.656,96.556 48.778 M96.167 49.472 C 96.167 49.605,94.648 50.335,93.875 50.574 C 93.669 50.637,93.500 50.747,93.500 50.818 C 93.500 50.889,93.200 51.037,92.833 51.147 C 92.467 51.257,92.166 51.437,92.164 51.548 C 92.163 51.674,92.101 51.656,92.000 51.500 C 91.911 51.362,91.837 51.336,91.836 51.442 C 91.834 51.547,91.458 51.768,91.000 51.933 C 90.542 52.098,90.167 52.281,90.167 52.340 C 90.167 52.398,89.867 52.546,89.500 52.667 C 89.133 52.788,88.833 52.934,88.833 52.992 C 88.833 53.050,88.496 53.188,88.083 53.298 C 87.671 53.408,87.333 53.568,87.333 53.653 C 87.333 53.738,87.108 53.856,86.832 53.917 C 86.556 53.978,86.218 54.139,86.082 54.276 C 85.945 54.412,85.833 54.443,85.833 54.345 C 85.833 54.247,85.678 54.322,85.487 54.513 C 85.297 54.703,85.031 54.817,84.897 54.766 C 84.764 54.714,84.613 54.779,84.563 54.909 C 84.513 55.040,84.253 55.195,83.984 55.253 C 83.716 55.312,83.392 55.465,83.264 55.593 C 83.136 55.722,82.668 55.920,82.224 56.035 C 81.780 56.150,81.361 56.331,81.294 56.437 C 81.226 56.543,80.964 56.681,80.712 56.745 C 80.460 56.808,80.208 56.934,80.152 57.024 C 80.096 57.115,79.945 57.205,79.817 57.224 C 79.688 57.244,79.482 57.323,79.357 57.400 C 79.233 57.478,78.858 57.577,78.524 57.620 C 76.848 57.835,77.869 58.000,80.883 58.000 C 82.961 58.000,84.167 57.939,84.167 57.833 C 84.167 57.742,84.390 57.667,84.662 57.667 C 85.381 57.667,87.667 57.140,87.667 56.974 C 87.667 56.897,87.792 56.833,87.945 56.833 C 88.313 56.833,90.274 55.890,90.958 55.384 C 91.256 55.163,91.500 55.024,91.500 55.075 C 91.500 55.201,91.842 54.900,93.625 53.201 C 94.473 52.393,95.167 51.645,95.167 51.539 C 95.167 51.432,95.319 51.264,95.505 51.164 C 95.691 51.065,95.801 50.917,95.751 50.835 C 95.701 50.754,95.775 50.623,95.916 50.544 C 96.057 50.465,96.205 50.235,96.244 50.033 C 96.283 49.831,96.361 49.591,96.417 49.499 C 96.473 49.408,96.440 49.333,96.343 49.333 C 96.246 49.333,96.167 49.396,96.167 49.472 M4.782 51.542 C 4.948 51.840,5.140 52.108,5.209 52.139 C 5.279 52.170,5.299 52.254,5.255 52.326 C 5.210 52.398,5.454 52.745,5.795 53.097 C 6.137 53.449,6.304 53.671,6.167 53.591 C 5.947 53.462,6.460 53.968,7.607 55.009 C 7.803 55.187,8.043 55.333,8.140 55.333 C 8.237 55.333,8.377 55.431,8.450 55.551 C 8.523 55.671,8.827 55.868,9.125 55.988 C 9.423 56.109,9.667 56.272,9.667 56.351 C 9.667 56.430,10.004 56.580,10.417 56.684 C 10.829 56.788,11.167 56.926,11.167 56.991 C 11.167 57.159,12.655 57.481,14.018 57.608 C 14.656 57.667,15.217 57.780,15.265 57.858 C 15.313 57.936,15.428 58.000,15.520 58.000 C 15.611 58.000,15.640 57.925,15.583 57.833 C 15.519 57.729,15.859 57.667,16.490 57.667 C 17.052 57.667,17.500 57.593,17.500 57.500 C 17.500 57.408,17.393 57.333,17.262 57.333 C 17.131 57.333,16.925 57.236,16.804 57.118 C 16.682 57.000,16.321 56.798,16.000 56.669 C 15.679 56.541,15.379 56.390,15.333 56.333 C 15.287 56.277,14.987 56.127,14.667 56.000 C 14.346 55.873,14.046 55.727,14.000 55.676 C 13.954 55.625,13.110 55.177,12.125 54.681 C 11.140 54.185,10.333 53.716,10.333 53.639 C 10.333 53.563,10.277 53.518,10.208 53.540 C 9.985 53.610,9.000 53.131,9.000 52.952 C 9.000 52.856,8.953 52.825,8.896 52.882 C 8.794 52.984,7.832 52.563,7.667 52.343 C 7.621 52.283,7.208 52.094,6.750 51.923 C 6.292 51.753,5.879 51.568,5.833 51.512 C 5.720 51.373,4.857 51.000,4.649 51.000 C 4.557 51.000,4.617 51.244,4.782 51.542 " stroke="none" fill="#fbfcfc" fill-rule="evenodd"></path><path id="path1" d="M82.627 32.785 C 82.834 32.824,83.134 32.823,83.294 32.781 C 83.453 32.739,83.283 32.707,82.917 32.709 C 82.550 32.711,82.420 32.745,82.627 32.785 M84.958 32.784 C 85.165 32.824,85.502 32.824,85.708 32.784 C 85.915 32.745,85.746 32.712,85.333 32.712 C 84.921 32.712,84.752 32.745,84.958 32.784 M87.583 33.167 C 87.767 33.245,88.029 33.310,88.167 33.310 C 88.324 33.310,88.293 33.257,88.083 33.167 C 87.900 33.088,87.638 33.023,87.500 33.023 C 87.342 33.023,87.373 33.076,87.583 33.167 M89.225 33.744 C 89.486 33.942,86.515 35.667,85.913 35.667 C 85.847 35.667,83.250 36.885,80.583 38.167 C 78.268 39.280,75.943 40.367,75.167 40.699 C 74.754 40.876,74.042 41.199,73.583 41.417 C 73.125 41.634,72.217 42.059,71.566 42.360 C 70.153 43.014,70.020 43.315,69.888 46.167 C 69.783 48.438,69.822 48.349,69.053 48.075 C 65.698 46.878,60.723 48.931,59.134 52.167 C 58.633 53.187,58.042 55.264,58.205 55.428 C 58.337 55.559,59.500 55.187,59.500 55.013 C 59.500 54.943,59.800 54.796,60.167 54.686 C 60.533 54.577,60.833 54.424,60.833 54.348 C 60.833 54.272,61.171 54.115,61.583 54.000 C 61.996 53.885,62.333 53.737,62.333 53.671 C 62.333 53.606,62.633 53.463,63.000 53.353 C 63.367 53.243,63.667 53.091,63.667 53.015 C 63.667 52.939,64.006 52.782,64.421 52.665 C 64.836 52.549,65.212 52.395,65.256 52.323 C 65.301 52.251,65.711 52.068,66.169 51.916 C 66.626 51.764,67.000 51.579,67.000 51.505 C 67.000 51.431,67.337 51.270,67.750 51.149 C 68.162 51.027,68.500 50.880,68.500 50.823 C 68.500 50.766,68.800 50.630,69.167 50.520 C 69.533 50.410,69.833 50.260,69.833 50.186 C 69.833 50.113,70.133 49.963,70.500 49.853 C 70.867 49.743,71.167 49.595,71.167 49.525 C 71.167 49.454,71.542 49.300,72.000 49.183 C 72.458 49.065,72.833 48.907,72.833 48.831 C 72.833 48.755,73.096 48.606,73.417 48.500 C 73.737 48.394,74.000 48.246,74.000 48.170 C 74.000 48.095,74.375 47.943,74.833 47.833 C 75.292 47.723,75.667 47.569,75.667 47.490 C 75.667 47.411,75.967 47.257,76.333 47.147 C 76.700 47.037,77.000 46.884,77.000 46.808 C 77.000 46.731,77.450 46.543,78.000 46.390 C 78.550 46.237,79.000 46.055,79.000 45.986 C 79.000 45.916,79.262 45.773,79.583 45.667 C 79.904 45.561,80.167 45.412,80.167 45.336 C 80.167 45.260,80.542 45.101,81.000 44.984 C 81.458 44.866,81.833 44.713,81.833 44.642 C 81.833 44.571,82.133 44.423,82.500 44.314 C 82.867 44.204,83.167 44.056,83.167 43.985 C 83.167 43.914,83.335 43.804,83.542 43.742 C 83.748 43.679,84.313 43.449,84.797 43.230 C 85.281 43.012,85.749 42.833,85.838 42.833 C 85.927 42.833,86.000 42.761,86.000 42.673 C 86.000 42.585,86.300 42.423,86.667 42.314 C 87.033 42.204,87.333 42.061,87.333 41.995 C 87.333 41.930,87.671 41.782,88.083 41.667 C 88.496 41.551,88.833 41.404,88.833 41.339 C 88.833 41.274,89.246 41.081,89.750 40.909 C 90.254 40.738,90.667 40.548,90.667 40.487 C 90.667 40.426,91.004 40.282,91.417 40.167 C 91.829 40.051,92.167 39.894,92.167 39.818 C 92.167 39.742,92.467 39.590,92.833 39.480 C 93.200 39.370,93.500 39.220,93.500 39.147 C 93.500 39.073,93.819 38.920,94.208 38.806 C 95.375 38.466,95.403 38.294,94.475 37.218 C 93.482 36.069,91.829 34.797,90.421 34.102 C 89.162 33.479,88.689 33.338,89.225 33.744 M73.824 36.958 L 73.250 37.583 73.875 37.009 C 74.219 36.693,74.500 36.412,74.500 36.384 C 74.500 36.257,74.359 36.377,73.824 36.958 M9.946 37.909 C 9.224 38.166,8.862 38.442,9.500 38.248 C 10.242 38.024,10.667 37.844,10.667 37.754 C 10.667 37.646,10.708 37.637,9.946 37.909 M7.970 38.830 C 7.074 39.392,5.579 40.871,5.233 41.535 L 4.999 41.986 9.019 43.989 C 11.230 45.091,13.124 46.056,13.228 46.135 C 13.332 46.213,13.679 46.380,14.000 46.504 C 14.321 46.629,14.621 46.773,14.667 46.824 C 14.871 47.051,25.052 52.167,25.300 52.167 C 25.410 52.167,25.500 52.236,25.500 52.320 C 25.500 52.405,25.781 52.566,26.125 52.678 C 26.469 52.790,26.787 52.935,26.833 53.001 C 26.879 53.067,27.200 53.265,27.546 53.441 L 28.176 53.762 27.240 54.339 C 25.808 55.222,25.428 55.546,26.125 55.292 C 26.423 55.183,26.667 55.041,26.667 54.976 C 26.667 54.912,26.929 54.773,27.250 54.667 C 27.571 54.561,27.833 54.410,27.833 54.332 C 27.833 54.253,27.996 54.137,28.196 54.074 C 28.395 54.011,28.638 53.892,28.737 53.811 C 28.836 53.729,29.404 53.340,30.000 52.947 C 31.037 52.263,31.082 52.205,31.046 51.607 C 30.991 50.711,30.700 49.723,30.400 49.424 C 30.259 49.283,30.188 49.167,30.242 49.167 C 30.297 49.167,30.226 48.942,30.083 48.667 C 29.771 48.063,29.596 47.997,29.864 48.584 C 30.142 49.195,29.950 49.248,29.138 48.784 C 28.741 48.558,25.942 47.114,22.917 45.577 C 15.381 41.747,10.938 39.478,9.755 38.856 C 9.207 38.569,8.757 38.335,8.755 38.337 C 8.752 38.338,8.399 38.560,7.970 38.830 M18.786 39.735 C 19.265 40.165,19.883 40.792,20.161 41.130 C 20.439 41.467,20.667 41.684,20.667 41.611 C 20.667 41.411,18.983 39.675,18.417 39.292 C 18.142 39.106,18.308 39.305,18.786 39.735 M70.871 41.453 C 70.554 42.302,70.509 42.500,70.637 42.500 C 70.762 42.500,71.188 41.133,71.093 41.038 C 71.067 41.011,70.967 41.198,70.871 41.453 M21.349 42.917 C 21.352 43.721,21.929 44.250,22.834 44.277 C 23.770 44.306,23.728 44.267,22.625 44.087 C 22.121 44.005,21.937 43.866,21.674 43.367 C 21.495 43.028,21.348 42.825,21.349 42.917 M24.904 55.746 C 24.728 55.880,24.658 55.991,24.750 55.992 C 24.998 55.996,25.421 55.699,25.316 55.594 C 25.266 55.544,25.081 55.613,24.904 55.746 " stroke="none" fill="#b6deee" fill-rule="evenodd"></path><path id="path2" d="M83.380 32.623 C 83.818 32.657,84.493 32.657,84.880 32.622 C 85.267 32.587,84.908 32.559,84.083 32.559 C 83.258 32.560,82.942 32.588,83.380 32.623 M93.730 36.417 C 95.358 38.076,95.493 38.537,94.410 38.740 C 94.099 38.799,93.746 38.945,93.626 39.065 C 93.506 39.185,93.128 39.375,92.787 39.488 C 92.446 39.600,92.167 39.752,92.167 39.825 C 92.167 39.897,91.829 40.051,91.417 40.167 C 91.004 40.282,90.667 40.426,90.667 40.487 C 90.667 40.548,90.254 40.738,89.750 40.909 C 89.246 41.081,88.833 41.274,88.833 41.339 C 88.833 41.404,88.496 41.551,88.083 41.667 C 87.671 41.782,87.333 41.930,87.333 41.995 C 87.333 42.061,87.033 42.204,86.667 42.314 C 86.300 42.423,86.000 42.585,86.000 42.673 C 86.000 42.761,85.927 42.833,85.838 42.833 C 85.749 42.833,85.281 43.012,84.797 43.230 C 84.313 43.449,83.748 43.679,83.542 43.742 C 83.335 43.804,83.167 43.914,83.167 43.985 C 83.167 44.056,82.867 44.204,82.500 44.314 C 82.133 44.423,81.833 44.571,81.833 44.642 C 81.833 44.713,81.458 44.866,81.000 44.984 C 80.542 45.101,80.167 45.260,80.167 45.336 C 80.167 45.412,79.904 45.561,79.583 45.667 C 79.262 45.773,79.000 45.916,79.000 45.986 C 79.000 46.055,78.550 46.237,78.000 46.390 C 77.450 46.543,77.000 46.731,77.000 46.808 C 77.000 46.884,76.700 47.037,76.333 47.147 C 75.967 47.257,75.667 47.411,75.667 47.490 C 75.667 47.569,75.292 47.723,74.833 47.833 C 74.375 47.943,74.000 48.095,74.000 48.170 C 74.000 48.246,73.737 48.394,73.417 48.500 C 73.096 48.606,72.833 48.755,72.833 48.831 C 72.833 48.907,72.458 49.065,72.000 49.183 C 71.542 49.300,71.167 49.454,71.167 49.525 C 71.167 49.595,70.867 49.743,70.500 49.853 C 70.133 49.963,69.833 50.113,69.833 50.186 C 69.833 50.260,69.533 50.410,69.167 50.520 C 68.800 50.630,68.500 50.766,68.500 50.823 C 68.500 50.880,68.162 51.027,67.750 51.149 C 67.337 51.270,67.000 51.431,67.000 51.505 C 67.000 51.579,66.626 51.764,66.169 51.916 C 65.711 52.068,65.301 52.251,65.256 52.323 C 65.212 52.395,64.836 52.549,64.421 52.665 C 64.006 52.782,63.667 52.939,63.667 53.015 C 63.667 53.091,63.367 53.243,63.000 53.353 C 62.633 53.463,62.333 53.606,62.333 53.671 C 62.333 53.737,61.996 53.885,61.583 54.000 C 61.171 54.115,60.833 54.272,60.833 54.348 C 60.833 54.424,60.533 54.577,60.167 54.686 C 59.800 54.796,59.500 54.943,59.500 55.013 C 59.500 55.289,58.303 55.553,58.149 55.311 C 57.978 55.041,57.950 56.428,58.108 57.381 L 58.212 58.012 62.348 57.958 C 64.623 57.929,66.538 57.851,66.603 57.786 C 66.669 57.720,66.957 57.667,67.245 57.667 C 67.533 57.667,68.139 57.489,68.592 57.272 C 69.046 57.056,70.220 56.493,71.202 56.022 C 72.184 55.552,73.035 55.167,73.093 55.167 C 73.151 55.167,73.998 54.783,74.974 54.314 C 75.951 53.845,77.387 53.165,78.167 52.804 C 78.946 52.442,80.261 51.813,81.090 51.407 C 81.919 51.000,82.655 50.667,82.725 50.667 C 83.000 50.667,85.667 49.276,85.667 49.133 C 85.667 49.049,85.742 49.027,85.834 49.084 C 85.926 49.141,86.695 48.853,87.542 48.444 C 90.159 47.182,92.345 46.167,92.444 46.167 C 92.496 46.167,93.411 45.748,94.478 45.237 C 98.295 43.406,97.993 43.699,97.597 42.211 C 97.045 40.139,95.217 37.455,93.250 35.831 C 92.975 35.604,93.191 35.868,93.730 36.417 M12.213 37.456 C 12.652 37.490,13.327 37.490,13.713 37.455 C 14.100 37.420,13.742 37.392,12.917 37.392 C 12.092 37.393,11.775 37.422,12.213 37.456 M5.405 41.042 C 4.192 42.476,2.973 46.802,3.880 46.454 C 4.026 46.398,4.169 46.419,4.198 46.502 C 4.226 46.584,5.300 47.189,6.583 47.846 C 13.941 51.614,15.658 52.445,15.730 52.271 C 15.773 52.167,15.814 52.195,15.822 52.333 C 15.831 52.478,16.623 52.978,17.710 53.524 C 23.286 56.324,23.078 56.200,22.599 56.451 C 22.361 56.575,22.167 56.714,22.167 56.758 C 22.167 56.898,23.078 56.624,23.192 56.450 C 23.251 56.359,23.424 56.332,23.575 56.390 C 23.737 56.452,23.809 56.428,23.749 56.331 C 23.693 56.241,23.745 56.165,23.865 56.164 C 24.225 56.159,26.893 54.683,27.785 53.996 L 28.154 53.712 27.494 53.414 C 27.131 53.250,26.833 53.064,26.833 53.001 C 26.833 52.938,26.533 52.796,26.167 52.686 C 25.800 52.577,25.500 52.415,25.500 52.327 C 25.500 52.239,25.410 52.167,25.300 52.167 C 25.052 52.167,14.871 47.051,14.667 46.824 C 14.621 46.773,14.321 46.629,14.000 46.504 C 13.679 46.380,13.332 46.213,13.228 46.135 C 13.124 46.056,11.230 45.090,9.018 43.988 C 4.583 41.779,4.750 41.936,5.717 40.875 C 5.904 40.669,6.014 40.500,5.961 40.500 C 5.907 40.500,5.657 40.744,5.405 41.042 M65.797 47.790 C 66.282 47.824,67.032 47.823,67.464 47.789 C 67.896 47.755,67.500 47.727,66.583 47.728 C 65.667 47.728,65.313 47.756,65.797 47.790 M60.736 49.929 L 60.083 50.524 60.792 49.984 C 61.439 49.491,61.597 49.333,61.444 49.333 C 61.414 49.333,61.095 49.601,60.736 49.929 M58.428 53.514 C 58.284 53.998,58.174 54.474,58.182 54.572 C 58.190 54.670,58.337 54.303,58.508 53.757 C 58.680 53.211,58.790 52.735,58.755 52.699 C 58.719 52.663,58.572 53.030,58.428 53.514 " stroke="none" fill="#d3ebf4" fill-rule="evenodd"></path><path id="path3" d="M80.833 32.836 C 80.657 32.951,80.756 32.968,81.167 32.892 C 81.885 32.761,82.021 32.666,81.486 32.669 C 81.265 32.671,80.971 32.746,80.833 32.836 M93.006 35.660 C 93.324 35.931,93.650 36.156,93.731 36.160 C 93.813 36.164,93.596 35.942,93.250 35.667 C 92.438 35.021,92.253 35.016,93.006 35.660 M73.828 36.792 L 72.917 37.750 73.875 36.839 C 74.765 35.993,74.910 35.833,74.786 35.833 C 74.760 35.833,74.329 36.265,73.828 36.792 M95.326 37.958 C 95.636 38.348,95.919 38.667,95.956 38.667 C 96.074 38.667,95.359 37.729,95.056 37.485 C 94.895 37.356,95.017 37.569,95.326 37.958 M96.150 39.083 C 96.431 39.627,96.662 39.928,96.660 39.750 C 96.660 39.658,96.506 39.396,96.318 39.167 C 96.092 38.890,96.035 38.862,96.150 39.083 M96.949 40.581 C 97.102 40.901,97.256 41.133,97.292 41.097 C 97.368 41.020,96.862 40.000,96.748 40.000 C 96.706 40.000,96.797 40.262,96.949 40.581 M5.573 40.708 L 5.083 41.250 5.625 40.760 C 6.130 40.304,6.243 40.167,6.115 40.167 C 6.086 40.167,5.842 40.410,5.573 40.708 M97.559 42.000 C 97.934 43.447,97.910 43.558,97.138 43.945 C 95.624 44.704,92.534 46.167,92.444 46.167 C 92.345 46.167,90.159 47.182,87.542 48.444 C 86.695 48.853,85.926 49.141,85.834 49.084 C 85.742 49.027,85.667 49.049,85.667 49.133 C 85.667 49.276,83.000 50.667,82.725 50.667 C 82.655 50.667,81.919 51.000,81.090 51.407 C 80.261 51.813,78.946 52.442,78.167 52.804 C 77.387 53.165,75.951 53.845,74.974 54.314 C 73.998 54.783,73.151 55.167,73.093 55.167 C 73.035 55.167,72.184 55.552,71.202 56.022 C 70.220 56.493,69.046 57.056,68.592 57.272 C 68.139 57.489,67.525 57.667,67.227 57.667 C 66.930 57.667,66.640 57.742,66.583 57.833 C 66.451 58.048,77.534 58.063,77.758 57.849 C 77.845 57.766,78.190 57.663,78.524 57.620 C 78.858 57.577,79.233 57.478,79.357 57.400 C 79.482 57.323,79.688 57.244,79.817 57.224 C 79.945 57.205,80.096 57.115,80.152 57.024 C 80.208 56.934,80.460 56.808,80.712 56.745 C 80.964 56.681,81.226 56.543,81.294 56.437 C 81.361 56.331,81.780 56.150,82.224 56.035 C 82.668 55.920,83.136 55.722,83.264 55.593 C 83.392 55.465,83.716 55.312,83.984 55.253 C 84.253 55.195,84.513 55.040,84.563 54.909 C 84.613 54.779,84.764 54.714,84.897 54.766 C 85.031 54.817,85.297 54.703,85.487 54.513 C 85.678 54.322,85.833 54.247,85.833 54.345 C 85.833 54.443,85.945 54.412,86.082 54.276 C 86.218 54.139,86.556 53.978,86.832 53.917 C 87.108 53.856,87.333 53.738,87.333 53.653 C 87.333 53.568,87.671 53.408,88.083 53.298 C 88.496 53.188,88.833 53.050,88.833 52.992 C 88.833 52.934,89.133 52.788,89.500 52.667 C 89.867 52.546,90.167 52.398,90.167 52.340 C 90.167 52.281,90.542 52.098,91.000 51.933 C 91.458 51.768,91.834 51.547,91.836 51.442 C 91.837 51.336,91.911 51.362,92.000 51.500 C 92.101 51.656,92.163 51.674,92.164 51.548 C 92.166 51.437,92.467 51.257,92.833 51.147 C 93.200 51.037,93.500 50.889,93.500 50.818 C 93.500 50.747,93.669 50.637,93.875 50.574 C 94.648 50.335,96.167 49.605,96.167 49.472 C 96.167 49.396,96.281 49.333,96.420 49.333 C 96.598 49.333,96.651 49.212,96.598 48.921 C 96.557 48.694,96.574 48.515,96.637 48.524 C 96.997 48.574,97.167 48.463,97.167 48.177 C 97.167 47.999,97.243 47.806,97.336 47.748 C 97.429 47.691,97.462 47.574,97.410 47.488 C 97.357 47.403,97.398 47.333,97.500 47.333 C 97.602 47.333,97.643 47.264,97.590 47.178 C 97.538 47.093,97.564 46.980,97.649 46.927 C 97.735 46.875,97.855 46.532,97.917 46.166 C 97.979 45.800,98.088 45.500,98.159 45.500 C 98.348 45.500,98.504 44.123,98.338 43.921 C 98.261 43.827,98.083 43.311,97.944 42.775 C 97.804 42.240,97.636 41.752,97.570 41.692 C 97.505 41.632,97.499 41.771,97.559 42.000 M4.409 42.349 C 4.262 42.632,4.172 42.894,4.208 42.930 C 4.244 42.966,4.398 42.734,4.551 42.415 C 4.894 41.696,4.775 41.641,4.409 42.349 M3.641 44.192 C 3.177 45.762,3.472 50.667,4.031 50.667 C 4.117 50.667,4.140 50.742,4.083 50.833 C 4.027 50.925,4.060 51.000,4.157 51.000 C 4.254 51.000,4.333 51.107,4.333 51.238 C 4.333 51.500,4.827 52.062,4.950 51.939 C 4.992 51.897,4.900 51.668,4.744 51.431 C 4.587 51.191,4.540 51.000,4.640 51.000 C 4.855 51.000,5.717 51.370,5.833 51.512 C 5.879 51.568,6.292 51.753,6.750 51.923 C 7.208 52.094,7.621 52.283,7.667 52.343 C 7.832 52.563,8.794 52.984,8.896 52.882 C 8.953 52.825,9.000 52.856,9.000 52.952 C 9.000 53.131,9.985 53.610,10.208 53.540 C 10.277 53.518,10.333 53.563,10.333 53.639 C 10.333 53.716,11.140 54.185,12.125 54.681 C 13.110 55.177,13.954 55.625,14.000 55.676 C 14.046 55.727,14.346 55.873,14.667 56.000 C 14.987 56.127,15.287 56.277,15.333 56.333 C 15.379 56.390,15.679 56.541,16.000 56.669 C 16.321 56.798,16.682 57.000,16.804 57.118 C 16.925 57.236,17.131 57.333,17.262 57.333 C 17.393 57.333,17.500 57.408,17.500 57.500 C 17.500 57.593,17.052 57.667,16.490 57.667 C 15.859 57.667,15.519 57.729,15.583 57.833 C 15.753 58.107,17.667 58.045,17.667 57.766 C 17.667 57.613,17.783 57.562,18.002 57.619 C 18.430 57.731,21.000 57.337,21.000 57.160 C 21.000 57.086,21.238 56.974,21.528 56.911 C 21.818 56.847,22.271 56.664,22.533 56.504 L 23.011 56.213 21.297 55.339 C 20.355 54.858,18.740 54.041,17.710 53.524 C 16.623 52.978,15.831 52.478,15.822 52.333 C 15.814 52.195,15.773 52.167,15.730 52.271 C 15.658 52.445,13.941 51.614,6.583 47.846 C 5.300 47.189,4.226 46.584,4.198 46.502 C 4.169 46.419,4.037 46.393,3.906 46.444 C 3.621 46.553,3.578 45.335,3.828 44.255 C 4.039 43.346,3.904 43.301,3.641 44.192 M69.717 45.667 C 69.717 46.171,69.748 46.377,69.786 46.125 C 69.824 45.873,69.824 45.460,69.786 45.208 C 69.748 44.956,69.717 45.163,69.717 45.667 M28.667 46.750 C 28.978 47.071,29.270 47.333,29.315 47.333 C 29.361 47.333,29.144 47.071,28.833 46.750 C 28.522 46.429,28.230 46.167,28.185 46.167 C 28.139 46.167,28.356 46.429,28.667 46.750 M69.626 47.750 C 69.582 47.979,69.611 48.167,69.690 48.167 C 69.769 48.167,69.833 47.979,69.833 47.750 C 69.833 47.521,69.805 47.333,69.769 47.333 C 69.734 47.333,69.670 47.521,69.626 47.750 M66.042 47.621 C 66.385 47.657,66.948 47.657,67.292 47.621 C 67.635 47.585,67.354 47.556,66.667 47.556 C 65.979 47.556,65.698 47.585,66.042 47.621 M64.250 47.833 C 64.040 47.924,64.009 47.977,64.167 47.977 C 64.304 47.977,64.567 47.912,64.750 47.833 C 64.960 47.743,64.991 47.690,64.833 47.690 C 64.696 47.690,64.433 47.755,64.250 47.833 M68.500 47.833 C 69.070 48.016,69.508 48.016,69.083 47.833 C 68.900 47.755,68.600 47.692,68.417 47.695 C 68.149 47.699,68.165 47.726,68.500 47.833 M61.417 49.265 L 60.917 49.694 61.458 49.336 C 61.756 49.139,62.000 48.945,62.000 48.905 C 62.000 48.781,61.929 48.824,61.417 49.265 M31.028 50.667 C 31.037 51.100,31.299 51.811,31.305 51.417 C 31.308 51.233,31.245 50.933,31.167 50.750 C 31.079 50.546,31.025 50.514,31.028 50.667 M59.721 50.875 C 59.535 51.081,59.323 51.362,59.250 51.500 C 59.110 51.765,59.148 51.729,59.823 50.958 C 60.044 50.706,60.187 50.500,60.141 50.500 C 60.096 50.500,59.906 50.669,59.721 50.875 M57.940 54.958 C 57.812 55.733,57.830 57.121,57.975 57.635 C 58.035 57.846,58.083 57.190,58.083 56.177 C 58.083 54.103,58.083 54.097,57.940 54.958 M63.625 57.954 C 63.923 57.991,64.410 57.991,64.708 57.954 C 65.006 57.917,64.762 57.887,64.167 57.887 C 63.571 57.887,63.327 57.917,63.625 57.954 " stroke="none" fill="#e7f4fb" fill-rule="evenodd"></path><path id="path4" d="M82.333 32.834 C 81.115 32.957,79.228 33.480,78.352 33.938 C 78.112 34.062,77.858 34.165,77.786 34.166 C 77.715 34.166,77.115 34.520,76.453 34.951 C 73.926 36.598,71.647 39.397,70.985 41.667 C 70.865 42.079,70.690 42.469,70.596 42.533 C 70.068 42.893,70.760 42.754,71.678 42.316 C 73.612 41.393,74.406 41.025,75.167 40.699 C 75.943 40.367,78.268 39.280,80.583 38.167 C 83.250 36.885,85.847 35.667,85.913 35.667 C 86.494 35.667,89.490 33.941,89.228 33.758 C 88.227 33.058,84.740 32.591,82.333 32.834 M11.417 37.614 C 11.142 37.650,10.767 37.751,10.583 37.839 C 10.400 37.927,9.950 38.102,9.583 38.227 L 8.917 38.454 9.750 38.870 C 10.208 39.098,12.121 40.072,14.000 41.033 C 15.879 41.995,19.892 44.039,22.917 45.577 C 25.942 47.114,28.741 48.558,29.138 48.784 C 30.408 49.509,30.197 48.599,28.748 47.104 C 27.181 45.486,25.304 44.558,23.205 44.365 C 22.355 44.287,21.908 44.170,21.816 44.000 C 21.741 43.862,21.471 43.300,21.216 42.750 C 19.614 39.297,15.421 37.100,11.417 37.614 M30.167 52.846 C 29.662 53.207,29.119 53.544,28.958 53.595 C 28.798 53.647,28.667 53.762,28.667 53.852 C 28.667 54.008,30.160 53.226,30.337 52.977 C 30.384 52.909,30.628 52.776,30.878 52.681 C 31.129 52.586,31.333 52.431,31.333 52.337 C 31.333 52.066,31.142 52.149,30.167 52.846 M14.667 57.833 C 14.990 58.042,15.167 58.042,15.167 57.833 C 15.167 57.742,14.998 57.668,14.792 57.669 C 14.488 57.671,14.465 57.703,14.667 57.833 M17.750 57.833 C 17.692 57.928,17.832 58.000,18.073 58.000 C 18.308 58.000,18.500 57.925,18.500 57.833 C 18.500 57.742,18.354 57.667,18.177 57.667 C 17.999 57.667,17.807 57.742,17.750 57.833 " stroke="none" fill="#9cd4e5" fill-rule="evenodd"></path></g></svg>