<svg id="svg" version="1.1" xmlns="http://www.w3.org/2000/svg" xmlns:xlink="http://www.w3.org/1999/xlink" width="400" height="100.6597549481621" viewBox="0, 0, 400,100.6597549481621"><g id="svgg"><path id="path0" d="M64.375 25.946 C 63.985 25.986,63.667 26.090,63.667 26.176 C 63.667 26.263,63.475 26.333,63.241 26.333 C 62.370 26.333,58.179 27.409,57.999 27.679 C 57.952 27.749,57.390 28.003,56.749 28.244 C 56.108 28.484,55.321 28.860,55.000 29.078 C 54.679 29.297,54.068 29.659,53.641 29.883 C 53.215 30.106,52.653 30.487,52.393 30.728 C 52.133 30.969,51.844 31.167,51.752 31.167 C 51.296 31.168,47.442 34.944,46.505 36.307 C 46.294 36.614,45.944 37.056,45.727 37.290 C 45.511 37.524,45.333 37.791,45.333 37.884 C 45.333 37.976,45.160 38.284,44.949 38.568 C 44.449 39.239,43.782 40.432,43.496 41.167 C 43.371 41.487,43.224 41.787,43.168 41.833 C 42.966 42.001,42.353 43.676,42.074 44.823 C 41.917 45.470,41.734 46.000,41.668 46.000 C 41.601 46.000,41.454 46.581,41.341 47.292 C 41.028 49.243,40.869 49.666,40.445 49.668 C 39.688 49.671,36.833 50.709,36.833 50.982 C 36.833 51.061,36.593 51.226,36.299 51.348 C 35.846 51.535,33.976 53.277,33.005 54.417 C 32.628 54.858,31.833 56.430,31.833 56.733 C 31.833 56.865,31.752 56.999,31.652 57.033 C 30.609 57.380,30.630 64.784,31.678 66.417 L 31.999 66.917 31.897 65.500 C 31.240 56.341,43.168 52.816,47.364 60.930 C 47.769 61.713,48.007 61.999,48.257 61.999 C 51.417 62.005,55.085 65.030,55.723 68.156 L 55.925 69.146 56.462 68.885 C 56.758 68.742,57.000 68.558,57.000 68.475 C 57.000 68.393,57.174 68.259,57.386 68.178 C 57.598 68.098,58.347 67.575,59.050 67.016 C 59.753 66.457,60.386 66.000,60.456 66.000 C 60.527 66.000,60.799 65.772,61.062 65.494 C 61.325 65.216,61.753 64.878,62.015 64.742 C 62.276 64.607,62.572 64.344,62.672 64.157 C 62.772 63.970,63.037 63.748,63.260 63.663 C 63.763 63.472,63.792 63.167,63.307 63.167 C 63.109 63.167,62.118 63.325,61.105 63.519 C 58.928 63.936,57.959 63.869,56.858 63.226 C 55.285 62.308,55.311 61.985,56.990 61.606 C 57.719 61.442,58.337 61.256,58.365 61.194 C 58.394 61.132,59.298 60.862,60.375 60.593 C 63.051 59.926,62.874 59.773,59.625 59.942 C 58.135 60.020,56.309 60.083,55.567 60.083 L 54.218 60.083 53.454 59.263 C 52.068 57.774,51.937 57.833,56.599 57.833 C 61.537 57.833,61.882 57.682,58.167 57.143 C 57.387 57.030,56.712 56.889,56.667 56.829 C 56.621 56.769,55.732 56.590,54.691 56.432 C 52.312 56.071,51.740 55.809,51.321 54.889 C 50.617 53.345,50.876 53.157,52.868 53.763 C 53.681 54.011,56.330 54.554,57.708 54.755 C 59.015 54.946,58.652 54.489,57.167 54.072 C 56.938 54.008,56.712 53.901,56.667 53.836 C 56.621 53.770,55.946 53.508,55.167 53.253 C 53.789 52.803,52.347 52.213,51.500 51.753 C 50.963 51.461,50.521 50.325,50.509 49.210 L 50.500 48.337 51.458 48.855 C 51.985 49.139,52.454 49.428,52.500 49.496 C 52.546 49.564,53.146 49.908,53.833 50.260 C 54.521 50.612,55.109 50.963,55.141 51.039 C 55.172 51.116,55.735 51.448,56.391 51.776 C 57.047 52.105,57.608 52.440,57.639 52.521 C 57.748 52.808,58.167 52.660,58.167 52.333 C 58.167 52.150,58.103 52.000,58.026 52.000 C 57.949 52.000,57.442 51.617,56.901 51.149 C 56.360 50.681,55.505 49.949,55.002 49.524 C 54.089 48.751,52.287 46.979,51.854 46.428 C 51.029 45.378,50.999 40.775,51.811 39.772 C 51.895 39.668,51.998 39.433,52.040 39.250 L 52.115 38.917 52.242 39.250 C 52.828 40.790,53.095 41.429,53.182 41.500 C 53.238 41.546,53.567 42.183,53.913 42.917 C 54.258 43.650,54.597 44.288,54.665 44.333 C 54.733 44.379,54.956 44.748,55.161 45.152 C 55.367 45.557,55.818 46.307,56.164 46.819 C 56.510 47.331,56.916 47.994,57.067 48.292 C 57.218 48.590,57.406 48.833,57.485 48.833 C 57.564 48.833,57.749 49.087,57.897 49.398 C 58.044 49.708,58.390 50.204,58.666 50.499 C 58.941 50.794,59.167 51.069,59.167 51.111 C 59.167 51.453,60.955 53.320,61.292 53.328 C 61.651 53.337,61.012 51.863,60.499 51.500 C 60.434 51.454,60.106 50.895,59.770 50.258 C 59.433 49.621,59.054 48.984,58.926 48.842 C 58.798 48.700,58.456 47.984,58.166 47.251 C 57.875 46.518,57.580 45.881,57.510 45.834 C 57.346 45.726,56.746 43.853,56.489 42.643 C 56.269 41.612,56.348 39.085,56.608 38.825 C 56.714 38.719,56.872 38.983,57.061 39.581 C 57.220 40.087,57.422 40.500,57.509 40.500 C 57.595 40.500,57.667 40.610,57.667 40.744 C 57.667 40.879,57.771 41.235,57.898 41.536 C 58.698 43.428,58.925 43.926,59.023 44.000 C 59.083 44.046,59.438 44.721,59.813 45.500 C 60.755 47.461,61.669 49.058,61.939 49.217 C 62.064 49.290,62.167 49.423,62.167 49.512 C 62.167 49.710,62.989 51.019,63.261 51.253 C 63.369 51.346,63.637 51.686,63.856 52.009 C 64.960 53.636,68.261 56.667,68.929 56.667 C 68.976 56.667,69.158 56.801,69.335 56.965 C 70.641 58.182,75.388 58.491,77.333 57.486 C 78.557 56.854,80.520 54.517,81.367 52.684 C 81.637 52.097,81.966 51.510,82.096 51.380 C 82.442 51.035,82.405 50.331,82.042 50.342 C 81.881 50.346,80.869 50.483,79.792 50.645 L 77.833 50.940 77.833 50.312 C 77.833 48.921,78.481 46.953,79.145 46.328 C 80.149 45.382,81.099 44.838,82.167 44.595 C 84.057 44.165,84.061 44.166,83.942 45.292 C 83.886 45.819,83.791 46.835,83.730 47.551 L 83.619 48.851 84.458 48.740 C 84.965 48.673,85.533 48.707,85.895 48.826 C 86.386 48.988,86.705 48.972,87.668 48.738 C 88.943 48.428,89.316 48.495,88.543 48.894 C 88.275 49.033,87.670 49.451,87.199 49.823 C 86.728 50.195,86.303 50.500,86.254 50.500 C 86.154 50.500,82.962 53.758,82.171 54.667 C 81.349 55.611,79.333 58.136,79.333 58.221 C 79.333 58.265,79.069 58.589,78.745 58.942 C 78.421 59.295,77.895 59.883,77.575 60.250 C 76.614 61.351,74.597 63.372,73.750 64.083 C 73.313 64.450,72.750 64.938,72.497 65.167 C 72.012 65.608,71.705 65.810,70.500 66.480 C 70.087 66.709,69.712 66.949,69.667 67.013 C 69.527 67.208,68.405 67.630,67.043 67.999 C 66.332 68.192,65.600 68.416,65.417 68.496 C 65.081 68.643,64.286 68.789,61.275 69.253 C 59.248 69.565,57.373 70.412,56.697 71.319 C 56.452 71.648,56.190 71.962,56.114 72.017 C 55.807 72.241,56.085 73.218,56.554 73.567 C 57.019 73.913,57.150 73.917,67.831 73.962 L 78.637 74.007 78.632 72.691 C 78.610 67.687,83.503 63.997,88.271 65.422 C 88.611 65.524,88.629 65.465,88.708 63.972 C 89.426 50.349,108.479 47.937,112.850 60.917 L 113.299 62.250 113.423 61.259 C 114.303 54.213,109.530 47.267,102.750 45.728 C 101.004 45.332,97.065 45.321,95.532 45.709 C 94.751 45.906,94.464 45.925,94.419 45.779 C 94.385 45.671,94.192 45.002,93.988 44.292 C 93.785 43.581,93.554 43.000,93.476 43.000 C 93.397 43.000,93.333 42.919,93.333 42.820 C 93.333 42.531,92.315 40.291,92.074 40.050 C 91.954 39.930,91.802 39.664,91.737 39.460 C 91.632 39.128,90.888 37.881,90.667 37.667 C 90.430 37.437,89.667 36.339,89.667 36.229 C 89.667 36.159,89.439 35.873,89.161 35.593 C 88.883 35.312,88.114 34.538,87.453 33.871 C 85.770 32.175,85.055 31.500,84.940 31.500 C 84.886 31.500,84.212 31.050,83.443 30.500 C 82.674 29.950,81.965 29.500,81.868 29.500 C 81.770 29.500,81.571 29.380,81.424 29.234 C 81.277 29.087,80.503 28.701,79.704 28.377 C 78.904 28.052,78.212 27.737,78.167 27.676 C 78.025 27.489,75.152 26.689,73.833 26.470 C 73.146 26.356,72.532 26.188,72.469 26.096 C 72.352 25.927,65.740 25.804,64.375 25.946 M137.000 40.833 C 137.000 40.925,136.707 41.000,136.348 41.000 C 135.123 41.000,131.591 41.817,131.333 42.160 C 131.287 42.221,130.735 42.491,130.105 42.760 C 129.476 43.030,128.801 43.417,128.605 43.622 C 128.410 43.827,128.160 43.996,128.050 43.997 C 127.724 44.002,124.952 46.738,124.500 47.501 C 124.271 47.888,123.950 48.348,123.788 48.523 C 123.463 48.872,122.667 50.579,122.667 50.926 C 122.667 51.045,122.562 51.248,122.434 51.376 C 121.170 52.640,121.057 62.895,122.297 63.827 C 122.425 63.923,122.763 64.758,123.012 65.592 C 123.096 65.872,123.315 66.263,123.499 66.460 C 123.683 66.658,123.833 66.865,123.833 66.921 C 123.833 67.131,124.929 68.609,125.619 69.330 C 126.012 69.741,126.333 70.135,126.333 70.205 C 126.333 70.276,126.415 70.333,126.515 70.333 C 126.615 70.333,127.085 70.665,127.560 71.071 C 128.035 71.477,128.835 72.014,129.337 72.264 C 129.839 72.514,130.293 72.784,130.345 72.863 C 130.477 73.062,133.082 73.932,134.000 74.084 C 134.412 74.152,134.804 74.292,134.869 74.395 C 135.030 74.649,141.961 74.660,142.131 74.406 C 142.196 74.309,142.700 74.132,143.250 74.012 C 144.429 73.756,146.333 73.024,146.333 72.827 C 146.333 72.751,146.494 72.638,146.691 72.576 C 147.407 72.348,149.198 71.016,149.962 70.143 C 150.094 69.992,150.400 69.648,150.643 69.379 C 151.205 68.754,152.333 67.058,152.333 66.836 C 152.333 66.743,152.408 66.667,152.500 66.667 C 152.916 66.667,152.591 66.356,151.792 65.989 C 151.310 65.768,150.879 65.548,150.833 65.500 C 150.787 65.453,150.150 65.155,149.417 64.838 C 148.683 64.521,147.829 64.091,147.518 63.881 C 146.777 63.381,146.203 63.384,146.011 63.888 C 145.847 64.320,143.793 66.500,143.550 66.500 C 143.466 66.500,143.251 66.634,143.073 66.797 C 142.542 67.286,141.165 67.790,139.800 67.994 C 135.637 68.619,131.322 66.169,129.829 62.333 C 129.704 62.012,129.549 61.712,129.483 61.666 C 128.714 61.126,128.726 54.153,129.497 53.667 C 129.570 53.621,129.874 53.065,130.172 52.433 C 131.216 50.219,133.782 48.170,136.250 47.578 C 138.030 47.151,141.191 47.401,141.951 48.029 C 142.061 48.120,142.399 48.327,142.701 48.489 C 143.003 48.650,143.443 48.889,143.679 49.019 C 143.915 49.149,144.365 49.554,144.679 49.919 C 144.993 50.284,145.308 50.609,145.379 50.640 C 145.451 50.672,145.658 50.990,145.841 51.349 C 146.024 51.707,146.256 52.000,146.358 52.000 C 146.595 52.000,148.557 51.133,148.668 50.979 C 148.714 50.915,149.385 50.584,150.159 50.243 C 150.932 49.903,151.664 49.527,151.784 49.407 C 151.904 49.287,152.152 49.141,152.334 49.083 C 152.660 48.980,152.804 48.667,152.526 48.667 C 152.449 48.667,152.210 48.325,151.995 47.907 C 151.393 46.736,148.766 43.862,148.277 43.840 C 148.200 43.836,148.012 43.689,147.860 43.513 C 147.044 42.568,143.606 41.272,141.363 41.063 C 140.699 41.002,140.117 40.887,140.068 40.809 C 139.942 40.605,137.000 40.629,137.000 40.833 M266.833 40.809 C 266.833 40.887,266.289 40.997,265.623 41.053 C 264.192 41.174,261.284 41.898,261.199 42.154 C 261.166 42.253,261.049 42.333,260.940 42.333 C 260.609 42.333,258.333 43.475,258.333 43.641 C 258.333 43.726,258.090 43.913,257.792 44.057 C 256.859 44.507,254.390 47.062,253.909 48.075 C 253.767 48.376,253.515 48.767,253.350 48.944 C 253.021 49.296,252.220 51.190,252.059 51.994 C 252.004 52.272,251.901 52.500,251.830 52.500 C 251.036 52.500,251.013 62.431,251.806 62.995 C 251.874 63.043,252.037 63.421,252.166 63.833 C 252.460 64.768,253.009 66.056,253.162 66.167 C 253.225 66.212,253.494 66.654,253.760 67.148 C 254.027 67.642,254.377 68.129,254.539 68.230 C 254.701 68.331,254.833 68.496,254.833 68.596 C 254.833 68.956,257.573 71.402,258.642 71.995 C 258.885 72.130,259.421 72.443,259.833 72.690 C 260.692 73.204,262.820 73.929,263.969 74.098 C 264.399 74.161,264.804 74.296,264.869 74.398 C 265.034 74.654,271.631 74.657,271.798 74.400 C 271.863 74.300,272.221 74.170,272.594 74.112 C 273.781 73.926,275.891 73.182,276.167 72.850 C 276.212 72.795,276.429 72.649,276.648 72.526 C 276.867 72.403,277.279 72.171,277.565 72.010 C 278.838 71.293,282.333 67.282,282.333 66.537 C 282.333 66.366,278.021 64.167,277.685 64.167 C 277.583 64.167,277.500 64.107,277.500 64.033 C 277.500 63.881,276.522 63.500,276.129 63.500 C 275.985 63.500,275.792 63.706,275.703 63.958 C 275.487 64.562,273.894 66.232,273.208 66.573 C 272.910 66.721,272.667 66.908,272.667 66.989 C 272.667 67.216,270.718 67.825,269.394 68.012 C 267.682 68.253,264.703 67.728,263.852 67.035 C 263.660 66.878,263.108 66.496,262.626 66.185 C 261.249 65.296,259.928 63.481,259.398 61.750 C 259.230 61.200,259.034 60.708,258.962 60.656 C 258.481 60.310,258.523 54.667,259.007 54.667 C 259.080 54.667,259.191 54.433,259.254 54.148 C 259.397 53.497,260.127 51.832,260.415 51.500 C 264.088 47.265,268.755 46.067,272.428 48.417 C 272.929 48.737,273.383 49.000,273.435 49.000 C 273.646 49.000,275.464 50.941,275.568 51.277 C 275.801 52.026,276.090 52.080,277.210 51.580 C 277.782 51.325,278.293 51.052,278.345 50.972 C 278.397 50.892,279.025 50.602,279.740 50.327 C 280.455 50.051,281.229 49.678,281.459 49.496 C 281.690 49.315,281.981 49.167,282.106 49.167 C 282.391 49.167,282.403 48.598,282.125 48.302 C 282.010 48.181,281.636 47.669,281.293 47.166 C 280.024 45.305,278.123 43.572,276.500 42.799 C 275.904 42.515,275.378 42.224,275.330 42.152 C 275.164 41.902,272.254 41.156,271.047 41.054 C 270.379 40.997,269.833 40.887,269.833 40.809 C 269.833 40.731,269.158 40.667,268.333 40.667 C 267.508 40.667,266.833 40.731,266.833 40.809 M284.000 57.667 L 284.000 74.000 287.250 74.000 L 290.500 74.000 290.500 57.667 L 290.500 41.333 287.250 41.333 L 284.000 41.333 284.000 57.667 M362.664 47.125 L 362.662 52.917 362.123 52.309 C 361.826 51.975,361.340 51.565,361.042 51.398 C 360.744 51.231,360.500 51.044,360.500 50.982 C 360.500 50.733,358.307 50.012,357.012 49.835 C 354.552 49.498,351.222 50.148,350.113 51.181 C 349.925 51.356,349.691 51.501,349.594 51.502 C 349.390 51.505,347.333 53.553,347.333 53.753 C 347.333 53.826,347.157 54.117,346.942 54.401 C 346.404 55.109,345.904 56.289,345.650 57.447 C 345.533 57.980,345.358 58.470,345.260 58.536 C 345.008 58.706,345.017 65.804,345.270 65.964 C 345.373 66.030,345.538 66.461,345.636 66.922 C 345.979 68.537,347.148 70.699,348.218 71.701 C 349.674 73.063,351.602 74.166,352.528 74.167 C 352.681 74.167,352.837 74.260,352.875 74.375 C 352.926 74.529,353.587 74.583,355.416 74.583 C 357.246 74.583,357.907 74.529,357.958 74.375 C 357.996 74.260,358.150 74.167,358.300 74.167 C 359.160 74.167,360.764 73.283,361.942 72.161 L 362.667 71.470 362.667 72.735 L 362.667 74.000 365.917 74.000 L 369.167 74.000 369.167 57.667 L 369.167 41.333 365.917 41.333 L 362.667 41.333 362.664 47.125 M177.821 49.837 C 174.994 50.156,171.915 51.316,170.458 52.611 C 170.114 52.916,169.758 53.167,169.666 53.167 C 169.417 53.167,169.466 53.943,169.733 54.209 C 169.861 54.337,170.208 54.924,170.505 55.513 C 170.801 56.102,171.098 56.621,171.165 56.667 C 171.232 56.712,171.412 56.994,171.564 57.292 C 171.926 57.998,172.746 57.767,173.583 56.723 C 173.772 56.487,176.173 55.500,176.556 55.500 C 176.693 55.500,176.836 55.409,176.873 55.299 C 176.920 55.158,177.483 55.097,178.750 55.097 C 180.017 55.097,180.580 55.158,180.627 55.299 C 180.664 55.409,180.819 55.501,180.972 55.502 C 181.603 55.505,182.993 56.500,183.359 57.210 C 183.871 58.205,184.045 61.811,183.552 61.222 C 183.206 60.809,181.808 60.000,181.438 60.000 C 181.302 60.000,181.087 59.897,180.961 59.771 C 180.117 58.926,173.895 58.796,173.085 59.605 C 172.960 59.731,172.758 59.836,172.637 59.838 C 171.224 59.870,168.936 62.428,168.578 64.377 C 168.514 64.722,168.396 65.045,168.314 65.095 C 168.123 65.213,168.120 68.167,168.311 68.167 C 168.391 68.167,168.496 68.462,168.544 68.822 C 168.830 70.951,170.955 73.291,173.250 74.003 C 173.617 74.117,174.022 74.294,174.151 74.397 C 174.497 74.672,179.366 74.652,179.458 74.375 C 179.497 74.260,179.657 74.167,179.816 74.167 C 180.372 74.167,182.226 73.332,182.984 72.740 L 183.750 72.142 183.800 73.071 L 183.850 74.000 187.097 74.000 L 190.344 74.000 190.297 64.911 C 190.267 59.070,190.190 55.779,190.083 55.702 C 189.991 55.637,189.767 55.137,189.586 54.592 C 189.392 54.007,189.034 53.379,188.712 53.056 C 188.412 52.756,188.167 52.468,188.167 52.414 C 188.167 52.259,187.267 51.511,187.073 51.505 C 186.976 51.502,186.731 51.346,186.530 51.159 C 185.454 50.156,180.991 49.479,177.821 49.837 M206.917 49.857 C 205.492 50.037,203.829 50.570,203.324 51.008 C 203.118 51.187,202.866 51.333,202.765 51.333 C 202.664 51.333,202.169 51.672,201.665 52.085 L 200.750 52.837 200.701 51.585 L 200.653 50.333 197.493 50.333 L 194.333 50.333 194.333 62.167 L 194.333 74.000 197.500 74.000 L 200.667 74.000 200.667 66.114 L 200.667 58.228 201.658 57.341 C 204.682 54.637,209.369 55.212,209.788 58.338 C 209.837 58.702,209.942 59.000,210.022 59.000 C 210.102 59.000,210.167 62.369,210.167 66.500 L 210.167 74.000 213.333 74.000 L 216.500 74.000 216.500 64.614 C 216.500 55.153,216.419 53.747,215.849 53.333 C 215.786 53.288,215.528 52.894,215.277 52.459 C 215.026 52.024,214.607 51.558,214.347 51.424 C 214.087 51.289,213.834 51.075,213.785 50.949 C 213.644 50.581,211.871 50.007,210.333 49.831 C 208.738 49.649,208.546 49.650,206.917 49.857 M229.333 49.844 C 228.028 49.984,225.333 50.750,225.333 50.982 C 225.333 51.056,225.015 51.256,224.625 51.428 C 223.680 51.844,221.073 54.468,220.670 55.409 C 220.500 55.806,220.281 56.179,220.183 56.240 C 218.801 57.094,218.703 66.608,220.063 68.050 C 220.166 68.160,220.401 68.539,220.584 68.892 C 221.074 69.837,222.748 71.676,223.640 72.248 C 224.067 72.522,224.508 72.833,224.621 72.940 C 224.870 73.177,226.865 73.932,227.667 74.092 C 227.987 74.156,228.304 74.293,228.369 74.396 C 228.547 74.677,235.031 74.657,235.125 74.375 C 235.163 74.260,235.367 74.167,235.577 74.167 C 236.259 74.167,239.141 73.144,239.619 72.733 C 239.874 72.513,240.143 72.334,240.215 72.334 C 241.504 72.332,241.536 70.673,240.272 69.333 C 240.143 69.196,239.885 68.812,239.701 68.481 C 239.056 67.325,238.917 67.167,238.553 67.167 C 238.351 67.167,238.139 67.243,238.081 67.337 C 238.024 67.430,237.588 67.702,237.113 67.942 C 236.638 68.181,236.210 68.440,236.160 68.516 C 235.944 68.852,233.848 69.244,232.250 69.247 C 230.219 69.251,229.113 68.913,228.114 67.985 C 227.730 67.629,227.370 67.337,227.314 67.335 C 227.126 67.332,226.389 66.094,226.171 65.417 C 226.053 65.050,225.883 64.657,225.792 64.543 C 225.662 64.379,227.452 64.327,234.439 64.293 L 243.250 64.250 243.301 63.351 C 243.329 62.857,243.273 62.373,243.176 62.276 C 243.079 62.179,242.999 61.684,242.997 61.175 C 242.993 59.733,242.204 56.395,241.764 55.954 C 241.647 55.837,241.415 55.455,241.249 55.105 C 240.800 54.158,239.044 52.291,238.000 51.651 C 237.496 51.341,236.992 51.002,236.881 50.896 C 236.537 50.568,234.475 50.020,232.910 49.840 C 231.264 49.652,231.135 49.652,229.333 49.844 M303.374 49.851 C 299.898 50.255,297.396 51.677,295.097 54.556 C 294.613 55.162,293.680 57.060,293.671 57.458 C 293.669 57.573,293.599 57.667,293.517 57.667 C 292.742 57.667,292.692 65.976,293.465 66.484 C 293.548 66.539,293.666 66.792,293.729 67.046 C 293.912 67.795,294.702 69.357,294.944 69.450 C 295.066 69.497,295.167 69.641,295.167 69.771 C 295.167 70.082,297.593 72.500,297.906 72.500 C 298.040 72.500,298.210 72.606,298.283 72.735 C 298.467 73.058,300.106 73.760,301.279 74.017 C 301.813 74.134,302.304 74.309,302.369 74.406 C 302.551 74.677,308.534 74.647,308.625 74.375 C 308.663 74.260,308.825 74.167,308.985 74.167 C 309.577 74.167,312.184 73.172,312.500 72.825 C 312.546 72.775,312.846 72.553,313.167 72.332 C 313.732 71.942,315.667 70.076,315.667 69.921 C 315.667 69.879,315.960 69.391,316.318 68.838 C 317.068 67.677,317.637 65.956,317.781 64.410 C 317.836 63.818,317.946 63.333,318.024 63.333 C 318.225 63.333,318.202 61.042,318.000 60.917 C 317.908 60.860,317.831 60.537,317.827 60.198 C 317.816 59.062,317.007 56.276,316.584 55.917 C 316.475 55.825,316.247 55.450,316.075 55.083 C 315.630 54.132,313.366 51.941,312.343 51.472 C 311.879 51.259,311.500 51.032,311.500 50.967 C 311.500 50.715,308.696 49.978,307.177 49.830 C 305.365 49.654,305.050 49.656,303.374 49.851 M165.750 50.021 C 164.783 50.244,163.609 50.691,163.417 50.908 C 163.325 51.011,162.912 51.294,162.500 51.537 C 162.087 51.780,161.525 52.222,161.250 52.519 L 160.750 53.060 160.702 51.697 L 160.653 50.333 157.410 50.333 L 154.167 50.333 154.167 62.167 L 154.167 74.000 157.417 74.000 L 160.667 74.000 160.667 66.241 L 160.667 58.481 161.187 58.006 C 161.473 57.744,161.979 57.392,162.310 57.224 C 162.641 57.055,163.003 56.832,163.114 56.728 C 163.533 56.340,165.655 55.955,166.929 56.037 L 168.167 56.117 168.167 52.975 L 168.167 49.833 167.292 49.850 C 166.810 49.859,166.117 49.936,165.750 50.021 M320.333 59.575 C 320.333 68.864,320.409 70.266,320.937 70.795 C 321.064 70.921,321.167 71.116,321.167 71.229 C 321.167 71.824,323.217 73.833,323.824 73.833 C 323.923 73.833,324.359 74.002,324.793 74.208 C 325.668 74.624,330.537 74.788,330.798 74.411 C 330.863 74.317,331.329 74.138,331.833 74.014 C 332.820 73.771,334.309 73.084,334.582 72.745 C 334.674 72.630,335.069 72.340,335.458 72.099 L 336.167 71.662 336.167 72.831 L 336.167 74.000 339.417 74.000 L 342.667 74.000 342.667 62.167 L 342.667 50.333 339.417 50.333 L 336.167 50.333 336.167 58.210 L 336.167 66.087 335.468 66.806 C 333.570 68.762,330.381 69.363,328.476 68.124 C 326.911 67.106,326.942 67.303,326.872 58.125 L 326.813 50.333 323.573 50.333 L 320.333 50.333 320.333 59.575 M233.325 55.294 C 233.375 55.362,233.774 55.591,234.210 55.804 C 234.646 56.017,235.134 56.379,235.293 56.608 C 235.453 56.836,235.752 57.217,235.959 57.453 C 236.165 57.689,236.413 58.190,236.510 58.566 C 236.607 58.942,236.725 59.381,236.771 59.542 C 236.851 59.815,236.511 59.833,231.261 59.833 C 225.778 59.833,225.667 59.827,225.667 59.500 C 225.667 59.317,225.738 59.167,225.826 59.167 C 225.913 59.167,226.032 58.914,226.090 58.606 C 226.293 57.525,227.718 55.881,228.723 55.567 C 228.921 55.506,229.131 55.381,229.189 55.291 C 229.441 54.898,233.031 54.901,233.325 55.294 M307.553 56.017 C 308.397 56.340,310.167 57.798,310.167 58.170 C 310.167 58.247,310.382 58.784,310.646 59.363 C 311.407 61.036,311.452 64.072,310.727 64.797 C 310.602 64.922,310.500 65.157,310.500 65.320 C 310.500 66.035,309.148 67.502,308.000 68.034 C 307.587 68.225,307.197 68.463,307.131 68.565 C 306.571 69.434,302.132 68.243,301.376 67.021 C 301.228 66.780,300.947 66.396,300.753 66.167 C 299.494 64.680,299.429 58.952,300.663 58.167 C 300.735 58.121,301.069 57.753,301.405 57.350 C 302.744 55.742,305.355 55.176,307.553 56.017 M359.380 55.912 C 360.452 56.237,361.077 56.614,361.941 57.457 L 362.667 58.165 362.660 62.124 L 362.652 66.083 362.035 66.778 C 359.624 69.488,355.164 69.366,353.157 66.535 C 352.851 66.103,352.551 65.712,352.491 65.667 C 351.729 65.086,351.562 60.771,352.244 59.298 C 352.728 58.254,353.830 56.667,354.072 56.667 C 354.130 56.667,354.377 56.535,354.619 56.375 C 355.680 55.673,357.886 55.459,359.380 55.912 M181.091 63.770 C 181.683 63.919,182.167 64.101,182.167 64.176 C 182.167 64.250,182.317 64.359,182.501 64.417 C 183.751 64.814,184.331 66.888,183.591 68.318 C 183.359 68.767,181.803 69.667,181.259 69.667 C 181.132 69.667,180.997 69.760,180.958 69.875 C 180.870 70.141,177.547 70.171,177.369 69.907 C 177.304 69.810,177.025 69.638,176.750 69.525 C 175.631 69.062,174.833 67.947,174.833 66.842 C 174.833 66.316,175.292 65.001,175.476 64.999 C 175.535 64.999,175.834 64.764,176.139 64.477 C 177.162 63.519,179.030 63.253,181.091 63.770 M111.330 66.756 C 111.209 66.982,111.041 67.167,110.955 67.167 C 110.731 67.167,108.118 68.313,108.009 68.460 C 107.925 68.572,106.992 68.966,106.583 69.062 C 106.349 69.117,105.267 69.692,105.167 69.815 C 105.089 69.910,104.118 70.309,103.750 70.396 C 103.658 70.418,103.265 70.602,102.875 70.805 C 102.485 71.008,102.167 71.125,102.167 71.066 C 102.167 71.007,102.066 71.043,101.943 71.145 C 101.820 71.247,101.670 71.281,101.610 71.221 C 101.549 71.160,101.500 71.200,101.500 71.308 C 101.500 71.517,99.862 72.311,99.167 72.438 C 98.938 72.480,98.672 72.616,98.578 72.740 C 98.363 73.021,97.346 73.467,96.250 73.761 C 95.493 73.963,95.721 73.979,98.750 73.928 C 102.771 73.860,105.938 72.969,107.658 71.423 C 109.265 69.978,110.500 68.733,110.500 68.559 C 110.500 68.442,110.650 68.265,110.833 68.167 C 111.017 68.069,111.167 67.911,111.167 67.816 C 111.167 67.721,111.289 67.520,111.439 67.371 C 111.628 67.181,111.651 67.078,111.513 67.032 C 111.382 66.988,111.411 66.897,111.600 66.759 C 111.767 66.636,111.815 66.509,111.717 66.448 C 111.625 66.391,111.451 66.530,111.330 66.756 M33.002 68.337 C 33.101 68.522,33.130 68.759,33.065 68.863 C 33.001 68.966,33.016 69.013,33.099 68.966 C 33.182 68.919,33.506 69.226,33.819 69.649 C 34.133 70.071,34.245 70.305,34.069 70.170 C 33.756 69.927,33.756 69.930,34.062 70.288 C 34.233 70.489,34.432 70.638,34.505 70.618 C 34.577 70.599,34.861 70.833,35.136 71.138 C 35.607 71.660,36.727 72.396,37.375 72.610 C 37.535 72.662,37.667 72.761,37.667 72.830 C 37.667 73.189,40.724 73.861,42.215 73.828 C 42.784 73.816,43.419 73.804,43.625 73.802 C 44.209 73.796,44.068 73.564,43.292 73.253 C 42.903 73.097,42.547 72.919,42.500 72.857 C 42.454 72.795,41.142 72.113,39.583 71.341 C 38.025 70.569,36.563 69.810,36.333 69.654 C 36.104 69.498,35.862 69.358,35.795 69.344 C 35.511 69.283,34.076 68.609,34.000 68.501 C 33.659 68.018,32.751 67.869,33.002 68.337 " stroke="none" fill="#fbfcfc" fill-rule="evenodd"></path><path id="path1" d="M103.250 52.644 C 103.433 52.724,103.846 52.838,104.167 52.896 C 104.567 52.968,104.645 52.956,104.417 52.856 C 104.233 52.776,103.821 52.662,103.500 52.604 C 103.100 52.532,103.021 52.544,103.250 52.644 M97.583 52.833 C 97.373 52.924,97.342 52.977,97.500 52.977 C 97.638 52.977,97.900 52.912,98.083 52.833 C 98.293 52.743,98.324 52.690,98.167 52.690 C 98.029 52.690,97.767 52.755,97.583 52.833 M105.495 53.327 C 105.812 53.527,105.869 53.490,103.833 54.423 C 102.157 55.191,100.940 55.757,97.833 57.212 C 97.054 57.577,95.779 58.174,95.000 58.538 C 94.221 58.902,93.133 59.414,92.583 59.677 C 91.511 60.188,89.662 61.000,89.571 61.000 C 89.540 61.000,89.625 60.688,89.759 60.307 C 90.087 59.378,89.955 59.301,89.605 60.217 C 89.164 61.370,88.839 63.152,88.836 64.431 C 88.833 65.841,88.808 65.875,88.032 65.551 C 86.137 64.760,82.548 65.728,80.863 67.485 C 79.704 68.694,78.269 72.000,78.903 72.000 C 79.105 72.000,80.238 71.487,80.327 71.355 C 80.377 71.283,81.129 70.936,82.000 70.583 C 82.871 70.231,83.624 69.884,83.673 69.811 C 83.722 69.738,84.359 69.439,85.089 69.146 C 85.819 68.853,86.457 68.553,86.506 68.479 C 86.555 68.405,87.255 68.079,88.062 67.754 C 88.868 67.429,89.639 67.051,89.776 66.915 C 89.912 66.778,90.100 66.667,90.192 66.667 C 90.474 66.667,92.746 65.633,92.806 65.478 C 92.836 65.399,92.936 65.333,93.028 65.333 C 93.308 65.333,95.580 64.299,95.639 64.145 C 95.669 64.065,95.767 64.000,95.856 64.000 C 96.059 64.000,98.887 62.792,99.000 62.657 C 99.098 62.540,101.898 61.333,102.072 61.333 C 102.137 61.333,102.299 61.224,102.432 61.091 C 102.566 60.958,103.310 60.608,104.087 60.313 C 104.864 60.018,105.500 59.719,105.500 59.650 C 105.500 59.581,106.110 59.289,106.856 59.001 C 107.602 58.714,108.311 58.379,108.432 58.259 C 108.553 58.138,109.039 57.899,109.513 57.729 C 109.987 57.559,110.410 57.328,110.453 57.217 C 110.661 56.672,108.285 54.565,106.381 53.605 C 105.540 53.181,104.994 53.010,105.495 53.327 M36.568 57.328 C 35.288 57.970,34.400 58.716,33.811 59.645 L 33.336 60.394 36.960 62.193 C 38.953 63.183,40.696 64.072,40.833 64.170 C 40.971 64.267,43.033 65.328,45.417 66.527 C 51.647 69.662,51.656 69.667,51.836 69.667 C 51.926 69.667,52.000 69.737,52.000 69.823 C 52.000 69.908,52.263 70.074,52.585 70.190 L 53.170 70.401 52.710 70.791 C 52.252 71.178,52.254 71.178,53.113 70.760 C 53.588 70.529,54.024 70.262,54.083 70.167 C 54.142 70.072,54.260 70.038,54.345 70.090 C 54.430 70.143,54.500 70.112,54.500 70.021 C 54.500 69.929,54.798 69.687,55.163 69.482 C 55.731 69.163,55.812 69.048,55.731 68.680 C 55.517 67.701,55.129 66.667,54.977 66.667 C 54.887 66.667,54.867 66.580,54.933 66.474 C 55.004 66.358,54.979 66.327,54.868 66.395 C 54.767 66.458,54.324 66.333,53.884 66.117 C 52.147 65.267,39.014 58.571,37.929 57.983 L 36.775 57.358 37.346 57.109 C 37.660 56.972,37.835 56.854,37.735 56.847 C 37.635 56.839,37.110 57.056,36.568 57.328 M91.167 57.333 C 90.971 57.608,90.848 57.833,90.894 57.833 C 90.940 57.833,91.138 57.608,91.333 57.333 C 91.529 57.058,91.652 56.833,91.606 56.833 C 91.560 56.833,91.362 57.058,91.167 57.333 M42.847 57.062 C 43.019 57.216,44.000 57.667,44.000 57.592 C 44.000 57.496,43.076 57.000,42.897 57.000 C 42.832 57.000,42.809 57.028,42.847 57.062 M53.523 64.583 C 53.831 64.950,54.257 65.475,54.468 65.750 C 54.679 66.025,54.776 66.092,54.683 65.899 C 54.590 65.705,54.164 65.180,53.738 64.732 C 53.226 64.195,53.153 64.144,53.523 64.583 M51.250 71.667 C 50.692 72.036,50.764 72.100,51.409 71.807 C 51.642 71.700,51.833 71.550,51.833 71.473 C 51.833 71.284,51.822 71.288,51.250 71.667 " stroke="none" fill="#b6deed" fill-rule="evenodd"></path><path id="path2" d="M109.344 55.583 C 109.466 55.767,109.786 56.155,110.055 56.447 C 110.676 57.121,110.581 57.345,109.513 57.729 C 109.039 57.899,108.553 58.138,108.432 58.259 C 108.311 58.379,107.602 58.714,106.856 59.001 C 106.110 59.289,105.500 59.581,105.500 59.650 C 105.500 59.719,104.864 60.018,104.087 60.313 C 103.310 60.608,102.566 60.958,102.432 61.091 C 102.299 61.224,102.137 61.333,102.072 61.333 C 101.898 61.333,99.098 62.540,99.000 62.657 C 98.887 62.792,96.059 64.000,95.856 64.000 C 95.767 64.000,95.669 64.065,95.639 64.145 C 95.580 64.299,93.308 65.333,93.028 65.333 C 92.936 65.333,92.836 65.399,92.806 65.478 C 92.746 65.633,90.474 66.667,90.192 66.667 C 90.100 66.667,89.912 66.778,89.776 66.915 C 89.639 67.051,88.868 67.429,88.062 67.754 C 87.255 68.079,86.555 68.405,86.506 68.479 C 86.457 68.553,85.819 68.853,85.089 69.146 C 84.359 69.439,83.722 69.738,83.673 69.811 C 83.624 69.884,82.871 70.231,82.000 70.583 C 81.129 70.936,80.377 71.283,80.327 71.355 C 80.103 71.687,78.953 72.027,78.812 71.804 C 78.643 71.538,78.621 72.453,78.774 73.375 L 78.877 74.000 82.313 73.994 C 86.851 73.986,86.695 74.030,93.167 70.962 C 94.716 70.228,96.536 69.373,98.792 68.319 C 99.594 67.944,100.775 67.389,101.417 67.086 C 102.058 66.783,103.258 66.222,104.083 65.841 C 104.908 65.459,106.108 64.898,106.750 64.594 C 107.392 64.290,108.442 63.801,109.083 63.509 C 109.725 63.216,110.837 62.705,111.554 62.372 L 112.858 61.768 112.749 61.176 C 112.465 59.625,111.360 57.652,109.899 56.083 C 109.472 55.625,109.222 55.400,109.344 55.583 M33.333 60.027 C 32.753 60.827,32.167 62.577,32.167 63.506 L 32.167 64.143 36.625 66.402 C 39.077 67.645,42.823 69.542,44.950 70.618 C 47.455 71.885,48.746 72.624,48.616 72.715 C 47.595 73.433,51.179 71.789,52.393 70.982 L 53.203 70.444 52.602 70.204 C 52.271 70.072,52.000 69.897,52.000 69.816 C 52.000 69.734,51.926 69.667,51.836 69.667 C 51.656 69.667,51.647 69.662,45.417 66.527 C 43.033 65.328,40.971 64.267,40.833 64.170 C 40.696 64.072,38.955 63.184,36.965 62.196 L 33.347 60.399 33.671 59.866 C 34.132 59.109,33.927 59.206,33.333 60.027 M85.708 65.286 C 85.960 65.324,86.373 65.324,86.625 65.286 C 86.877 65.248,86.671 65.217,86.167 65.217 C 85.662 65.217,85.456 65.248,85.708 65.286 M47.417 73.170 C 47.050 73.350,46.900 73.464,47.083 73.423 C 48.110 73.195,48.333 73.116,48.333 72.982 C 48.333 72.767,48.166 72.802,47.417 73.170 " stroke="none" fill="#d3ebf4" fill-rule="evenodd"></path><path id="path3" d="M39.463 56.456 C 39.855 56.491,40.455 56.490,40.796 56.454 C 41.137 56.419,40.817 56.390,40.083 56.390 C 39.350 56.391,39.071 56.420,39.463 56.456 M112.556 60.405 C 112.606 60.536,112.695 60.896,112.753 61.206 L 112.858 61.768 111.554 62.372 C 110.837 62.705,109.725 63.216,109.083 63.509 C 108.442 63.801,107.392 64.290,106.750 64.594 C 106.108 64.898,104.908 65.459,104.083 65.841 C 103.258 66.222,102.058 66.783,101.417 67.086 C 100.775 67.389,99.594 67.944,98.792 68.319 C 96.536 69.373,94.716 70.228,93.167 70.962 C 89.514 72.694,87.515 73.564,86.750 73.755 C 86.021 73.937,86.500 73.965,90.583 73.976 C 95.844 73.990,97.861 73.678,98.578 72.740 C 98.672 72.616,98.938 72.480,99.167 72.438 C 99.862 72.311,101.500 71.517,101.500 71.308 C 101.500 71.200,101.549 71.160,101.610 71.221 C 101.670 71.281,101.820 71.247,101.943 71.145 C 102.066 71.043,102.167 71.007,102.167 71.066 C 102.167 71.125,102.485 71.008,102.875 70.805 C 103.265 70.602,103.658 70.418,103.750 70.396 C 104.118 70.309,105.089 69.910,105.167 69.815 C 105.267 69.692,106.349 69.117,106.583 69.062 C 106.992 68.966,107.925 68.572,108.009 68.460 C 108.118 68.313,110.731 67.167,110.955 67.167 C 111.041 67.167,111.209 66.982,111.330 66.756 C 111.451 66.530,111.606 66.379,111.674 66.421 C 111.742 66.463,111.845 66.308,111.904 66.075 C 111.969 65.816,112.083 65.698,112.200 65.771 C 112.325 65.848,112.354 65.794,112.284 65.611 C 112.225 65.458,112.231 65.333,112.298 65.333 C 112.470 65.333,112.762 64.581,113.054 63.384 C 113.294 62.400,112.950 60.167,112.558 60.167 C 112.506 60.167,112.505 60.274,112.556 60.405 M32.225 62.031 C 31.495 64.126,31.989 67.926,33.113 68.858 C 33.359 69.062,33.358 69.032,33.105 68.542 C 32.933 68.210,32.895 68.000,33.007 68.000 C 33.222 68.000,33.881 68.333,34.000 68.501 C 34.076 68.609,35.511 69.283,35.795 69.344 C 35.862 69.358,36.104 69.498,36.333 69.654 C 36.563 69.810,38.025 70.569,39.583 71.341 C 41.142 72.113,42.454 72.795,42.500 72.857 C 42.547 72.919,42.903 73.097,43.292 73.253 C 43.681 73.409,44.000 73.611,44.000 73.703 C 44.000 73.794,43.905 73.832,43.788 73.788 C 43.672 73.743,43.278 73.764,42.913 73.834 L 42.250 73.962 42.917 73.976 C 44.488 74.009,49.214 72.885,48.790 72.579 C 48.711 72.522,36.036 66.083,34.125 65.128 L 32.167 64.151 32.167 63.519 C 32.167 63.171,32.276 62.522,32.411 62.076 C 32.743 60.970,32.607 60.936,32.225 62.031 M88.712 63.500 C 88.712 63.913,88.745 64.081,88.784 63.875 C 88.824 63.669,88.824 63.331,88.784 63.125 C 88.745 62.919,88.712 63.087,88.712 63.500 M53.333 64.219 C 53.333 64.248,53.577 64.491,53.875 64.760 L 54.417 65.250 53.927 64.708 C 53.471 64.203,53.333 64.090,53.333 64.219 " stroke="none" fill="#e7f4fb" fill-rule="evenodd"></path><path id="path4" d="M99.667 52.506 C 96.242 52.922,93.023 54.848,91.112 57.624 C 90.450 58.585,89.344 61.000,89.566 61.000 C 89.662 61.000,91.487 60.200,92.583 59.677 C 93.133 59.414,94.221 58.902,95.000 58.538 C 95.779 58.174,97.054 57.577,97.833 57.212 C 98.612 56.847,99.888 56.250,100.667 55.885 C 101.446 55.520,102.890 54.853,103.875 54.402 C 105.957 53.450,105.972 53.428,104.708 53.075 C 104.181 52.929,103.525 52.745,103.250 52.668 C 102.429 52.438,100.821 52.365,99.667 52.506 M38.667 56.653 C 38.346 56.728,37.790 56.918,37.432 57.075 L 36.780 57.360 37.932 57.985 C 38.565 58.328,42.229 60.205,46.073 62.156 C 49.918 64.107,53.180 65.767,53.323 65.845 C 53.466 65.924,53.909 66.146,54.308 66.339 L 55.033 66.690 54.725 66.150 C 53.656 64.276,51.049 62.585,48.921 62.387 C 47.825 62.284,47.788 62.266,47.548 61.692 C 46.112 58.254,41.940 55.887,38.667 56.653 M55.042 69.529 C 54.744 69.713,54.500 69.937,54.500 70.025 C 54.500 70.179,54.726 70.090,55.083 69.793 C 55.175 69.717,55.400 69.548,55.583 69.416 C 56.084 69.057,55.663 69.145,55.042 69.529 M53.684 70.431 C 53.041 70.888,53.113 70.956,53.842 70.579 C 54.112 70.439,54.333 70.252,54.333 70.162 C 54.333 69.961,54.363 69.948,53.684 70.431 M52.375 71.124 C 52.077 71.272,51.833 71.458,51.833 71.536 C 51.833 71.691,52.226 71.505,52.750 71.101 C 53.172 70.776,53.062 70.782,52.375 71.124 " stroke="none" fill="#9cd4e5" fill-rule="evenodd"></path></g></svg>