<svg version="1.1" id="Capa_1" xmlns="http://www.w3.org/2000/svg" xmlns:xlink="http://www.w3.org/1999/xlink" x="0px" y="0px"
	 viewBox="0 0 179.5 179.5" style="enable-background:new 0 0 179.5 179.5;" xml:space="preserve">
<g>
	<path style="fill:#010002;" d="M35.362,28.163c0,4.063-3.122,7.354-6.978,7.354H13.263c-3.867-0.005-6.989-3.285-6.989-7.354l0,0
		c0-4.058,3.122-7.348,6.989-7.348h15.115C32.235,20.815,35.362,24.106,35.362,28.163L35.362,28.163z M35.362,69.223
		c0-4.058-3.122-7.359-6.978-7.359H13.263c-3.867,0-6.989,3.291-6.989,7.359l0,0c0,4.058,3.122,7.354,6.989,7.354h15.115
		C32.235,76.566,35.362,73.281,35.362,69.223L35.362,69.223z M35.362,110.266c0-4.058-3.122-7.354-6.978-7.354H13.263
		c-3.867,0.005-6.989,3.285-6.989,7.354l0,0c0,4.058,3.122,7.359,6.989,7.359h15.115C32.235,117.625,35.362,114.335,35.362,110.266
		L35.362,110.266z M35.362,151.315c0-4.052-3.122-7.343-6.978-7.343H13.263c-3.867,0.005-6.989,3.285-6.989,7.343l0,0
		c0,4.068,3.122,7.359,6.989,7.359h15.115C32.235,158.674,35.362,155.383,35.362,151.315L35.362,151.315z M173.226,8.033v163.438
		c0,4.427-3.59,8.028-8.023,8.028H28.987c-4.438,0-8.033-3.59-8.033-8.028v-7h7.419c6.891,0,12.499-5.896,12.499-13.141
		c0-7.239-5.608-13.135-12.499-13.135h-7.419v-14.783h7.419c6.891,0,12.499-5.896,12.499-13.141s-5.608-13.13-12.499-13.13h-7.419
		V82.364h7.419c6.891,0,12.499-5.896,12.499-13.141s-5.608-13.141-12.499-13.141h-7.419V41.304h7.419
		c6.891,0,12.499-5.896,12.499-13.141s-5.608-13.13-12.499-13.13h-7.419v-7c0-4.438,3.59-8.033,8.033-8.033h136.221
		C169.636,0,173.226,3.59,173.226,8.033z M82.198,68.173c0.19-2.382,1.713-4.955,3.666-4.688c2.197,0.31,7.626,4.313,9.584,5.341
		c5.33,2.736,13.919-18.466,9.932-20.962c-3.122-1.931-5.918-4.558-9.317-5.967c-0.571-0.234-1.202-0.234-1.817-0.364
		c-13.897-3.111-28.076,8.882-29.523,26.929c-0.566,6.897-0.881,13.804-1.017,20.717h-0.033c0.011,0.19,0.022,0.37,0.022,0.566
		s-0.011,0.359-0.022,0.566h0.033c0.12,6.913,0.446,13.821,1.017,20.717c1.447,18.036,15.626,30.029,29.523,26.918
		c0.615-0.12,1.246-0.125,1.817-0.354c3.399-1.409,6.195-4.03,9.317-5.972c3.981-2.491-4.601-23.682-9.932-20.962
		c-1.953,1.028-7.381,5.047-9.584,5.352c-1.942,0.267-3.476-2.317-3.666-4.694c-0.511-6.288-0.054-14.332-0.011-21h0.011
		c0-0.19,0-0.375,0-0.566c0-0.19,0-0.381,0-0.566h-0.011C82.143,82.505,81.687,74.466,82.198,68.173z M116.774,107.824
		c9.975-9.975,9.975-26.184,0-36.159l-5.303,5.314c7.054,7.044,7.054,18.504,0,25.536L116.774,107.824z M126.243,117.272
		c15.17-15.17,15.17-39.868-0.011-55.049l-5.303,5.303c12.26,12.26,12.26,32.199,0,44.453L126.243,117.272z M135.397,53.069
		l-5.303,5.298c17.296,17.302,17.296,45.46,0,62.761l5.303,5.303C155.614,106.198,155.614,73.291,135.397,53.069z"/>
</g>
</svg>
