<svg width="37" height="36" viewBox="0 0 37 36" fill="none" xmlns="http://www.w3.org/2000/svg">
    <path
        d="M18.4113 1.875H18.5882C22.147 1.87499 24.9359 1.87497 27.112 2.15963C29.3392 2.45099 31.0969 3.059 32.4763 4.40121C33.8558 5.74342 34.4807 7.45345 34.7802 9.62056C35.0727 11.7378 35.0727 14.4513 35.0727 17.9139V18.0861C35.0727 21.5487 35.0727 24.2622 34.7802 26.3794C34.4807 28.5465 33.8558 30.2566 32.4763 31.5988C31.1992 32.8414 29.5968 33.4557 27.5946 33.771C25.6262 34.081 23.1502 34.1187 20.0436 34.1241C19.405 34.1253 18.8864 33.6225 18.8852 33.0012C18.8841 32.3799 19.4007 31.8753 20.0394 31.8741C23.1842 31.8685 25.4707 31.8262 27.2251 31.5499C28.9456 31.2789 30.0262 30.8007 30.8411 30.0078C31.7194 29.1532 32.2233 27.9972 32.4882 26.0796C32.7577 24.1296 32.7602 21.5673 32.7602 18C32.7602 14.4327 32.7577 11.8703 32.4882 9.92037C32.2233 8.00275 31.7194 6.84667 30.8411 5.9922C29.963 5.13771 28.7746 4.64737 26.8038 4.38955C24.7998 4.12738 22.1661 4.125 18.4997 4.125C14.8333 4.125 12.1998 4.12738 10.1957 4.38955C8.22483 4.64737 7.03663 5.13771 6.15841 5.9922C5.34345 6.78512 4.85198 7.8364 4.57348 9.51046C4.28952 11.2174 4.24589 13.4421 4.24024 16.5021C4.23908 17.1234 3.72048 17.626 3.08191 17.625C2.44333 17.6239 1.9266 17.1193 1.92774 16.4979C1.93333 13.4752 1.97209 11.0661 2.29069 9.15094C2.61478 7.20289 3.24608 5.64382 4.52322 4.40121C5.90272 3.059 7.66025 2.45099 9.88756 2.15963C12.0636 1.87497 14.8525 1.87499 18.4113 1.875Z"
        fill="#1C274C" />
    <path
        d="M19.2708 10.5C19.2708 9.87868 19.7885 9.375 20.427 9.375H26.2083C26.8469 9.375 27.3645 9.87868 27.3645 10.5V16.125C27.3645 16.7463 26.8469 17.25 26.2083 17.25C25.5697 17.25 25.052 16.7463 25.052 16.125V13.216L19.3175 18.7955C18.866 19.2348 18.134 19.2348 17.6824 18.7955C17.2309 18.3561 17.2309 17.6439 17.6824 17.2045L23.4168 11.625H20.427C19.7885 11.625 19.2708 11.1213 19.2708 10.5Z"
        fill="#1C274C" />
    <path fill-rule="evenodd" clip-rule="evenodd"
        d="M9.16951 19.875C7.78435 19.875 6.62931 19.8748 5.71235 19.9948C4.74451 20.1214 3.87069 20.4 3.16851 21.0833C2.46633 21.7664 2.18009 22.6165 2.04995 23.5582C1.92668 24.4504 1.92671 25.5742 1.92676 26.922V27.078C1.92671 28.4257 1.92668 29.5496 2.04995 30.4418C2.18009 31.3835 2.46633 32.2337 3.16851 32.9167C3.87069 33.6 4.74451 33.8785 5.71235 34.0051C6.62931 34.1251 7.78434 34.125 9.16948 34.125H9.32984C10.715 34.125 11.8701 34.1251 12.787 34.0051C13.7549 33.8785 14.6287 33.6 15.3309 32.9167C16.033 32.2337 16.3193 31.3835 16.4494 30.4418C16.5727 29.5496 16.5726 28.4257 16.5726 27.078V26.922C16.5726 25.5742 16.5727 24.4504 16.4494 23.5582C16.3193 22.6165 16.033 21.7664 15.3309 21.0833C14.6287 20.4 13.7549 20.1214 12.787 19.9948C11.87 19.8748 10.715 19.875 9.32984 19.875H9.16951ZM4.80369 22.6742C5.0046 22.4787 5.30907 22.3179 6.0205 22.2247C6.76517 22.1274 7.76349 22.125 9.24968 22.125C10.7359 22.125 11.7342 22.1274 12.4789 22.2247C13.1903 22.3179 13.4948 22.4787 13.6957 22.6742C13.8966 22.8696 14.0619 23.1659 14.1575 23.8581C14.2576 24.5826 14.2601 25.554 14.2601 27C14.2601 28.446 14.2576 29.4174 14.1575 30.1419C14.0619 30.8342 13.8966 31.1304 13.6957 31.3258C13.4948 31.5213 13.1903 31.6821 12.4789 31.7753C11.7342 31.8726 10.7359 31.875 9.24968 31.875C7.76349 31.875 6.76517 31.8726 6.0205 31.7753C5.30907 31.6821 5.0046 31.5213 4.80369 31.3258C4.60278 31.1304 4.43749 30.8342 4.34184 30.1419C4.24173 29.4174 4.23926 28.446 4.23926 27C4.23926 25.554 4.24173 24.5826 4.34184 23.8581C4.43749 23.1659 4.60278 22.8696 4.80369 22.6742Z"
        fill="#1C274C" />
</svg>