<?xml version="1.0" encoding="iso-8859-1"?>
<!-- Generator: Adobe Illustrator 19.0.0, SVG Export Plug-In . SVG Version: 6.00 Build 0)  -->
<svg version="1.1" id="Layer_1" xmlns="http://www.w3.org/2000/svg" xmlns:xlink="http://www.w3.org/1999/xlink" x="0px" y="0px"
	 viewBox="0 0 508 508" style="enable-background:new 0 0 508 508;" xml:space="preserve">
<path style="fill:#00ABE3;" d="M504,378.8c0,68.8-56.4,125.2-125.2,125.2H129.2C60.4,504,4,447.6,4,378.8V129.2C4,60.4,60,4,129.2,4
	h249.6C447.6,4,504,60.4,504,129.2V378.8z"/>
<path style="fill:#FFFFFF;" d="M401.2,134c-12.4,7.2-26,12.4-40.8,15.2c-11.6-12.4-28.4-20-46.8-20c-35.2,0-64,28.4-64,63.2
	c0,4.8,0.4,9.6,1.6,14.4c-53.2-2.8-100.4-27.6-132-66c-5.6,9.2-8.8,20-8.8,31.6c0,22,11.6,41.2,28.8,52.4c-10.4-0.4-20.8-3.2-28.4-8
	v0.8c0,30.4,21.6,56,50.8,61.6c-5.2,1.6-11.2,2.4-17.2,2.4c-4,0-8.4-0.4-12-1.2c8,25.2,31.6,43.2,59.6,43.6
	c-22,16.8-49.6,26.8-79.6,26.8c-5.2,0-10.4-0.4-15.2-0.8c28.4,18,62,28.4,98,28.4c117.6,0,182-96,182-179.2c0-2.8,0-5.6,0-8
	c12.4-8.8,23.2-20,32-32.8c-11.6,5.2-24,8.4-36.8,10C386.4,160.8,396.4,148.4,401.2,134"/>
<path d="M378.8,508H129.2C58,508,0,450,0,378.8V129.2C0,58,58,0,129.2,0h249.6C450,0,508,58,508,129.2v249.6
	C508,450,450,508,378.8,508z M129.2,8C62.4,8,8,62.4,8,129.2v249.6C8,445.6,62.4,500,129.2,500h249.6c66.8,0,121.2-54.4,121.2-121.2
	V129.2C500,62.4,445.6,8,378.8,8H129.2z"/>
<path d="M370,484H138c-62,0-114.4-52.4-114.4-114.4V138C24,76,76,24,138,24h230.8c2.4,0,4,1.6,4,4s-1.6,4-4,4H138
	C80.4,32,32,80.4,32,138v232c0,57.6,48.8,106.4,106.4,106.4h232c57.6,0,106-48.8,106-106.4V258c0-2.4,1.6-4,4-4s4,1.6,4,4v112
	C484,432,432,484,370,484z"/>
<path d="M447.2,65.2c-1.2,0-2-0.4-2.8-1.2c-20.4-20.4-47.6-32-75.2-32c-2.4,0-4-1.6-4-4s1.6-4,4-4c29.6,0,59.2,12.4,80.8,34.4
	c1.6,1.6,1.6,4,0,5.6C449.2,64.8,448,65.2,447.2,65.2z"/>
<path d="M480,234c-2.4,0-4-1.6-4-4v-59.2c0-2.4,1.6-4,4-4s4,1.6,4,4V230C484,232.4,482.4,234,480,234z"/>
<path d="M377.6,203.6c-2.4,0-4-1.6-4-4c0-2.8,0-5.2,0-8c0-1.2,0.4-2.8,1.6-3.6c8.4-6,16-12.8,22.8-20.8c-8,2.4-16.4,4.4-24.8,5.2
	c-2,0.4-3.6-0.8-4.4-2.8s0-3.6,1.6-4.8c12.4-7.2,22-18.8,26.4-32.8c0.8-2,2.8-3.2,5.2-2.4c2,0.8,3.2,2.8,2.4,5.2
	c-3.2,10-8.8,19.2-16.4,26.8c6.8-1.6,13.2-4,19.6-6.8c1.6-0.8,3.6-0.4,4.8,1.2c1.2,1.2,1.2,3.2,0.4,4.8
	c-8.4,12.4-18.8,23.2-31.2,32.4c0,2,0,4,0,6C381.6,201.6,379.6,203.6,377.6,203.6z"/>
<path d="M195.2,382.8c-35.6,0-70.4-10-100.4-28.8c-1.6-0.8-2.4-2.8-1.6-4.8s2.4-2.8,4.4-2.8c30,3.6,59.2-3.6,83.2-19.2
	c-24.4-4.4-44.8-21.6-52.4-45.6c-0.4-1.2,0-2.8,0.8-4s2.4-1.6,3.6-1.2c3.6,0.8,7.6,1.2,11.2,1.2c-22.4-11.2-37.2-34-37.2-60v-0.8
	c0-1.6,0.8-2.8,2-3.6s2.8-0.8,4,0c3.6,2.4,8,4,12.4,5.2c-12.4-12.4-19.6-29.2-19.6-46.4c0-12,3.2-23.6,9.2-33.6c0.8-1.2,2-2,3.2-2
	s2.4,0.4,3.2,1.6c30.8,37.2,75.6,60.4,124,64c-0.4-3.2-0.8-6.8-0.8-10c0-36.8,30.4-67.2,68-67.2c18,0,35.2,7.2,48,19.6
	c13.2-2.8,25.6-7.6,37.2-14.4c2-1.2,4.4-0.4,5.6,1.6s0.4,4.4-1.6,5.6c-13.2,7.6-27.2,12.8-42,15.6c-1.2,0.4-2.8,0-3.6-1.2
	c-11.2-12-27.2-18.8-44-18.8c-33.2,0-60,26.4-60,59.2c0,4.4,0.4,9.2,1.6,13.6c0.4,1.2,0,2.4-0.8,3.6s-2,1.6-3.2,1.6
	c-50.4-2.4-98-25.2-130.8-62.8c-3.6,7.6-5.6,16-5.6,24.8c0,19.6,10.4,38,27.2,49.2c1.6,0.8,2,2.8,1.6,4.4c-0.4,1.6-2,2.8-4,2.8
	c-8.4-0.4-16.8-2-24-5.2c2.4,25.6,21.6,46.8,47.2,52c2,0.4,3.2,2,3.2,3.6c0,2-1.2,3.6-2.8,4c-7.6,2-16,2.8-24.4,2
	c9.6,20.8,30.4,34.4,53.6,34.8c1.6,0,3.2,1.2,3.6,2.8c0.4,1.6,0,3.2-1.2,4.4c-23.2,18-51.2,27.6-80.4,27.6
	c25.2,12.8,52.8,19.6,81.6,19.6c61.2,0,113.2-26.8,146.4-75.6c1.2-2,3.6-2.4,5.6-1.2c2,1.2,2.4,3.6,1.2,5.6
	C314,354.8,259.6,382.8,195.2,382.8z"/>
<g>
</g>
<g>
</g>
<g>
</g>
<g>
</g>
<g>
</g>
<g>
</g>
<g>
</g>
<g>
</g>
<g>
</g>
<g>
</g>
<g>
</g>
<g>
</g>
<g>
</g>
<g>
</g>
<g>
</g>
</svg>
