<svg width="32" height="27" viewBox="0 0 32 27" fill="none" xmlns="http://www.w3.org/2000/svg">
<path d="M10.0573 26.0124C22.1347 26.0124 28.7424 16.0049 28.7424 7.3274C28.7424 7.04289 28.7424 6.75839 28.721 6.48099C30.0084 5.54923 31.118 4.39697 32 3.08112C30.798 3.61458 29.5319 3.9631 28.2303 4.11246C29.603 3.2945 30.6273 1.99999 31.118 0.477879C29.8306 1.24605 28.4152 1.7795 26.95 2.07112C24.4605 -0.5748 20.3067 -0.702829 17.6608 1.78661C15.9538 3.38697 15.2283 5.78395 15.7617 8.06001C10.4841 7.79684 5.56213 5.30028 2.22627 1.19626C0.483663 4.19782 1.37275 8.03867 4.2605 9.9591C3.21494 9.93065 2.19071 9.64614 1.28028 9.13402C1.28028 9.16248 1.28028 9.19093 1.28028 9.21938C1.28028 12.3418 3.48522 15.0376 6.55079 15.6564C5.58346 15.9195 4.56635 15.9551 3.5848 15.7702C4.44543 18.4445 6.91354 20.2796 9.72305 20.3294C7.3972 22.1574 4.52367 23.146 1.56479 23.146C1.04557 23.146 0.519226 23.1105 0 23.0536C2.99444 24.9882 6.48677 26.0124 10.0573 26.0124Z" fill="#555555"/>
</svg>
